<svg id="_лой_1_копия2_" data-name="—лой 1 (копия2)" xmlns="http://www.w3.org/2000/svg" viewBox="0 0 93.92 113.25"><title>print-Монтажная область 37</title><path d="M47.32,66.51c-1.12,2.47-1.85,4.05-2.55,5.65A40.9,40.9,0,0,1,28.29,91C22.77,94.38,17,94.46,11,92.93c-3.5-.89-6-3.25-8.22-6a4,4,0,0,1,.46-5.07,3.5,3.5,0,0,1,4.43-.56c1.22.63,2.26,1.59,3.49,2.21,7.52,3.77,15,3.16,20.81-4.43a43.31,43.31,0,0,0,8.26-20.19c1.6-10.52-3.5-19.54-13.14-24.12-3.32-1.58-6.58-3.25-10.53-2.51S9,34.26,6.77,38a6,6,0,0,1-2.3,2.46,4.68,4.68,0,0,1-3.22-.12A2.15,2.15,0,0,1,.19,37.38c1.28-3.5,3-6.77,6.35-8.72,7.38-4.24,15.21-5.68,23.07-2,5.6,2.63,10.66,6.36,13.53,12.26,1,2.06,2.11,4.07,3.45,6.65.79-1.32,1.38-2.19,1.85-3.13.82-1.65,1.52-3.35,2.33-5,6.5-13.18,17.66-18,31.68-17.34,3.63.17,6.28,2.61,8.75,5.05a3.22,3.22,0,0,1,.21,4.38,2.82,2.82,0,0,1-3.72.8,27.17,27.17,0,0,0-7.77-2.6A14.94,14.94,0,0,0,69.39,30c-13,8.22-17.33,21.15-13.88,35.85,3.72,8,8.77,14.32,18.23,16.1,5.36,1,9.9.53,14.21-3,2.43-2,4.35-1.3,5.58,1.27A3.21,3.21,0,0,1,93,84c-3.4,3.62-7.47,6.15-12.52,6.56-2.5.2-5.06-.29-7.57-.15-11.36.63-20.91-9.63-23.4-18.91A42.17,42.17,0,0,0,47.32,66.51Z"/><path d="M55.89,13.4c-.93,5.2-4.19,9.66-7.11,14.28a2.3,2.3,0,0,1-3.61.38,22.77,22.77,0,0,1-3.06-3.65c-.88-1.32-1.38-2.89-2.24-4.22a9.85,9.85,0,0,1-.32-11c1.36-2.39,2.53-4.9,4-7.24C45.08-.61,47.42-.64,49,1.82,51.26,5.5,53.43,9.26,55.89,13.4Z"/><path d="M47,83.53c4.57,3.94,6.22,9.42,9.74,14.1-2.36,4.57-4.57,9.07-7,13.44-1.46,2.63-4.21,2.94-5.75.62a102.32,102.32,0,0,1-6.36-11,5.56,5.56,0,0,1,0-4.5c2.21-3.91,4.85-7.59,7.37-11.32C45.26,84.47,45.84,84.29,47,83.53Z"/><path d="M77.78,53.31c.72,3.39-1.58,7.59-4.54,8.31s-7-2.15-7.85-5.38c-.77-2.85,2-6.94,5.35-7.8S77,49.74,77.78,53.31Z"/><path d="M28.18,55.2c0,1-.07,2.1,0,3.22.08,2.45-.62,4.49-3,5.56a6.72,6.72,0,0,1-7-1.72C14.08,57.39,14.79,54,19.7,50.13a3.08,3.08,0,0,1,2.37-.49A8.71,8.71,0,0,1,28.18,55.2Z"/></svg>