<svg id="_лой_1_копия2_" data-name="—лой 1 (копия2)" xmlns="http://www.w3.org/2000/svg" viewBox="0 0 228.86 223.29"><title>print-Монтажная область 17</title><path d="M45.29,81.58c-.31-.75-.41-1.8-1-2.2-2-1.48-4.24-2.74-6.37-4.09-7-4.43-14-8.82-21-13.34a4.66,4.66,0,0,1-1.66-2.75c-.15-.71.54-1.59,1-2.79,13.43,4.5,26.19,10.06,41,14.86a34,34,0,0,0-2.62-4c-7.4-7.56-14.8-15.11-22.31-22.57-1.34-1.34-2.57-2.59-3-4.49-.29-1.38,1.28-2.95,2.52-2.33a68.35,68.35,0,0,1,5.9,3.47c7,4.44,13.94,8.95,21,13.35,1.88,1.18,3.95,2.07,7,3.63a75.91,75.91,0,0,0-5.31-10.58c-3.89-6.78-7.71-13.6-11.54-20.42a3.65,3.65,0,0,1-.71-1.89,4.42,4.42,0,0,1,1-2.37,2,2,0,0,1,1.87-.23,27.56,27.56,0,0,1,4.3,3.31c6.76,6.56,13.46,13.19,20.2,19.76.26.26.83.21,1.67.39a45.86,45.86,0,0,0-.55-4.63c-1.9-8.52-3.88-17-5.79-25.54A11.07,11.07,0,0,1,70.56,12a4.17,4.17,0,0,1,1.91-2.52,2.59,2.59,0,0,1,2.34.77,56.52,56.52,0,0,1,5.11,7.36c4.31,7.87,8.43,15.84,12.65,23.76a15.21,15.21,0,0,0,1.69,2,8.58,8.58,0,0,0,1-2.47c.23-8.5.36-17,.54-25.51.08-3.89.13-7.79.38-11.67A8.2,8.2,0,0,1,97.45.6c.46-.85,2.59-.78,3,.09A19.32,19.32,0,0,1,102,4.52c1.94,8.28,3.92,16.55,5.64,24.88.64,3.08,1.75,6,2,9.14,2.48-.71,2.24-2.29,2.51-3.55q3.19-14.85,6.32-29.71c.33-1.6.43-3.3,2.36-3.81,1.32-.35,3,1.46,3,4q.05,12-.35,24.09a53.38,53.38,0,0,0,.15,9.81c1.72-2.69,2.88-4.32,3.85-6.06,3.59-6.43,7.09-12.9,10.7-19.32a58.2,58.2,0,0,1,4.1-6.37,2.66,2.66,0,0,1,2.39-.67,3,3,0,0,1,1.66,2,9,9,0,0,1-.21,3.38c-1.37,7.21-2.79,14.41-4.19,21.61-.52,2.68-1.05,5.36-1.79,9.1a54.31,54.31,0,0,0,7.27-7.57c5-6,10-12,15.06-18a26.83,26.83,0,0,1,3.95-3.85,2.7,2.7,0,0,1,2.46-.24,2.56,2.56,0,0,1,.93,2.27A43.47,43.47,0,0,1,167.14,22c-3.06,6.18-6.3,12.27-9.28,18.49-.94,2-2.34,3.9-2,7,1.7-1.5,3-2.76,4.35-3.83q10.09-7.75,20.27-15.4a19.21,19.21,0,0,1,4.19-2.28,2,2,0,0,1,2.43,2.39,18.19,18.19,0,0,1-2.2,4.25c-5,6.59-10.08,13.1-15.14,19.65-1.54,2-3.13,4-4.6,6a5,5,0,0,0-.41,1.82c2,.86,3.19-.48,4.52-1.19,9.33-5,18.62-10,28-15a16.2,16.2,0,0,1,4.56-1.52c.72-.13,1.57.49,2.26.73.33,2.59-1.41,3.7-2.67,4.88-5,4.7-10.29,9.18-15.27,13.93-2.57,2.45-5.87,4.32-7.58,8.3,6-1.47,11.49-2.79,17-4.2,6.23-1.59,12.43-3.27,18.65-4.87a11.59,11.59,0,0,1,2.72-.28c1.06,0,2.15,1.68,1.51,2.53a11.1,11.1,0,0,1-3.28,3.31c-4.88,2.56-9.91,4.84-14.87,7.27q-9.29,4.54-18.55,9.14c-.75.37-1.73.69-1.73,2.33,14.43.37,28.75-2.55,43-1.17,1.45,1.43,1.17,2.72-.23,3.51a20.84,20.84,0,0,1-4.51,1.65c-8.4,2.4-16.82,4.74-25.22,7.14a24.06,24.06,0,0,0-2.85,1.19c-.1.59-.23.87-.15,1a1,1,0,0,0,.62.26l10.23,1.44c7.5,1.06,15,2.07,22.5,3.21a11.14,11.14,0,0,1,3.77,1.52,2.16,2.16,0,0,1,.63,1.81,2.24,2.24,0,0,1-1.1,1.58,12.69,12.69,0,0,1-3.35.63q-15.48,1.35-31,2.65l-2.63.21c.09,2,1.52,2.22,2.79,2.67,10.83,3.84,21.56,8,32.77,10.67a13.23,13.23,0,0,1,1.34.33c1.58.56,2.56,1.89,2.15,3a3,3,0,0,1-3.14,2.16c-5.3-.11-10.6-.08-15.88-.4-8.49-.52-17-1.28-25.43-1.89a10.28,10.28,0,0,0-2.48.69,22.16,22.16,0,0,0,2.64,1.69q11.75,5,23.54,9.84c4.46,1.84,9,3.58,13.43,5.4a3.33,3.33,0,0,1,1.63,1.18,4.26,4.26,0,0,1,.57,2.47c-.06.46-.94,1.08-1.5,1.15a11.51,11.51,0,0,1-3.39-.16c-11.53-2.11-23.19-3.48-34.54-6.51a56.85,56.85,0,0,0-5.85-.84,24.52,24.52,0,0,0,2.84,2.7c8,5,16,9.94,24,14.93a32.78,32.78,0,0,1,3.33,2.45c.92.75,1.65,1.67,1,3a2.12,2.12,0,0,1-2.88,1.07c-5.47-1.78-11-3.39-16.38-5.38-7.53-2.79-15-5.9-22.44-8.81a13.45,13.45,0,0,0-3.15-.28c2.6,4.6,6,7.7,9,11.16,4.63,5.44,9.35,10.79,14,16.23a18.18,18.18,0,0,1,2.67,4,2.6,2.6,0,0,1-.48,2.39,3.11,3.11,0,0,1-2.48.37,7.34,7.34,0,0,1-2.32-1.43c-7.59-5.57-15.2-11.1-22.73-16.76a72.74,72.74,0,0,0-8-5.12c.83,4.48,3.39,8,5.15,11.85s4,7.75,6,11.66,3.8,7.83,5.59,11.55c-1,2.3-2.51,2.74-3.87,1.25-3.55-3.91-7-7.93-10.23-12.1-3.66-4.71-7-9.64-10.58-14.43a23.88,23.88,0,0,0-2.82-2.5c.93,4.45,1.51,7.8,2.33,11.08,1.73,6.91,3.59,13.79,5.39,20.69.52,2,1,4,1.49,6,.37,1.44.45,2.86-1.21,3.45s-2.66-.48-3.41-1.67a59.48,59.48,0,0,1-3-5.44c-4.54-9.31-9-18.63-13.55-27.95-.39-.8-.86-1.55-1.22-2.18-1.8-.15-1.48,1-1.52,1.79-.55,8.93-1,17.86-1.61,26.79-.28,4.12-.85,8.23-1.33,12.34a3.53,3.53,0,0,1-.65,1.92,3.6,3.6,0,0,1-2.19,1.3,2.69,2.69,0,0,1-2.08-1.36,59,59,0,0,1-2-8c-1.56-9-3-18.11-4.48-27.14-1.56-.17-1.62,1-1.74,1.78-.77,5.23-1.37,10.49-2.14,15.72-1,6.58-2,13.15-3.11,19.72a8.41,8.41,0,0,1-1,2.51c-.5.93-2.56.84-2.86-.2a26.62,26.62,0,0,1-1.24-6c-.59-12.18-1-24.36-1.56-36.54,0-.37-.35-.74-.54-1.11-1.23-.08-1.43,1-1.75,1.74C94.23,190.75,90,201,85.79,211.14c-.91,2.19-1.23,5.76-4.44,5-2.78-.7-1.53-4-1.38-6.1a293.84,293.84,0,0,1,4.64-34.17c.21-1.09.37-2.19.72-4.29-1.45.92-2.32,1.16-2.67,1.73q-7.45,12-14.77,24.11c-1.79,2.94-3.43,6-5.33,8.85A2.07,2.07,0,0,1,59,204.62q1.62-6.34,3.62-12.58c2.36-7.4,4.83-14.76,7.61-23.25A41.85,41.85,0,0,0,64,175c-5.28,6.07-10.55,12.15-15.88,18.18a22,22,0,0,1-3.54,3.27,7,7,0,0,1-2.52.61c-.17-.84-.67-1.79-.44-2.5a29.63,29.63,0,0,1,2.21-5c5-9.31,10.1-18.58,15.13-27.88a16.18,16.18,0,0,0,.86-2.42c-2.22-.89-3.23.76-4.44,1.59-8.53,5.86-17,11.82-25.51,17.73a16,16,0,0,1-2.93,1.81c-1.57.64-2.64-.06-3.27-2,9.76-11.83,20.63-22.93,31.73-34.74-1.56,0-2.32-.22-2.85,0-6,2.89-12,5.85-18,8.8-4.74,2.34-9.47,4.72-14.21,7.06a4.71,4.71,0,0,1-1.94.59c-.62,0-1.62-.23-1.77-.62a3.25,3.25,0,0,1,0-2.47A10.11,10.11,0,0,1,19,154.57c8.7-7.51,17.42-15,26.11-22.53a42.56,42.56,0,0,0,3.24-3.66,44.16,44.16,0,0,0-4.93.62c-6.46,1.68-12.88,3.49-19.34,5.17-3.78,1-7.59,1.89-11.41,2.68a18.77,18.77,0,0,1-3.84,0c-1.36-2.21-.17-3.34,1.27-4.2,4.34-2.59,8.7-5.18,13.13-7.62,5.44-3,11-5.8,16.44-8.75,1.36-.73,2.6-1.69,4.85-3.18-3.85-.39-6.53-.77-9.23-.91-10.09-.49-20.2-.84-30.29-1.37-3.93-.2-5.16-.93-4.92-2.4.39-2.46,2.6-2.4,4.27-2.72,9.25-1.77,18.53-3.4,27.81-5.05,1.35-.24,2.74-.3,4.1-.53,2.83-.47,5.65-1,9.52-1.67a63.14,63.14,0,0,0-11-5.78c-7.31-3.3-14.79-6.24-22.18-9.39A10.61,10.61,0,0,1,9,81.22a4.26,4.26,0,0,1-1-3.05c.14-1.29,1.37-1.72,2.64-1.55,1.59.22,3.2.4,4.77.76a183.66,183.66,0,0,0,29.28,4.13,3.35,3.35,0,0,0,.69-.09c.34.07.6,1.29,1,.06Zm71.29-27c-13.44-.74-24.73,5-35.33,12.1C69.77,74.39,63.87,86,60.71,99.12c-1.47,6.12-2.12,12.27-.54,18.46,1.42,5.58,2.88,11.16,5.64,16.27,3.07,5.7,6.7,10.93,11.91,15C90,158.34,104.15,162.41,119.44,163a30.92,30.92,0,0,0,12.18-2.1c2.15-.81,4.32-1.59,6.47-2.41,10.11-3.82,17.52-10.64,22.79-20a64.58,64.58,0,0,0,6.78-19.4,52.4,52.4,0,0,0-9.4-42.49c-7.77-10.69-18.08-18.35-31.44-21C123.46,55,120,54.9,116.57,54.55Z"/><path d="M119.89,154.83a63.85,63.85,0,0,1-24.16-5A20.11,20.11,0,0,1,86,140.4a6.39,6.39,0,0,1-.78-3.3,2.55,2.55,0,0,1,1.6-1.86,8,8,0,0,1,4,.41c6.06,2.58,12.53,2.81,18.92,3.54a24.33,24.33,0,0,0,18.2-4.86,15.68,15.68,0,0,0,4-3.79c4.4-7.12,7.4-14.78,8-23.22A18.45,18.45,0,0,0,136.1,95a44.69,44.69,0,0,0-9.71-9.69C116.92,78.5,106.32,76.7,95,79.89c-4.42,1.24-8.86,2.41-13,4.54a6,6,0,0,1-2.54.93,3.73,3.73,0,0,1-2.32-1A2,2,0,0,1,77,82.43a16.76,16.76,0,0,1,2.76-3.91c16.52-15.82,38.69-19.95,59.17-9.8a24.41,24.41,0,0,1,5,3.47c2.6,2.26,5.1,4.64,7.51,7.1,5,5.12,7.36,11.64,8.73,18.45,2.63,13-.4,25-7.61,36a87,87,0,0,1-6.12,8.28c-5.38,6.4-12.59,9.89-20.46,12.1A30.6,30.6,0,0,1,119.89,154.83Z"/></svg>