<svg id="_лой_1_копия2_" data-name="—лой 1 (копия2)" xmlns="http://www.w3.org/2000/svg" viewBox="0 0 53.18 78.52"><title>print-Монтажная область 35</title><path d="M8.76,51.38C5.68,47.52.92,46,0,41.13c2.09-3.14,5.28-5,8.53-7.39-.74-1.27-1.31-2.43-2.06-3.45s-1.66-1.6-2.28-2.54c-2.18-3.3-1.93-5.91,1-8.56,2.54-2.29,5.25-4.42,8-6.46a8.73,8.73,0,0,1,3-.87c2.31,2,1.81,4.45,1.83,6.69.17,12.83.24,25.67.42,38.5,0,3.43.43,6.86.56,10.3a3.15,3.15,0,0,1-4.09,3.3A5.56,5.56,0,0,1,12.94,70c-3-2.07-6.09-4.1-9-6.35-3.32-2.59-3.31-6-.1-8.66C5.25,53.83,6.77,52.83,8.76,51.38ZM8.15,43l4.6,4c0-2.93,1.06-5-.77-7.46Zm4,19.3c.87-2.62,1.37-4.43-.17-6.56L8.21,59.29ZM8.63,24.45l4,3.29c0-2.33,0-3.85,0-5.36,0-.26-.54-.49-1.11-1Z"/><path d="M51.49,22.65c-1.31,5.21-6,6.27-7.91,9.9,2.05,2.33,5,3.17,7.43,4.82s3,4.41,1,6.41-4.15,3.54-6.52,5.52c1.58,1.87,3.1,3.57,4.48,5.37A17.31,17.31,0,0,1,52,58.16a4.69,4.69,0,0,1-1.2,5.7A23.53,23.53,0,0,1,37,69.34a18,18,0,0,1-1.74-8.21c.37-15.55.76-31.11,0-46.66a7.76,7.76,0,0,1,.12-1.36c.19-1.47,2-2.47,3.09-1.57C42.89,15.21,47.19,19,51.49,22.65ZM40.72,38.44v5.83c2.42-.12,4.32-.48,5.21-2.63C44.69,39.58,43.28,38.3,40.72,38.44Zm-.2-11.74c3.56-4.3,3.3-5.42-.95-6.83ZM42.08,62c3.43-3.14,3.43-3.14.05-5.84-.17,1.24-.39,2.29-.45,3.36A14.38,14.38,0,0,0,42.08,62Z"/><path d="M23.66,38.52q0-10.33,0-20.66c0-1.15,0-2.3.06-3.45.16-2.28,1-3.25,2.76-3.15s2.64,1,2.77,3.26q.41,6.87.49,13.75c.1,10.11,0,20.22.21,30.33,0,2.56.33,5.07-.83,7.41a3.43,3.43,0,0,1-1.95,1.64A2.15,2.15,0,0,1,24.52,66a36.05,36.05,0,0,1-.76-6.8c-.09-6.9,0-13.8,0-20.7Z"/><path d="M26.41,0A2.49,2.49,0,0,1,29,3.11a6.73,6.73,0,0,1-.14.67c-.67,2.31-2.41,3.49-4.55,3.09a2.85,2.85,0,0,1-2-3.14A4,4,0,0,1,26.41,0Z"/><path d="M27.42,78.5c-1.43.18-2.91-1.17-3.18-2.89A3.23,3.23,0,0,1,27,71.69,3.18,3.18,0,0,1,30.59,74,4,4,0,0,1,27.42,78.5Z"/></svg>