<svg id="_лой_1_копия2_" data-name="—лой 1 (копия2)" xmlns="http://www.w3.org/2000/svg" viewBox="0 0 166.42 115.43"><title>print-Монтажная область 31</title><path d="M37.71,11.59c1-.63,2-1.23,3-1.85,2.28-1.46,3.82-1.43,5.43.57,2.16,2.67,4.09,5.54,6.15,8.3.51.69,1.13,1.3,1.95,2.23,2.79-3.13,5.34-6,7.94-8.9a27.55,27.55,0,0,1,3.9-3.88,4,4,0,0,1,3.13-.5A2.59,2.59,0,0,1,70.67,11a26.58,26.58,0,0,1-3.16,6.06c-2.28,3.15-4.86,6.08-7.43,9.23,0,18.11-.35,36.25,1.44,54.31,2.49.47,3.52-1.36,4.83-2.44C70.62,74.67,74.77,71,79,67.46c.88-.74,1.81-1.42,2.69-2.15,3.07-2.57,6.37-2.44,9.63-.58a87,87,0,0,1,7.45,4.95c1.62,1.16,3.1,2.53,4.54,3.71,1.72-.9,1.21-2.19,1.23-3.22.19-8.51.27-17,.47-25.53.14-5.74.42-11.47.65-17.42-2.88-3-5.75-6-8.54-9a31.42,31.42,0,0,1-3.44-4.26A3,3,0,0,1,94,10.1c1.35-1.43,3.66-1.93,5-.9a28.79,28.79,0,0,1,3.49,3.31c2.19,2.33,4.32,4.72,6.71,7.35a21.94,21.94,0,0,0,3.42-2.39c1.75-1.82,3.28-3.85,5-5.75a9.64,9.64,0,0,1,2.47-2.35c1.58-.82,3.41-2.07,5.15-.89,1.2.81,1.9,2.36,3.09,3.93C125.76,15.17,123.7,18,121,20c-5.51,4.21-6.93,9.62-6.75,16.27.34,13.1.1,26.21.1,39.84a9.61,9.61,0,0,0,2.87-1.06c4.59-3.83,9.09-7.77,13.61-11.67,3.58-3.09,5.75-3.2,9.86-.57,6.63,4.26,12.26,9.66,17.59,15.41,1.87,2,3.71,4.09,5.42,6.25a19.19,19.19,0,0,1,2.45,4.11,3.68,3.68,0,0,1-1.48,4.25,3,3,0,0,1-3.84-.1C159,91.4,157.25,90,155.57,88.4c-6.73-6.22-13.41-12.49-20.3-18.91-9.5,6.72-15.86,16.79-25.41,22.63a13.07,13.07,0,0,1-8-4.72c-3.93-4.5-8.15-8.74-12.3-13a28,28,0,0,0-3-2.32c-2.11,1.51-4.23,2.85-6.14,4.44-6.36,5.28-12.61,10.68-19,15.94a9.71,9.71,0,0,1-4.11,2.23,6.31,6.31,0,0,1-5.62-1.78c-5.93-5.39-12.07-10.55-18.19-15.72a37.29,37.29,0,0,0-4.15-2.67,43.07,43.07,0,0,0-11.16,9c-2.68,3.15-5.64,6.06-8.62,8.94-1.79,1.72-3.84,3.17-5.71,4.69-1-.5-1.78-.64-2.19-1.1-2-2.28-2.24-3.53-.72-5.36s3.08-3.42,4.71-5c6-6,11.81-12.2,18.39-17.66,3-2.49,5.38-2.88,8.65-1.18,4.5,2.33,9,4.61,12.81,8a60.21,60.21,0,0,0,5.1,3.71c.56-.67,1.33-1.16,1.33-1.64-.13-15.64-.34-31.27-.53-46.62C48,23.44,41.8,18.93,37.71,11.59Z"/><path d="M135.06,81.57a9.85,9.85,0,0,1,5.87,3.13c5.4,5,10.87,9.94,16.27,14.94a17.53,17.53,0,0,1,2.71,3.1c1.19,1.79-.44,4.4-2.64,4.43a7.13,7.13,0,0,1-5-2.12c-4.12-3.68-8.22-7.37-12.36-11-.67-.59-1.45-1.07-2.53-1.85-1.41,1.21-2.85,2.27-4.08,3.53-4.81,4.93-9.54,9.94-14.35,14.86a20.51,20.51,0,0,1-3.21,2.55,3.8,3.8,0,0,1-4.54,0q-8.72-6.17-17.33-12.5c-2.57-1.89-5-4-7.56-6.07-7.19,4.79-14,9.35-20.07,15.05A57.73,57.73,0,0,1,61,114c-2.7,2-4.68,1.94-7.41-.38a197.91,197.91,0,0,0-21.78-15.8c-1.14-.73-2.35-1.37-3.89-2.25-3.06,3-6,5.83-8.94,8.62s-6.09,5.56-9.41,8.59c-1.32-1.07-2.59-1.69-3.23-2.71a4.2,4.2,0,0,1,.36-4.57A10.71,10.71,0,0,1,8,103.87c5.19-5.54,10.37-11.1,15.6-16.61,2.46-2.59,4.38-2.82,7.24-.64,4,3.07,7.91,6.33,11.84,9.52L55.24,106.3c3.87-2.62,8-5,11.48-8.36a97.4,97.4,0,0,1,13.14-10c4.26-2.89,6.43-3.06,10.48,0,5.7,4.27,11.33,8.65,17,12.95,1.61,1.22,3.3,2.35,5.29,3.75,3.95-4.23,7.62-8.31,11.45-12.24C127.76,88.61,131.58,85,135.06,81.57Z"/><path d="M110.63,10.92c-2.22-.34-3.78-1.6-4.14-3.39-.28-1.39.36-3.11,1-4.51s2.57-2,4.18-1.51a3.47,3.47,0,0,1,2.49,3C114.8,7.72,113.32,9.7,110.63,10.92Z"/><path d="M59.66,4.22a4.7,4.7,0,0,1-4.05,4.62A4.48,4.48,0,0,1,50.73,5.2C50.53,3,52.9.3,55.22,0,57.27-.23,59.47,1.84,59.66,4.22Z"/></svg>