<svg id="_лой_1_копия2_" data-name="—лой 1 (копия2)" xmlns="http://www.w3.org/2000/svg" viewBox="0 0 130.72 154.86"><title>print-Монтажная область 33</title><path d="M88.77,59.64c6.27-.24,12-.47,17.74-.65a10.13,10.13,0,0,1,3.4.23c.77.25,1.87,1.17,1.85,1.76a3.88,3.88,0,0,1-1.39,2.82,9.07,9.07,0,0,1-3.94,1.07c-3,.28-6,.29-9,.54-2.26.19-4.5.58-6.66.87-.18,3.18.07,3.69,1.83,3.56,7.8-.54,15.59-1.19,23.39-1.69,3.22-.21,6.45-.22,9.67-.21a6.36,6.36,0,0,1,3.3.65,3.91,3.91,0,0,1,1.72,2.73,3.3,3.3,0,0,1-1.85,2.51,27.13,27.13,0,0,1-6.11.75c-10.11.47-20.23.85-30.34,1.32-1.18.05-2.26.5-2.07,2.44,7.65,2.3,15.9-1.06,23.61,1.85,1.08,1.73.58,3.28-1.23,3.78A47.83,47.83,0,0,1,104,85.49c-5.94.48-11.9.69-17.58,1l-9.62,8.13c-.06,1.4-.17,3.21-.21,5-.15,6-.23,12-.46,17.94a42.59,42.59,0,0,1-.85,6.84c-.15.74-1.07,1.86-1.66,1.87a3.89,3.89,0,0,1-2.93-1.18,7.41,7.41,0,0,1-1-3.82c-.2-6.44-.24-12.89-.39-19.33a14.3,14.3,0,0,0-.55-3.33c-.08-.3-.72-.62-1.11-.63a1.5,1.5,0,0,0-1.18.55,6.3,6.3,0,0,0-.87,2.47c-.29,5.06-.62,10.13-.65,15.19-.06,8.51.17,17,.1,25.54a64.72,64.72,0,0,1-.92,8.9c-.26,1.75-.41,1.73-3.64,4.21-.61-1.23-1.61-2.37-1.67-3.55-.29-6.19-.55-12.39-.43-18.59.21-10.35.71-20.69,1.08-31,0-1.36.31-2.83-1.87-3.38a8,8,0,0,0-.91,2.34c-.26,5.27-.51,10.54-.57,15.81,0,3.5-.07,7-2.31,9.87-.49.64-1.65,1.41-2.17,1.22a5.71,5.71,0,0,1-2.34-2.14,3.75,3.75,0,0,1-.31-2c0-5.52,0-11,0-16.55,0-4.12.14-8.23.22-12.25l-7.34-6.25c-6.4.28-13.05.59-19.7.86a33.61,33.61,0,0,1-5.49,0c-.7-.09-1.8-1.08-1.81-1.67,0-1,.43-2.56,1.15-2.9a16.91,16.91,0,0,1,5.26-1.23c4.57-.5,9.17-.81,13.75-1.27a19.13,19.13,0,0,0,3-.81c-.61-2.24-2.17-2-3.45-1.94-7.83.3-15.65.67-23.47,1-2.76.12-5.51.33-8.27.37A2.56,2.56,0,0,1,0,78.34c-.06-1.56.56-2.83,2.09-3.14a73,73,0,0,1,8.85-1.37c6.87-.54,13.76-.87,20.64-1.3A17.42,17.42,0,0,0,35,72.1c.52-.14.9-.83,1.34-1.27a8.25,8.25,0,0,0-1.89-1.52,5.11,5.11,0,0,0-2,.06c-5.73.35-11.46.71-17.2,1.05a4.08,4.08,0,0,1-2-.12,5.56,5.56,0,0,1-2.45-2.06c-.56-1.25.57-2.19,1.63-2.58A17.22,17.22,0,0,1,17,64.57c4.81-.33,9.63-.5,14.44-.69,1.82-.07,3.65-.06,5.75-.09,2.82-6.69,6.08-13,11.58-17.18.19-8.6.35-16.64.55-24.68a16.47,16.47,0,0,1,.51-4.77,3.78,3.78,0,0,1,2.44-1.91c.59-.15,1.79.63,2.14,1.3a15.78,15.78,0,0,1,1.72,7.3c.07,5.29.39,10.59.65,15.88a30.57,30.57,0,0,0,.63,3.39c1-1,1.87-1.56,1.92-2.15.39-4.82.66-9.65.89-14.47.34-7.13.66-14.26.9-21.39.07-2,.5-3.61,2.3-4.69A2.55,2.55,0,0,1,67,1.19,11,11,0,0,1,68.3,5.06c.26,4.12.45,8.27.35,12.4-.17,7.14-.6,14.27-.88,21.4a10.31,10.31,0,0,0,.32,2.71c.08.34.65.87.85.81.59-.17,1.39-.48,1.57-.95a9,9,0,0,0,.33-2.72c.32-5.75.61-11.5.94-17.25a17.93,17.93,0,0,1,.41-3.4,4.15,4.15,0,0,1,3.75-2.5,2.86,2.86,0,0,1,2.4,2.95,79.07,79.07,0,0,1,.24,9c-.17,4.83-.52,9.66-.87,14.49-.22,3,.39,5.47,3.25,7,3.24,1.75,4.36,5.15,6.14,8C87.56,57.81,88.07,58.56,88.77,59.64ZM63.06,86.9C68.7,87.32,72.86,85,75.4,80c1.24-2.45,2.74-4.94,3.19-7.57,1.56-9.06-.4-15.22-9.09-18.08-5.41-1.78-10.25-1.22-14.83,2.35a18.48,18.48,0,0,0-7,10.72c-.88,4.48-.75,9.41,2.8,13.53C53.92,84.89,58.09,86.55,63.06,86.9Z"/><path d="M62.12,81.63c-5.65-.22-9.32-3.55-10.75-9.42a11.69,11.69,0,0,1,5.56-13,7.91,7.91,0,0,1,1.28-.53c2.79-1,5.43-2.54,8.58-1,3.83,1.91,7.13,4.45,8.87,8.35,1.16,2.6.48,5.63-.94,8C71.83,78.89,67.76,82.07,62.12,81.63Z"/></svg>