<svg id="_лой_1_копия2_" data-name="—лой 1 (копия2)" xmlns="http://www.w3.org/2000/svg" viewBox="0 0 49.06 49.98"><title>print-Монтажная область 54</title><path d="M11.72,24.6c0-7.18,5.18-12.18,12.68-12.18S36,17.25,36.64,24.53c.52,6.12-5.69,11.74-12.55,11.92A12,12,0,0,1,11.72,24.6Zm17-1c-.21-2.38-2.8-4.33-5.44-4.08-2.15.2-3.8,2.52-3.57,5S22,29,24.16,28.85,28.89,25.77,28.71,23.65Z"/><path d="M24.1,0c1.58,0,3.36,2.44,3.29,4.56A3.61,3.61,0,0,1,23.88,8a4.36,4.36,0,0,1-3.82-4.12C20,2.14,22.16,0,24.1,0Z"/><path d="M42.77,38.22a3.49,3.49,0,1,1-7,.1,4,4,0,0,1,3.48-3.66A3.74,3.74,0,0,1,42.77,38.22Z"/><path d="M27.49,45.92A4,4,0,0,1,23.72,50a3.88,3.88,0,0,1-3.57-3.51,4.09,4.09,0,0,1,3.74-4.1C25.5,42.33,27.33,44.14,27.49,45.92Z"/><path d="M2.94,27.57A3.51,3.51,0,0,1,0,23.67a3.42,3.42,0,0,1,3.52-3.34c1.86.24,3,1.79,2.92,3.94A3.27,3.27,0,0,1,2.94,27.57Z"/><path d="M9.33,36c.56.62,1.81,1.4,2.13,2.46.58,2-1.45,4.09-3.41,4a3.39,3.39,0,0,1-2.92-3.16C5.1,37.74,6.95,36.07,9.33,36Z"/><path d="M45.77,21.28A3.67,3.67,0,0,1,49.06,25a3,3,0,0,1-3.42,2.53,3.09,3.09,0,0,1-2.85-3.22A2.9,2.9,0,0,1,45.77,21.28Z"/><path d="M6.68,10c0-1.88,1.19-3.25,2.78-3.23,2,0,4,1.58,3.83,3.1s-2.13,3-4.11,2.84A2.59,2.59,0,0,1,6.68,10Z"/><path d="M39.55,6.35A2.86,2.86,0,0,1,42.7,9.09a3.28,3.28,0,0,1-2.87,3.79c-1.77.11-3-1.32-3.11-3.57A2.71,2.71,0,0,1,39.55,6.35Z"/></svg>