<svg id="_лой_1_копия2_" data-name="—лой 1 (копия2)" xmlns="http://www.w3.org/2000/svg" viewBox="0 0 96.58 123.08"><title>print-Монтажная область 34</title><path d="M54.12,90.59C51.38,94,49.06,97.1,46.6,100c-7.95,9.51-17.46,16.86-29.3,20.91-2.38.81-4.83,1.39-7.27,2a3.41,3.41,0,0,1-3.72-1.2,4,4,0,0,1-.11-4.56A12.63,12.63,0,0,1,7,116.06c2.8-4.19,5.71-8.32,8.39-12.59A71.86,71.86,0,0,0,25.5,75.1c1.37-9.64.35-19.26-1-28.8a61.93,61.93,0,0,0-2.87-10.66,29.35,29.35,0,0,0-6.43-11.32c-4-4.13-8-8.24-12-12.37a37.69,37.69,0,0,1-2.8-3A2.44,2.44,0,0,1,2,5.18a6.22,6.22,0,0,1,2-.09c7.26,1.27,14.53,2.54,21.15,6a32.07,32.07,0,0,1,5.84,3.6c5.95,5,12.25,9.79,16.39,16.6,1.41,2.31,2.63,4.74,4,7.2.62-.51,1.1-.71,1.19-1,2.62-8.61,8.15-15.54,14-21.92,5.51-6,11.54-11.9,19.7-14.7C90.06-.4,93.41-.67,96.58,2.75c-.64,1.72-1,3.59-1.94,5.07-6.8,10.62-10.56,22.46-13.55,34.51a71.49,71.49,0,0,0-2,22.6,138.91,138.91,0,0,0,4.26,26.54c1.93,7,5.46,13.13,9.51,19a31.89,31.89,0,0,1,2.62,4c.75,1.56.55,3.14-1.38,4.72-8.05-1.78-15.55-5.43-22.8-10A49.07,49.07,0,0,1,54.12,90.59ZM20.2,19.43l2.6,3.95a56.68,56.68,0,0,1,7.56,16.89A98.17,98.17,0,0,1,33.5,65.48a69.2,69.2,0,0,1-1.16,14.37c-2.19,9.83-4.94,19.55-10.11,28.36-.06.11.16.38.4.91,7.77-4.19,14.31-9.6,18.62-17.41,6.27-11.36,7.37-23.37,4.87-36-1-5-3.17-9.57-4.68-14.38C38.09,30.68,31,23.4,20.2,19.43Zm62.08-4.8A152.87,152.87,0,0,0,70.22,25.21,31.56,31.56,0,0,0,61.06,41c-1.09,4.67-1.47,9.5-2.18,14.25a67.07,67.07,0,0,0,.86,24,43.73,43.73,0,0,0,11.79,22.2,9.85,9.85,0,0,0,6.62,3.25c-1.61-4.28-3.18-8-4.46-11.91-3.26-9.87-5.61-19.87-3.79-30.39a43,43,0,0,0,.37-5.47c.33-7.88,2.35-15.42,4.86-22.8,1.54-4.55,3.66-8.91,5.61-13.32C81.56,18.92,82.5,17.12,82.28,14.64Z"/></svg>