<svg id="_лой_1_копия2_" data-name="—лой 1 (копия2)" xmlns="http://www.w3.org/2000/svg" viewBox="0 0 187.53 188.08"><title>print-Монтажная область 18</title><path d="M129.52,113a29.42,29.42,0,0,0,2.61,2.76,382.54,382.54,0,0,0,31.46,23.62,13,13,0,0,1,3.14,2.61,3.14,3.14,0,0,1,.12,3.86c-.67,1-2.35,1.15-3.75.21-4.21-2.81-8.41-5.63-12.52-8.59-5.2-3.75-10.29-7.63-15.33-11.39a1.49,1.49,0,0,0-.41,2.48c1.12,1.44,2.37,2.78,3.57,4.16q8.6,9.9,17.2,19.8a8.77,8.77,0,0,1,1.58,2.25,2.07,2.07,0,0,1-.18,1.87c-.64.52-1.85,1.11-2.38.84a13.64,13.64,0,0,1-3.72-2.9c-7.42-8.18-14.76-16.43-22.15-24.64-2.62-2.91-5.29-5.76-8-8.63-.84-.9-1.83-1.2-3.59-.69a21,21,0,0,0,1.41,3.1q9.16,13.39,18.4,26.72L146.47,164a11.52,11.52,0,0,1,.75,1.16c.86,1.64.72,3.56-.31,4.5s-3,.68-4.27-.89a77.06,77.06,0,0,1-5.75-7.74,315.1,315.1,0,0,0-22-30.94c-.67-.82-1.44-1.55-3.12-3.36a85.25,85.25,0,0,0,4.16,13c4,11,8.19,22,12.29,33a22.83,22.83,0,0,1,1.06,3.28,2.93,2.93,0,0,1-1.67,3.42c-1.14.58-2.58-.09-3.26-1.7-1.79-4.24-3.58-8.49-5.17-12.81-3.5-9.49-6.84-19-10.34-28.52-.84-2.27-2-4.41-3.56-7.73-.22,4.54.74,7.64,1.32,10.78,2.14,11.76,4.43,23.5,6.5,35.27.42,2.41,1.09,5-.4,7.36-2.32.87-3.66-.35-4.33-2.22a30,30,0,0,1-.87-4.75q-4.08-22-8.2-44.06c0-.16-.36-.26-1-.68-.12,2.18-.36,4.11-.31,6,.27,9.67.66,19.33.94,29q.22,7.58.2,15.16a11.23,11.23,0,0,1-.65,4,3.4,3.4,0,0,1-2.12,1.54,2.15,2.15,0,0,1-2.6-1.69,21.38,21.38,0,0,1-.9-5.39c-.19-9.66-.25-19.32-.38-29-.08-6-.17-12-.33-18,0-1,.41-2.34-1.34-3-.31.46-.86.9-.92,1.41-.45,3.65-.86,7.3-1.16,11Q87,162.8,85.3,184.14a9.82,9.82,0,0,1-.15,1.37,3.38,3.38,0,0,1-3.58,2.55,3,3,0,0,1-2.67-2.72A14.66,14.66,0,0,1,79,181.9q1.89-18.2,3.85-36.39c.5-4.57,1.16-9.13,1.68-13.7.13-1.11,0-2.24,0-4.7-1.16,1.72-1.83,2.3-2,3-3.63,16.17-7.19,32.35-10.8,48.52-.25,1.11-.76,2.17-1.09,3.26-.56,1.84-2,2.37-3.68,2.65a2.44,2.44,0,0,1-3-2,17,17,0,0,1,.33-4.77c2.74-10.44,5.64-20.84,8.38-31.28,1.68-6.41,3.17-12.86,5-20.43a7.71,7.71,0,0,0-3,4.37c-3.13,9.63-6.24,19.26-9.45,28.86-2,6.1-4.23,12.15-6.36,18.21a10.58,10.58,0,0,1-.56,1.26,3.63,3.63,0,0,1-3.91,2.16c-1.67-.39-2.5-2.35-1.68-4.57,1.92-5.18,4-10.29,5.94-15.46q6.28-16.79,12.47-33.61a11.35,11.35,0,0,0,.13-2.2,26,26,0,0,0-2.11,2.87c-6.4,12.48-12.75,25-19.16,37.46A20.85,20.85,0,0,1,47,170a7.45,7.45,0,0,1-3.5,1.81,2.2,2.2,0,0,1-2.62-2.4,11.7,11.7,0,0,1,1-3.25c4.58-9,9.25-18,13.83-27,2.18-4.3,4.22-8.67,6.27-13,.14-.3-.2-.82-.42-1.6-1,.77-1.85,1.4-2.63,2.14Q46.72,138.34,34.55,150c-2.16,2.07-4.38,4.09-6.69,6a7.55,7.55,0,0,1-3.07,1.35,2.23,2.23,0,0,1-1.8-.7,2.06,2.06,0,0,1-.34-1.83,15.24,15.24,0,0,1,2.58-4c3.92-3.88,8-7.58,12-11.4Q44.7,132.28,52.08,125a18.19,18.19,0,0,0,1.63-2.14c-1.29-1.25-2.27-.25-3.15.2-9,4.59-18,9.24-27,13.86-1.84.94-3.68,1.9-5.57,2.73a4.73,4.73,0,0,1-2.66.56,5,5,0,0,1-2.65-1.65c-.24-.3.43-1.82,1.05-2.21a89.94,89.94,0,0,1,10.72-6.27c8.18-3.69,16.25-7.58,24.08-12,2.74-1.54,5.39-3.13,7.31-6-2.78.92-5.56,1.83-8.32,2.77L22.07,123.6c-4.13,1.41-8.24,2.88-12.38,4.26a8.91,8.91,0,0,1-2.7.37,1.41,1.41,0,0,1-1.12-.65,2.57,2.57,0,0,1-.08-1.9,10.8,10.8,0,0,1,2.34-2.5,7.07,7.07,0,0,1,2.43-1.25c12.46-3.51,24.13-9,36.07-13.87,2.05-.83,4.25-1.36,5.43-3.41-16.4,1.15-32.68,2.3-49,3.4a9.57,9.57,0,0,1-2.56-.51c-1.15-2-.31-3.33,1.29-4.08a15.85,15.85,0,0,1,4.61-1.3c7.29-.94,14.6-1.72,21.9-2.63,7.49-.93,15-1.94,22.53-2.92-.5-1.81-1.92-1.29-2.9-1.53a15.69,15.69,0,0,0-3.42-.41c-11.73-.29-23.46-.48-35.19-.86A35,35,0,0,1,1.91,92.5a2.5,2.5,0,0,1-1.43-2,2.7,2.7,0,0,1,1.81-1.73,22.61,22.61,0,0,1,4.79-.31c11.29.07,22.57.2,33.86.25,3,0,6-.19,8.85-.29.44-1.89-.65-2.27-1.79-2.57-12.23-3.21-24.47-6.36-36.67-9.66A63.35,63.35,0,0,1,3,73c-.49-.21-1.1-1.25-1-1.63.3-.74,1.05-1.78,1.68-1.82a17.65,17.65,0,0,1,5.42.37c5.35,1.33,10.64,2.89,16,4.32,8,2.14,16,4.28,24,6.31a2.63,2.63,0,0,0,2.33-.66c.32-.51-.11-1.65-.5-2.37a4.22,4.22,0,0,0-1.58-1.3,24.38,24.38,0,0,0-2.45-1.28c-5.84-2.73-11.61-5.63-17.55-8.11A130.86,130.86,0,0,1,10.55,56.73a9.71,9.71,0,0,1-2-1.85,2,2,0,0,1,1-2.81,6.91,6.91,0,0,1,3.32,0c2.6.91,5.12,2.05,7.62,3.22q15.32,7.14,30.61,14.35c1.61.76,3.17,1.66,5.51.22a35.7,35.7,0,0,0-3.7-3.34c-7.07-4.72-14.22-9.34-21.3-14q-8.05-5.35-16-10.84a11.84,11.84,0,0,1-3-2.8,2.63,2.63,0,0,1,0-2.46A2.77,2.77,0,0,1,15,35.56a12.88,12.88,0,0,1,3.69,1.75q6.11,3.89,12.13,7.92C37.3,49.58,43.73,54,50.26,58.31c2.28,1.5,4.79,2.65,7.15,3.94,1.51-1.47.31-2.23-.37-2.93-8.28-8.64-16.62-17.23-24.89-25.88-1.74-1.82-3.36-3.77-4.93-5.75a5.55,5.55,0,0,1-1.08-2.46,2.36,2.36,0,0,1,.66-1.82A2,2,0,0,1,28.59,23a15.78,15.78,0,0,1,3.94,2.66C41.83,35.21,51,44.85,60.3,54.43a31.32,31.32,0,0,0,3.59,3.21c.4.3,1.19.1,2.5.17a28.93,28.93,0,0,0-1.82-3.2c-7.33-9.44-14.7-18.83-22-28.27-2.11-2.73-4.12-5.54-6.13-8.34a3.33,3.33,0,0,1-.8-1.87,3.55,3.55,0,0,1,.92-2.41,2.71,2.71,0,0,1,2.42.1,8.8,8.8,0,0,1,2.45,2.38C45.65,21.94,49.79,27.75,54,33.47c5.18,7,10.38,13.91,16.66,21.19.12-1.49.38-2.13.17-2.5C67.05,45.36,63,38.67,59.35,31.78c-3.13-5.88-5.91-12-8.72-18a10.92,10.92,0,0,1-.78-4,2,2,0,0,1,1.09-1.53,3.33,3.33,0,0,1,2.55.15,8,8,0,0,1,1.93,2.76c4.63,9,9.17,18.06,13.85,27,2.23,4.28,4.64,8.47,7.09,12.63.33.56,1.37.69,2.13,1,1.36-2.31.12-4-.37-5.63C75.48,37.47,72.7,28.71,70,19.92c-1.15-3.73-2.34-7.46-3.38-11.23-.88-3.21-.32-4.24,3.12-6.58,2.34,1.16,2.86,3.56,3.44,5.7,3.39,12.41,6.62,24.86,10,37.28a27.75,27.75,0,0,0,1.75,4.4c.11.23.83.32,1.21.23s1-.48,1-.76a29.54,29.54,0,0,0-.13-5.45,277.58,277.58,0,0,1-3-32.94c-.08-1.84-.5-3.67-.42-5.5a7.22,7.22,0,0,1,1.19-3.78,4.2,4.2,0,0,1,3-1.31c1.27,0,1.91,1.15,2.06,2.35.17,1.37.18,2.75.24,4.13.51,12.18,1,24.36,1.56,36.53a24.59,24.59,0,0,0,.78,5.43c.17.61,1.3,1.13,2.08,1.31.38.08,1.27-.66,1.38-1.16a31.65,31.65,0,0,0,.62-4.76C97.26,31.21,98.05,18.58,99,6a10.18,10.18,0,0,1,1.58-4.42,2.75,2.75,0,0,1,3.6-1.18A2.87,2.87,0,0,1,106,3.71c-.12.68-.36,1.34-.43,2q-2.16,20.57-4.24,41.15a9.78,9.78,0,0,0,.51,3.31c.08.31.68.62,1.08.68s1.07-.06,1.22-.33a14.33,14.33,0,0,0,1.38-3.14c2.69-9.76,5.26-19.56,8-29.3,1.19-4.2,2.62-8.35,4.15-12.44A5.41,5.41,0,0,1,120,3.31a2.69,2.69,0,0,1,3.81,2.53,32.57,32.57,0,0,1-1.16,4.67c-3.8,12.54-7.64,25.07-11.39,37.63a57.58,57.58,0,0,0-1,6.45c1.79-1.39,2.88-1.85,3.34-2.66,2.69-4.82,5.27-9.71,7.83-14.61,4.26-8.15,8.44-16.35,12.74-24.48a5.13,5.13,0,0,1,2.34-2.31,4.38,4.38,0,0,1,3.18.22c1.14.56,1.24,1.84.69,3-.78,1.66-1.55,3.33-2.41,4.94-2.82,5.27-5.68,10.52-8.53,15.78-3,5.46-6,10.9-8.84,16.4a51.35,51.35,0,0,0-2.7,6.31c-.15.41.48,1.11.75,1.67,2.17,0,2.71-1.72,3.6-3q11.28-15.7,22.52-31.42c1.07-1.5,2.14-3,3.34-4.39a7.39,7.39,0,0,1,2.22-1.57,2.4,2.4,0,0,1,3.39,2.21c0,2.22-1.23,3.87-2.46,5.57-7.84,10.79-15.61,21.63-23.45,32.42a19.14,19.14,0,0,0-3.21,5.85c1.31,1.39,2.34.64,3.16-.08,5.51-4.88,10.93-9.86,16.47-14.72,5-4.4,10.07-8.75,15.23-13a36.13,36.13,0,0,1,5.23-3c2,3,2.08,3.67.3,5.45-3.42,3.41-6.88,6.79-10.46,10C147,56,139.35,62.7,131.81,69.44a25.22,25.22,0,0,0-1.86,2.08c1.81,1.46,2.68-.38,3.44-.93a283.89,283.89,0,0,1,25.77-16c3.81-2.15,7.66-4.21,11.51-6.28,2.09-1.13,4-.94,5.44,1.08.05,3.23-2.6,4.2-4.69,5.43-5,2.9-10.07,5.52-15.05,8.38-7.38,4.24-14.7,8.58-22,12.9-.93.55-1.76,1.28-3.15,2.31,1.37.19,2.08.52,2.62.34,10-3.49,19.94-7.06,29.91-10.59,5-1.76,10-3.51,15-5.17,3.32-1.09,4.06-.65,6.25,3.21-.67,2.11-2.64,2.34-4.35,2.86-7.92,2.41-15.87,4.7-23.77,7.17-5.91,1.85-11.76,3.89-17.63,5.89a17.15,17.15,0,0,0-2.42,1.29c.77,1.63,2,.85,2.92.9a12.69,12.69,0,0,0,2.75-.21c11.13-1.85,22.36-2.77,33.6-3.63,1.6-.12,3.19-.53,4.79-.59a14,14,0,0,1,4.68.35,3.34,3.34,0,0,1,2,2.38c0,.85-1.07,1.9-1.92,2.51a5.58,5.58,0,0,1-2.64.67c-4.57.44-9.15.82-13.73,1.22l-33,2.92a5.1,5.1,0,0,0-2,.41c-.49.28-1.12,1-1,1.43s.8,1,1.36,1.25a5.58,5.58,0,0,0,2,.33c9.18.28,18.37.43,27.54.83,6,.26,11.94.85,17.9,1.38a3.77,3.77,0,0,1,2.45,1,4.6,4.6,0,0,1,.94,3c-.05.6-1.16,1.42-1.91,1.56a16.58,16.58,0,0,1-4.13,0c-12.62-.85-25.24-1.75-37.87-2.56-2.51-.16-5,0-9,0a57.77,57.77,0,0,0,5.74,2.43c8.85,2.5,17.74,4.87,26.6,7.35,4,1.12,7.93,2.37,11.87,3.63a17.37,17.37,0,0,1,3.14,1.43,2.74,2.74,0,0,1,1.25,3.54c-.41,1.34-1.74,1.87-3.37,1.37-8.58-2.61-17.14-5.29-25.74-7.83a124.46,124.46,0,0,0-19.48-4.43c1.44.8,2.86,1.64,4.31,2.41q17.38,9.2,34.76,18.4a10.06,10.06,0,0,1,3.38,2.27,3.92,3.92,0,0,1,.19,3.19c-.19.54-1.6,1-2.36.91a17.09,17.09,0,0,1-4.55-1.49c-9.94-4.8-19.88-9.6-29.74-14.58a87.18,87.18,0,0,1-8-5.17Zm-37,.54c4.46.13,9.53-1.69,14.1-5.08,10.24-7.6,14.29-21.74,7.32-32.83-6-9.48-15.34-13-25.2-11.56C78.2,65.56,67,73.61,65.8,86.24a62.58,62.58,0,0,0,.1,6.82c.1,7,3.26,12.24,9.2,15.83C80,111.89,85.18,114.33,92.48,113.5Z"/><path d="M89.18,108a15.18,15.18,0,0,1-13.06-7.13C71.39,93.86,71,87,74.61,79.48,77.75,73,83.29,70,90,69.36c10.59-1.07,18.64,5.32,21.09,15.67,1.06,4.45-.31,8.44-2.29,11.87C104.58,104.13,97.91,107.87,89.18,108Zm1.27-23.73a3.82,3.82,0,0,0-4.22,3.54A4.76,4.76,0,0,0,91,92.61c1.81-.07,4-2.79,4-4.94C94.91,85.87,92.86,84.3,90.44,84.24Z"/></svg>