<svg id="_лой_1_копия2_" data-name="—лой 1 (копия2)" xmlns="http://www.w3.org/2000/svg" viewBox="0 0 117.81 143.26"><title>print-Монтажная область 39</title><path d="M69.21,75.23c-1.87,8.62-3.72,16.22-5.14,23.9-2.08,11.32-3.86,22.69-5.76,34-.38,2.27-.7,4.54-1.1,6.8-.12.67-.21,1.55-.66,1.92a5.83,5.83,0,0,1-2.89,1.38c-.45,0-1.39-1.2-1.48-1.93-.75-6.16-1.23-12.36-2-18.51-2-15.26-4.14-30.49-6.27-46.1-2.46-.78-4.82-1.58-7.2-2.29Q21.16,69.84,5.62,65.29C4.74,65,3.87,64.73,3,64.41c-2.45-.9-3.31-2-2.91-3.89.46-2.17,2.27-1.87,3.83-2.05,9.12-1,18.23-2.17,27.36-3.14,4.08-.43,8.2-.58,12.68-.88.7-4.09,1.36-7.88,2-11.67,1.9-11.57,3.77-23.15,5.71-34.72A52.76,52.76,0,0,1,53,2.72C53.4,1.32,54.16.18,55.74,0c1.35-.14,2.52,1.2,2.93,3.27.18.9.21,1.83.35,2.74Q62.64,28.49,66.27,51a15.76,15.76,0,0,0,.7,2.16c4.18,1.37,8.56.7,12.87.72,8.51,0,17,0,25.53,0a23,23,0,0,1,4.74.61,1.88,1.88,0,0,1,.63,3.28,38.61,38.61,0,0,1-6.08,3.06c-10,4-20.11,7.88-30.14,11.86C72.63,73.41,70.84,74.43,69.21,75.23Z"/><path d="M76.8,74.39a10.39,10.39,0,0,1,7.4,3.12c10.8,10.65,21.68,21.21,32.52,31.83.48.47,1.13,1.13,1.09,1.66a3,3,0,0,1-1.07,2.17c-1.54.92-3.06.22-4.55-.54-8.8-4.5-17.63-9-26.45-13.45C81.43,97,77.1,94.86,72.85,92.56,70,91,69.71,90.17,70.22,87c.47-2.95.83-5.93,1.54-8.82C72.43,75.47,74.18,74.34,76.8,74.39Z"/><path d="M28.67,76.62c4.26,1,8.23,1.27,12,4L42,91.69a40.47,40.47,0,0,1-3.27,3Q21.7,106.89,4.56,119a5.43,5.43,0,0,1-1.77.51c-1.92-1.12-1.9-2.79-1.34-4.3a18.75,18.75,0,0,1,2.41-4.15Q15.2,95.05,26.6,79C27.13,78.31,27.78,77.67,28.67,76.62Z"/><path d="M40.15,52.09a16.23,16.23,0,0,1-2.49.28c-11.82-.79-9.66-.18-15.48-8.64-6.1-8.87-12.41-17.6-18.63-26.39A9.86,9.86,0,0,1,2.1,15a2.12,2.12,0,0,1,.33-1.87,3.35,3.35,0,0,1,2.34-1,8.29,8.29,0,0,1,3,1.52c9.66,6.6,19.27,13.26,29,19.84a8.93,8.93,0,0,1,4,6.79C41.57,46.41,41.74,47,40.15,52.09Z"/><path d="M69.26,50c-.49-2.71-.8-5.45-1.53-8.08a5.23,5.23,0,0,1,.81-4.52,17.09,17.09,0,0,1,2-2.8Q80.12,24.74,89.78,15a3.09,3.09,0,0,1,1.05-.87c.82-.27,1.87-.73,2.49-.43a2.74,2.74,0,0,1,1,2.22,13.27,13.27,0,0,1-.93,4q-4.21,10.88-8.56,21.7a37.53,37.53,0,0,1-2.13,4.31A7,7,0,0,1,77.4,49.7C74.95,50.08,72.64,51.47,69.26,50Z"/></svg>