<?xml version="1.0" encoding="iso-8859-1"?>
<!-- Generator: Adobe Illustrator 27.5.0, SVG Export Plug-In . SVG Version: 6.00 Build 0)  -->
<svg version="1.1" id="shapes" xmlns="http://www.w3.org/2000/svg" xmlns:xlink="http://www.w3.org/1999/xlink" x="0px" y="0px"
	 width="150px" height="150px" viewBox="0 0 150 150" enable-background="new 0 0 150 150" xml:space="preserve">
<g>
	<path d="M128.724,73.184v-3.338l-2.89-1.666v-3.338l-2.89-1.666v-3.338l-2.887-1.666v-3.338l-2.89-1.666v-3.338l-2.89-1.666v-3.338
		l-2.89-1.666v-3.338l-2.887-1.666v-3.338l-2.89-1.666v-3.338l-2.997-1.726l-2.89,1.666l-2.89-1.666l-2.89,1.666l-2.887-1.666
		l-2.89,1.666l-2.89-1.666l-2.887,1.666l-2.89-1.666l-2.89,1.666l-2.887-1.666l-2.89,1.666l-2.89-1.666l-2.89,1.666l-2.887-1.666
		l-2.89,1.666l-2.887-1.666l-2.887,1.666l-2.892-1.666l-2.995,1.731l-0.002,3.338l-2.887,1.666v3.338l-2.89,1.666v3.338l-2.89,1.666
		v3.338l-2.887,1.666v3.338l-2.89,1.666v3.338l-2.89,1.666v3.338l-2.887,1.666v3.338l-2.89,1.666v3.338l-2.89,1.666l0.003,3.46
		l2.89,1.669v3.338l2.89,1.666v3.338l2.887,1.666v3.338l2.89,1.666v3.338l2.89,1.666v3.338l2.887,1.666v3.338l2.89,1.666v3.338
		l2.89,1.666v3.338l2.89,1.666v3.338l2.997,1.726l2.89-1.666l2.887,1.666l2.89-1.666l2.89,1.666l2.89-1.666l2.887,1.666l2.89-1.666
		l2.89,1.666l2.887-1.666l2.89,1.666l2.89-1.666l2.887,1.666l2.89-1.666l2.89,1.666l2.89-1.666l2.887,1.666l2.89-1.666l2.89,1.666
		l2.995-1.731v-3.338l2.89-1.666v-3.338l2.89-1.666v-3.338l2.887-1.666v-3.338l2.89-1.666v-3.338l2.89-1.666v-3.338l2.887-1.666
		v-3.338l2.89-1.666v-3.338l2.89-1.666v-3.338l2.887-1.666v-3.46L128.724,73.184z M114.063,78.19l-2.89,1.669v3.338l-2.89,1.666
		v3.338l-2.89,1.666v3.338l-2.887,1.666v3.338l-2.89,1.666v3.338l-2.89,1.666v3.338l-2.78,1.601l-2.89-1.666l-2.89,1.666
		l-2.89-1.666l-2.887,1.666l-2.89-1.666l-2.89,1.666l-2.887-1.666l-2.89,1.666l-2.89-1.666l-2.89,1.666l-2.887-1.666l-2.89,1.666
		l-2.78-1.606v-3.338l-2.89-1.666V99.87l-2.887-1.666v-3.338l-2.89-1.666v-3.338l-2.89-1.666v-3.338l-2.887-1.666v-3.338
		l-2.89-1.666l0.003-3.21l2.89-1.669v-3.338l2.887-1.666v-3.338l2.89-1.666v-3.338l2.89-1.666V54.96l2.89-1.666v-3.338l2.887-1.664
		v-3.338l2.782-1.604l2.89,1.666l2.89-1.666l2.887,1.666l2.89-1.666l2.89,1.666l2.887-1.666l2.89,1.666l2.89-1.666l2.887,1.666
		l2.89-1.666l2.89,1.666l2.89-1.666l2.777,1.606v3.338l2.89,1.666v3.338l2.89,1.666v3.338l2.89,1.666v3.338l2.887,1.666v3.338
		l2.89,1.666v3.338l2.89,1.666L114.063,78.19z"/>
	<path d="M99.834,69.847l-2.89-1.666v-3.338l-2.89-1.666v-3.338l-2.887-1.666v-3.338l-2.997-1.726l-2.892,1.666l-2.887-1.666
		l-2.89,1.666l-2.89-1.666l-2.887,1.666l-2.887-1.666l-2.89,1.666l-2.892-1.666L62.06,54.84v3.338l-2.89,1.666v3.338l-2.887,1.666
		v3.338l-2.89,1.666v3.338l-2.89,1.666l0.002,3.46l2.89,1.669v3.338l2.89,1.666v3.338l2.887,1.666v3.338l2.89,1.666v3.338
		l2.997,1.726l2.89-1.666l2.89,1.666l2.89-1.666l2.887,1.666l2.89-1.666l2.89,1.666l2.887-1.666l2.89,1.666l2.995-1.731l0.003-3.338
		l2.887-1.666v-3.338l2.89-1.666v-3.338l2.89-1.666v-3.338l2.887-1.666v-3.46l-2.89-1.669V69.847z M96.729,78.19l-2.89,1.669v3.338
		l-2.89,1.666v3.338l-2.89,1.666v3.338l-2.78,1.601l-2.89-1.666l-2.89,1.666l-2.89-1.666l-2.887,1.666l-2.89-1.666l-2.89,1.666
		L65.168,93.2l-0.003-3.338l-2.887-1.666v-3.338l-2.89-1.666v-3.338l-2.89-1.666l0.002-3.21l2.89-1.669v-3.338l2.89-1.666v-3.338
		l2.887-1.664v-3.338l2.782-1.604l2.89,1.666l2.89-1.666l2.887,1.666l2.89-1.666l2.89,1.666l2.887-1.666l2.78,1.606v3.338
		l2.89,1.666v3.338l2.89,1.666v3.338l2.887,1.666V78.19z"/>
	<polygon points="82.498,73.184 82.498,69.847 79.506,68.12 76.614,69.786 73.724,68.12 70.727,69.852 70.727,73.189 67.837,74.855 
		67.84,78.316 70.729,79.984 70.729,83.322 73.727,85.048 76.616,83.382 79.506,85.048 82.501,83.317 82.503,79.979 85.391,78.313 
		85.388,74.853 	"/>
</g>
</svg>
