<?xml version="1.0" encoding="iso-8859-1"?>
<!-- Generator: Adobe Illustrator 27.5.0, SVG Export Plug-In . SVG Version: 6.00 Build 0)  -->
<svg version="1.1" id="shapes" xmlns="http://www.w3.org/2000/svg" xmlns:xlink="http://www.w3.org/1999/xlink" x="0px" y="0px"
	 width="150px" height="150px" viewBox="0 0 150 150" enable-background="new 0 0 150 150" xml:space="preserve">
<path d="M21.615,21.584v0.545c0.003,36.304,0.003,72.607,0,108.911v0.545h109.998v-0.545c-0.003-36.304-0.003-72.607,0-108.911
	v-0.545H21.615z M130.524,121.431c-2.124,0.05-4.252,0.091-6.379,0.133c-0.628,0.012-1.135-0.508-1.108-1.136
	c0.081-1.866,0.158-3.731,0.229-5.593c0.021-0.563,0.465-1.013,1.028-1.04c2.062-0.1,4.139-0.207,6.229-0.319V121.431z
	 M22.704,31.737c2.123-0.05,4.252-0.091,6.379-0.133c0.628-0.012,1.135,0.508,1.107,1.136c-0.081,1.85-0.157,3.7-0.227,5.546
	c-0.021,0.56-0.464,1.007-1.023,1.038c-2.081,0.114-4.16,0.234-6.236,0.364C22.704,37.038,22.705,34.387,22.704,31.737z
	 M130.524,39.692c-2.09-0.112-4.167-0.219-6.229-0.319c-0.563-0.027-1.007-0.477-1.028-1.04c-0.071-1.862-0.148-3.727-0.229-5.593
	c-0.027-0.627,0.48-1.148,1.108-1.136c2.128,0.042,4.256,0.083,6.379,0.133V39.692z M121.023,39.221
	c-1.416-0.066-2.828-0.129-4.232-0.189c-0.531-0.023-0.963-0.422-1.027-0.951c-0.216-1.787-0.447-3.584-0.692-5.392
	c-0.09-0.661,0.428-1.251,1.096-1.239c1.568,0.027,3.135,0.057,4.702,0.088c0.576,0.011,1.046,0.471,1.071,1.046
	c0.08,1.837,0.157,3.673,0.227,5.506C122.192,38.729,121.661,39.251,121.023,39.221z M77.158,64.967v-6.771
	c0-0.606,0.497-1.097,1.103-1.092c2.505,0.021,4.997,0.053,7.476,0.096c0.59,0.01,1.067,0.49,1.084,1.08
	c0.064,2.264,0.119,4.502,0.165,6.716c0.013,0.614-0.482,1.111-1.096,1.105c-2.531-0.022-5.08-0.037-7.644-0.047
	C77.646,66.052,77.158,65.566,77.158,64.967z M74.981,66.045c-2.534-0.006-5.08-0.006-7.641,0.001
	c-0.612,0.002-1.109-0.494-1.096-1.105c0.046-2.233,0.101-4.491,0.166-6.775c0.017-0.591,0.504-1.071,1.096-1.075
	c2.506-0.015,4.999-0.016,7.48-0.006c0.6,0.002,1.084,0.491,1.084,1.092v6.78C76.069,65.559,75.584,66.047,74.981,66.045z
	 M63.926,76.04h-10.11c-0.606,0-1.1-0.494-1.094-1.1c0.019-2.214,0.079-4.43,0.165-6.65c0.022-0.581,0.501-1.044,1.082-1.051
	c3.365-0.042,6.716-0.074,10.044-0.092c0.605-0.003,1.089,0.498,1.08,1.103c-0.037,2.262-0.063,4.499-0.079,6.716
	C65.009,75.563,64.524,76.04,63.926,76.04z M64.994,78.225c-0.007,2.258-0.002,4.493,0.013,6.711
	c0.004,0.603-0.481,1.089-1.084,1.085c-3.298-0.018-6.619-0.049-9.954-0.091c-0.581-0.007-1.06-0.47-1.082-1.051
	c-0.086-2.219-0.146-4.436-0.165-6.65c-0.005-0.606,0.488-1.1,1.094-1.1h10.091C64.51,77.129,64.996,77.623,64.994,78.225z
	 M71.725,87.131c1.09,0,2.17-0.004,3.251-0.007c0.603-0.002,1.093,0.486,1.093,1.089v6.778c0,0.6-0.483,1.089-1.084,1.092
	c-2.539,0.011-5.091,0.009-7.657-0.007c-0.591-0.004-1.077-0.476-1.09-1.067c-0.049-2.247-0.088-4.509-0.114-6.79
	c-0.007-0.609,0.485-1.11,1.094-1.107C68.724,87.121,70.235,87.131,71.725,87.131z M78.245,87.113
	c2.605-0.01,5.197-0.025,7.767-0.046c0.609-0.005,1.098,0.493,1.091,1.102c-0.026,2.26-0.063,4.502-0.112,6.73
	c-0.013,0.586-0.485,1.056-1.071,1.066c-2.539,0.045-5.092,0.078-7.659,0.099c-0.606,0.005-1.103-0.486-1.103-1.092v-6.771
	C77.158,87.602,77.646,87.116,78.245,87.113z M89.32,77.129h10.091c0.606,0,1.1,0.494,1.094,1.1
	c-0.019,2.177-0.077,4.357-0.161,6.539c-0.022,0.577-0.491,1.038-1.068,1.047c-3.282,0.051-6.602,0.094-9.954,0.129
	c-0.608,0.006-1.106-0.483-1.102-1.091c0.014-2.191,0.019-4.399,0.012-6.628C88.232,77.622,88.718,77.129,89.32,77.129z
	 M88.215,74.965c-0.016-2.187-0.042-4.395-0.078-6.626c-0.01-0.614,0.49-1.121,1.105-1.115c3.381,0.035,6.73,0.078,10.039,0.13
	c0.576,0.009,1.042,0.468,1.064,1.043c0.084,2.184,0.142,4.365,0.161,6.543c0.005,0.606-0.488,1.1-1.094,1.1H89.301
	C88.704,76.04,88.219,75.563,88.215,74.965z M88.076,65.075c-0.045-2.199-0.099-4.421-0.163-6.669
	c-0.018-0.63,0.498-1.153,1.128-1.14c3.251,0.069,6.48,0.153,9.685,0.255c0.552,0.017,1.003,0.45,1.047,1.001
	c0.177,2.209,0.314,4.407,0.425,6.601c0.032,0.627-0.472,1.15-1.1,1.14c-3.279-0.051-6.596-0.093-9.944-0.128
	C88.566,66.128,88.088,65.663,88.076,65.075z M87.816,55.13c-0.069-2.155-0.147-4.336-0.233-6.541
	c-0.025-0.629,0.483-1.156,1.112-1.139c2.975,0.078,5.988,0.185,9.028,0.309c0.534,0.022,0.978,0.43,1.044,0.96
	c0.269,2.182,0.514,4.354,0.722,6.513c0.063,0.653-0.461,1.209-1.117,1.189c-3.141-0.098-6.306-0.179-9.492-0.246
	C88.303,56.161,87.834,55.707,87.816,55.13z M85.624,56.109c-2.449-0.042-4.91-0.074-7.384-0.094
	c-0.597-0.005-1.081-0.489-1.081-1.087v-6.553c0-0.605,0.49-1.097,1.096-1.092c2.367,0.017,4.749,0.048,7.152,0.096
	c0.581,0.012,1.059,0.482,1.082,1.063c0.087,2.211,0.165,4.397,0.235,6.557C86.742,55.625,86.249,56.12,85.624,56.109z
	 M74.98,55.997c-2.446-0.01-4.903-0.009-7.373,0.006c-0.618,0.004-1.118-0.499-1.098-1.116c0.069-2.152,0.148-4.33,0.234-6.533
	c0.023-0.581,0.496-1.051,1.077-1.058c2.37-0.027,4.757-0.035,7.157-0.03c0.601,0.001,1.092,0.491,1.092,1.092v6.552
	C76.069,55.513,75.583,55.999,74.98,55.997z M64.349,56.026c-3.136,0.034-6.295,0.094-9.47,0.174
	c-0.653,0.016-1.18-0.539-1.117-1.189c0.208-2.143,0.453-4.299,0.721-6.465c0.066-0.533,0.51-0.944,1.047-0.963
	c2.984-0.105,5.986-0.181,9.006-0.234c0.626-0.011,1.136,0.515,1.112,1.141c-0.085,2.189-0.163,4.355-0.232,6.494
	C65.398,55.565,64.93,56.019,64.349,56.026z M65.318,58.259c-0.065,2.274-0.12,4.522-0.165,6.745
	c-0.012,0.587-0.485,1.051-1.072,1.054c-3.293,0.017-6.61,0.048-9.94,0.09c-0.629,0.008-1.138-0.515-1.106-1.143
	c0.113-2.224,0.253-4.453,0.434-6.693c0.045-0.56,0.513-1,1.075-1.015c3.24-0.083,6.464-0.145,9.664-0.181
	C64.834,57.109,65.336,57.633,65.318,58.259z M50.869,66.191c-2.279,0.034-4.564,0.074-6.857,0.121
	c-0.636,0.013-1.152-0.518-1.114-1.153c0.13-2.17,0.291-4.347,0.496-6.536c0.051-0.546,0.505-0.974,1.053-0.997
	c2.276-0.094,4.541-0.172,6.797-0.24c0.647-0.019,1.162,0.53,1.111,1.175c-0.175,2.208-0.311,4.406-0.421,6.599
	C51.906,65.733,51.442,66.182,50.869,66.191z M51.791,68.413c-0.083,2.186-0.141,4.369-0.16,6.549
	c-0.005,0.597-0.487,1.077-1.084,1.077h-6.914c-0.607,0-1.102-0.495-1.095-1.102c0.022-2.16,0.09-4.323,0.188-6.488
	c0.026-0.574,0.497-1.032,1.072-1.044c2.304-0.047,4.602-0.089,6.893-0.123C51.315,67.273,51.815,67.789,51.791,68.413z
	 M40.362,76.04h-3.116c-0.606,0-1.1-0.494-1.096-1.1c0.014-2.105,0.054-4.212,0.111-6.32c0.016-0.581,0.488-1.051,1.069-1.065
	c1.063-0.027,2.125-0.052,3.185-0.076c0.63-0.014,1.136,0.508,1.109,1.138c-0.094,2.119-0.159,4.235-0.18,6.348
	C41.439,75.56,40.959,76.04,40.362,76.04z M33.978,76.04h-2.577c-0.604,0-1.094-0.491-1.092-1.094
	c0.006-2.046,0.026-4.093,0.045-6.14c0.005-0.585,0.473-1.063,1.058-1.081c0.881-0.027,1.761-0.053,2.641-0.079
	c0.624-0.018,1.132,0.493,1.116,1.117c-0.056,2.068-0.094,4.134-0.107,6.198C35.057,75.559,34.575,76.04,33.978,76.04z
	 M28.133,76.04h-5.429v-8.008c1.812-0.071,3.623-0.139,5.432-0.201c0.62-0.021,1.133,0.48,1.127,1.101
	c-0.018,2.008-0.037,4.017-0.044,6.025C29.218,75.555,28.733,76.04,28.133,76.04z M22.704,77.129h5.429
	c0.599,0,1.084,0.484,1.086,1.084c0.006,2.008,0.025,4.016,0.044,6.024c0.006,0.621-0.507,1.122-1.127,1.101
	c-1.809-0.062-3.619-0.13-5.432-0.201V77.129z M31.401,77.129h2.577c0.597,0,1.079,0.481,1.083,1.078
	c0.013,2.064,0.051,4.13,0.107,6.198c0.017,0.624-0.491,1.135-1.115,1.117c-0.88-0.025-1.76-0.051-2.641-0.079
	c-0.585-0.018-1.052-0.496-1.058-1.081c-0.019-2.047-0.038-4.093-0.045-6.139C30.307,77.619,30.797,77.129,31.401,77.129z
	 M37.246,77.129h3.116c0.596,0,1.077,0.479,1.083,1.075c0.021,2.113,0.086,4.229,0.18,6.348c0.028,0.629-0.479,1.152-1.109,1.138
	c-1.061-0.024-2.122-0.049-3.186-0.076c-0.581-0.015-1.053-0.484-1.069-1.065c-0.058-2.109-0.098-4.215-0.111-6.32
	C36.146,77.623,36.64,77.129,37.246,77.129z M43.633,77.129h6.914c0.597,0,1.079,0.48,1.084,1.077
	c0.019,2.181,0.077,4.363,0.16,6.549c0.024,0.624-0.476,1.14-1.1,1.131c-2.291-0.035-4.589-0.075-6.893-0.123
	c-0.575-0.012-1.046-0.47-1.072-1.044c-0.097-2.166-0.166-4.329-0.188-6.488C42.531,77.624,43.026,77.129,43.633,77.129z
	 M51.934,87.997c0.111,2.196,0.247,4.397,0.421,6.608c0.051,0.646-0.464,1.197-1.113,1.177c-2.257-0.068-4.522-0.147-6.798-0.24
	c-0.547-0.023-0.999-0.45-1.05-0.994c-0.206-2.193-0.367-4.375-0.497-6.55c-0.038-0.635,0.479-1.166,1.115-1.153
	c2.292,0.047,4.577,0.087,6.856,0.122C51.441,86.975,51.905,87.425,51.934,87.997z M54.144,87.01
	c3.291,0.041,6.564,0.071,9.82,0.088c0.59,0.003,1.064,0.481,1.07,1.071c0.026,2.274,0.064,4.53,0.113,6.77
	c0.013,0.616-0.482,1.119-1.098,1.112c-3.149-0.036-6.321-0.098-9.509-0.18c-0.56-0.014-1.026-0.453-1.072-1.011
	c-0.181-2.243-0.321-4.476-0.434-6.703C53.002,87.527,53.514,87.003,54.144,87.01z M65.227,98.198
	c0.058,2.175,0.128,4.337,0.208,6.489c0.023,0.625-0.486,1.14-1.111,1.129c-2.947-0.053-5.878-0.127-8.792-0.229
	c-0.538-0.019-0.983-0.43-1.049-0.964c-0.267-2.162-0.511-4.314-0.719-6.452c-0.063-0.652,0.465-1.209,1.12-1.192
	c3.11,0.077,6.201,0.129,9.274,0.162C64.742,97.146,65.211,97.614,65.227,98.198z M66.319,98.29
	c-0.017-0.615,0.484-1.124,1.099-1.12c1.519,0.01,3.033,0.016,4.542,0.016c1.009,0,2.011-0.007,3.013-0.014
	c0.604-0.004,1.096,0.485,1.096,1.089v6.55c0,0.602-0.491,1.091-1.093,1.092c-2.472,0.005-4.929-0.005-7.37-0.033
	c-0.583-0.007-1.056-0.469-1.078-1.051C66.448,102.653,66.378,100.478,66.319,98.29z M78.24,97.151
	c2.535-0.02,5.06-0.049,7.567-0.092c0.62-0.011,1.121,0.5,1.105,1.12c-0.059,2.197-0.129,4.382-0.211,6.556
	c-0.022,0.579-0.498,1.04-1.076,1.051c-2.477,0.05-4.931,0.082-7.37,0.1c-0.605,0.004-1.096-0.487-1.096-1.092v-6.556
	C77.158,97.64,77.642,97.155,78.24,97.151z M89.072,96.994c3.124-0.067,6.225-0.152,9.306-0.249
	c0.652-0.021,1.174,0.533,1.112,1.183c-0.208,2.162-0.454,4.338-0.723,6.523c-0.065,0.53-0.51,0.938-1.044,0.96
	c-2.968,0.121-5.911,0.225-8.819,0.302c-0.626,0.017-1.131-0.498-1.108-1.124c0.081-2.167,0.15-4.344,0.209-6.534
	C88.021,97.474,88.491,97.006,89.072,96.994z M88.083,94.789c0.048-2.208,0.085-4.431,0.111-6.672
	c0.007-0.594,0.491-1.077,1.085-1.083c3.311-0.035,6.586-0.079,9.829-0.129c0.624-0.01,1.122,0.509,1.091,1.132
	c-0.111,2.196-0.249,4.398-0.426,6.61c-0.044,0.551-0.495,0.983-1.047,1.001c-3.153,0.099-6.331,0.183-9.528,0.251
	C88.578,95.912,88.07,95.409,88.083,94.789z M102.368,86.853c2.307-0.039,4.595-0.081,6.862-0.126
	c0.636-0.013,1.145,0.518,1.107,1.153c-0.126,2.127-0.283,4.261-0.482,6.405c-0.051,0.545-0.498,0.971-1.044,0.993
	c-2.255,0.092-4.521,0.179-6.799,0.258c-0.65,0.023-1.173-0.527-1.123-1.175c0.169-2.167,0.303-4.324,0.41-6.476
	C101.327,87.313,101.795,86.863,102.368,86.853z M101.442,84.631c0.08-2.144,0.136-4.285,0.155-6.425
	c0.005-0.597,0.487-1.077,1.084-1.077h6.915c0.607,0,1.101,0.495,1.095,1.102c-0.022,2.117-0.088,4.236-0.182,6.358
	c-0.025,0.575-0.491,1.032-1.066,1.044c-2.277,0.046-4.575,0.089-6.892,0.128C101.926,85.771,101.418,85.255,101.442,84.631z
	 M112.866,77.129h3.115c0.606,0,1.099,0.494,1.096,1.1c-0.013,2.066-0.052,4.133-0.108,6.203c-0.016,0.582-0.485,1.05-1.067,1.064
	c-1.054,0.024-2.113,0.047-3.177,0.07c-0.632,0.014-1.144-0.51-1.116-1.142c0.09-2.076,0.153-4.149,0.174-6.219
	C111.789,77.608,112.27,77.129,112.866,77.129z M119.25,77.129h2.577c0.604,0,1.094,0.491,1.092,1.094
	c-0.006,2.017-0.026,4.035-0.044,6.053c-0.005,0.587-0.474,1.065-1.061,1.079c-0.876,0.022-1.754,0.043-2.638,0.064
	c-0.622,0.015-1.13-0.494-1.113-1.115c0.054-2.034,0.092-4.067,0.104-6.098C118.171,77.609,118.653,77.129,119.25,77.129z
	 M125.094,77.129h5.43v8.002c-1.794,0.048-3.608,0.096-5.438,0.143c-0.616,0.016-1.126-0.482-1.121-1.099
	c0.018-1.988,0.037-3.975,0.044-5.963C124.01,77.613,124.495,77.129,125.094,77.129z M130.524,76.04h-5.43
	c-0.599,0-1.084-0.484-1.086-1.084c-0.006-1.987-0.025-3.975-0.044-5.962c-0.006-0.616,0.505-1.114,1.121-1.099
	c1.83,0.047,3.645,0.094,5.438,0.142V76.04z M121.827,76.04h-2.577c-0.597,0-1.079-0.481-1.083-1.078
	c-0.013-2.031-0.05-4.063-0.104-6.097c-0.016-0.622,0.491-1.13,1.113-1.115c0.883,0.021,1.762,0.042,2.638,0.064
	c0.587,0.015,1.055,0.492,1.061,1.079c0.018,2.018,0.038,4.036,0.044,6.053C122.921,75.549,122.43,76.04,121.827,76.04z
	 M115.981,76.04h-3.115c-0.596,0-1.077-0.479-1.083-1.076c-0.021-2.071-0.084-4.145-0.174-6.222
	c-0.027-0.63,0.483-1.152,1.114-1.139c1.065,0.023,2.124,0.046,3.18,0.07c0.582,0.013,1.051,0.482,1.067,1.063
	c0.056,2.069,0.095,4.137,0.108,6.203C117.081,75.546,116.587,76.04,115.981,76.04z M109.595,76.04h-6.915
	c-0.597,0-1.079-0.48-1.084-1.077c-0.018-2.139-0.074-4.281-0.155-6.424c-0.023-0.624,0.484-1.14,1.109-1.13
	c2.317,0.04,4.615,0.082,6.892,0.128c0.575,0.012,1.041,0.469,1.066,1.044c0.094,2.122,0.16,4.241,0.182,6.358
	C110.697,75.544,110.202,76.04,109.595,76.04z M101.299,65.284c-0.107-2.152-0.24-4.308-0.41-6.474
	c-0.051-0.65,0.474-1.201,1.126-1.178c2.278,0.079,4.544,0.166,6.798,0.258c0.545,0.022,0.991,0.447,1.042,0.991
	c0.199,2.146,0.356,4.281,0.482,6.409c0.038,0.635-0.472,1.166-1.108,1.153c-2.267-0.045-4.554-0.088-6.861-0.127
	C101.796,66.306,101.327,65.856,101.299,65.284z M100.616,55.55c-0.201-2.131-0.44-4.275-0.701-6.429
	c-0.081-0.669,0.451-1.253,1.124-1.223c2.193,0.098,4.401,0.206,6.633,0.328c0.52,0.029,0.956,0.424,1.03,0.94
	c0.307,2.15,0.589,4.288,0.828,6.41c0.075,0.663-0.462,1.234-1.129,1.207c-2.236-0.091-4.483-0.176-6.742-0.254
	C101.113,56.511,100.667,56.093,100.616,55.55z M99.497,45.856c-0.223-1.678-0.464-3.366-0.723-5.064
	c-0.102-0.669,0.418-1.27,1.094-1.252c2.122,0.057,4.257,0.12,6.406,0.19c0.516,0.017,0.956,0.397,1.048,0.905
	c0.315,1.747,0.607,3.482,0.878,5.205c0.108,0.691-0.459,1.3-1.158,1.263c-2.197-0.118-4.371-0.222-6.531-0.318
	C99.989,46.762,99.566,46.373,99.497,45.856z M97.205,46.647c-2.93-0.117-5.835-0.218-8.705-0.292
	c-0.569-0.015-1.024-0.461-1.048-1.03c-0.068-1.614-0.141-3.242-0.217-4.885c-0.029-0.628,0.472-1.157,1.1-1.147
	c2.717,0.042,5.456,0.097,8.214,0.162c0.529,0.013,0.98,0.407,1.061,0.931c0.261,1.685,0.503,3.361,0.729,5.027
	C98.43,46.087,97.884,46.674,97.205,46.647z M85.251,46.287c-2.357-0.046-4.694-0.076-7.017-0.093
	c-0.598-0.004-1.075-0.488-1.075-1.086V40.29c0-0.604,0.488-1.094,1.092-1.091c2.256,0.009,4.524,0.027,6.805,0.053
	c0.578,0.007,1.054,0.468,1.081,1.045c0.077,1.639,0.149,3.263,0.218,4.872C86.381,45.791,85.873,46.299,85.251,46.287z
	 M74.977,46.177c-2.35-0.005-4.688,0.003-7.011,0.028c-0.621,0.007-1.117-0.501-1.09-1.122c0.068-1.595,0.14-3.205,0.216-4.828
	c0.027-0.579,0.501-1.042,1.081-1.046c2.256-0.016,4.525-0.021,6.805-0.019c0.602,0,1.092,0.489,1.092,1.091v4.81
	C76.069,45.692,75.579,46.178,74.977,46.177z M64.718,46.256c-2.915,0.05-5.813,0.122-8.695,0.22
	c-0.672,0.023-1.202-0.558-1.112-1.224c0.223-1.641,0.463-3.292,0.72-4.952c0.081-0.525,0.529-0.92,1.059-0.931
	c2.72-0.056,5.454-0.098,8.203-0.128c0.627-0.007,1.132,0.521,1.103,1.147c-0.076,1.627-0.148,3.24-0.216,4.839
	C65.756,45.799,65.29,46.246,64.718,46.256z M52.725,46.601c-2.184,0.09-4.361,0.198-6.532,0.316
	c-0.691,0.038-1.245-0.566-1.137-1.25c0.268-1.7,0.558-3.411,0.869-5.135c0.092-0.507,0.528-0.887,1.043-0.904
	c2.126-0.07,4.257-0.133,6.397-0.187c0.679-0.017,1.206,0.588,1.104,1.259c-0.254,1.664-0.492,3.318-0.712,4.964
	C53.685,46.187,53.252,46.579,52.725,46.601z M53.336,48.939c-0.26,2.134-0.498,4.258-0.699,6.369
	c-0.052,0.545-0.496,0.963-1.043,0.979c-2.234,0.066-4.476,0.141-6.728,0.232c-0.667,0.027-1.208-0.542-1.133-1.205
	c0.238-2.096,0.517-4.208,0.822-6.332c0.074-0.515,0.503-0.91,1.023-0.939c2.205-0.123,4.414-0.234,6.631-0.328
	C52.88,47.685,53.417,48.271,53.336,48.939z M41.563,56.667c-1.18,0.054-2.361,0.109-3.546,0.17
	c-0.655,0.034-1.197-0.509-1.151-1.163c0.142-2.051,0.308-4.112,0.491-6.18c0.047-0.536,0.48-0.963,1.017-1.001
	c1.283-0.09,2.568-0.175,3.854-0.255c0.692-0.043,1.248,0.564,1.151,1.251c-0.294,2.085-0.564,4.159-0.791,6.217
	C42.529,56.237,42.097,56.643,41.563,56.667z M42.269,58.964c-0.197,2.143-0.351,4.275-0.476,6.401
	c-0.033,0.564-0.49,1.006-1.055,1.019c-1.081,0.024-2.163,0.049-3.246,0.077c-0.63,0.016-1.147-0.501-1.123-1.13
	c0.078-2.113,0.175-4.23,0.297-6.354c0.032-0.557,0.483-1.004,1.04-1.033c1.149-0.06,2.294-0.114,3.438-0.166
	C41.801,57.747,42.329,58.308,42.269,58.964z M34.222,66.552c-0.905,0.026-1.81,0.052-2.716,0.081
	c-0.619,0.019-1.131-0.48-1.124-1.099c0.023-2.049,0.054-4.1,0.089-6.151c0.01-0.569,0.459-1.037,1.027-1.073
	c0.973-0.062,1.945-0.121,2.914-0.178c0.649-0.038,1.181,0.501,1.144,1.151c-0.117,2.081-0.211,4.157-0.286,6.228
	C35.25,66.082,34.794,66.536,34.222,66.552z M28.246,66.737c-1.845,0.063-3.693,0.132-5.542,0.205v-8.006
	c1.843-0.147,3.68-0.285,5.512-0.413c0.637-0.044,1.174,0.468,1.163,1.107c-0.035,2.012-0.064,4.025-0.087,6.036
	C29.285,66.246,28.826,66.717,28.246,66.737z M29.292,87.488c0.022,2.017,0.052,4.035,0.087,6.053
	c0.011,0.638-0.524,1.149-1.16,1.105c-1.832-0.128-3.671-0.267-5.514-0.413v-8.008c1.85,0.073,3.693,0.13,5.538,0.19
	C28.823,86.434,29.285,86.906,29.292,87.488z M31.51,86.524c0.905,0.031,1.81,0.063,2.713,0.091
	c0.571,0.018,1.027,0.471,1.048,1.042c0.075,2.071,0.169,4.147,0.286,6.228c0.037,0.65-0.495,1.189-1.144,1.151
	c-0.97-0.057-1.941-0.116-2.914-0.178c-0.568-0.036-1.017-0.504-1.027-1.073c-0.036-2.054-0.066-4.108-0.089-6.16
	C30.375,87.005,30.889,86.503,31.51,86.524z M37.489,86.7c1.083,0.026,2.163,0.049,3.244,0.073c0.567,0.012,1.026,0.456,1.059,1.022
	c0.125,2.128,0.279,4.262,0.476,6.407c0.06,0.658-0.468,1.219-1.128,1.189c-1.143-0.052-2.287-0.107-3.436-0.166
	c-0.557-0.029-1.008-0.477-1.04-1.033c-0.122-2.127-0.22-4.247-0.297-6.362C36.345,87.201,36.86,86.685,37.489,86.7z M42.588,97.461
	c0.228,2.06,0.497,4.136,0.792,6.223c0.097,0.684-0.458,1.29-1.148,1.247c-1.287-0.08-2.573-0.165-3.858-0.255
	c-0.537-0.038-0.969-0.464-1.017-1.001c-0.183-2.071-0.35-4.135-0.492-6.19c-0.045-0.652,0.497-1.193,1.15-1.159
	c1.187,0.062,2.371,0.121,3.553,0.176C42.101,96.527,42.529,96.931,42.588,97.461z M44.864,96.643
	c2.253,0.092,4.497,0.173,6.731,0.24c0.547,0.016,0.99,0.433,1.042,0.978c0.201,2.11,0.438,4.234,0.698,6.368
	c0.082,0.668-0.456,1.254-1.128,1.225c-2.217-0.094-4.427-0.205-6.631-0.328c-0.52-0.029-0.949-0.424-1.023-0.939
	c-0.305-2.125-0.585-4.24-0.823-6.338C43.656,97.186,44.197,96.616,44.864,96.643z M53.755,107.504
	c0.22,1.646,0.458,3.301,0.712,4.966c0.102,0.67-0.424,1.274-1.102,1.257c-2.14-0.054-4.273-0.117-6.4-0.187
	c-0.515-0.017-0.95-0.396-1.042-0.903c-0.311-1.724-0.601-3.436-0.869-5.136c-0.108-0.684,0.446-1.287,1.137-1.25
	c2.172,0.119,4.348,0.226,6.532,0.316C53.252,106.589,53.685,106.981,53.755,107.504z M56.02,106.692
	c2.81,0.096,5.636,0.166,8.478,0.216c0.575,0.01,1.043,0.466,1.068,1.04c0.069,1.615,0.144,3.225,0.226,4.832
	c0.032,0.627-0.474,1.151-1.102,1.144c-2.68-0.03-5.346-0.071-7.999-0.126c-0.531-0.011-0.978-0.406-1.059-0.931
	c-0.257-1.661-0.498-3.312-0.721-4.954C54.82,107.249,55.35,106.669,56.02,106.692z M66.662,108.098
	c-0.027-0.625,0.476-1.145,1.102-1.138c2.072,0.025,4.153,0.04,6.249,0.04c0.318,0,0.639-0.002,0.96-0.005
	c0.604-0.005,1.097,0.484,1.097,1.088l0,4.804c0,0.602-0.49,1.091-1.092,1.091c-2.347,0.002-4.684-0.005-7.007-0.021
	c-0.578-0.004-1.051-0.459-1.081-1.036C66.808,111.318,66.732,109.711,66.662,108.098z M78.234,106.975
	c2.389-0.017,4.792-0.048,7.217-0.096c0.629-0.013,1.144,0.508,1.117,1.137c-0.07,1.625-0.146,3.246-0.229,4.862
	c-0.029,0.575-0.506,1.029-1.082,1.036c-2.35,0.028-4.685,0.046-7.008,0.055c-0.604,0.002-1.092-0.487-1.092-1.091v-4.818
	C77.158,107.463,77.636,106.979,78.234,106.975z M88.721,106.807c2.799-0.073,5.631-0.172,8.487-0.286
	c0.677-0.027,1.222,0.559,1.131,1.231c-0.225,1.666-0.468,3.342-0.729,5.027c-0.081,0.525-0.533,0.921-1.064,0.934
	c-2.688,0.064-5.36,0.118-8.009,0.159c-0.629,0.01-1.13-0.515-1.098-1.143c0.082-1.622,0.158-3.248,0.228-4.879
	C87.69,107.277,88.148,106.822,88.721,106.807z M100.517,106.383c2.163-0.096,4.339-0.2,6.538-0.318
	c0.692-0.037,1.254,0.566,1.147,1.251c-0.271,1.726-0.564,3.464-0.879,5.214c-0.092,0.51-0.534,0.891-1.051,0.908
	c-2.149,0.07-4.282,0.134-6.403,0.19c-0.676,0.018-1.196-0.584-1.094-1.252c0.259-1.695,0.499-3.381,0.722-5.057
	C99.566,106.798,99.992,106.407,100.517,106.383z M99.915,104.048c0.261-2.153,0.5-4.297,0.701-6.427
	c0.051-0.545,0.498-0.964,1.045-0.983c2.259-0.077,4.508-0.16,6.744-0.25c0.665-0.027,1.199,0.542,1.125,1.203
	c-0.238,2.122-0.521,4.261-0.828,6.411c-0.074,0.516-0.509,0.912-1.03,0.94c-2.233,0.122-4.44,0.23-6.633,0.328
	C100.366,105.301,99.834,104.717,99.915,104.048z M111.707,96.248c1.181-0.051,2.359-0.103,3.533-0.157
	c0.651-0.03,1.181,0.511,1.137,1.161c-0.142,2.076-0.307,4.161-0.49,6.254c-0.047,0.539-0.487,0.968-1.028,1.003
	c-1.291,0.084-2.572,0.162-3.849,0.238c-0.685,0.041-1.23-0.559-1.135-1.239c0.296-2.11,0.566-4.209,0.795-6.291
	C110.728,96.68,111.168,96.271,111.707,96.248z M110.98,93.947c0.19-2.097,0.341-4.184,0.462-6.264
	c0.033-0.567,0.495-1.012,1.063-1.024c1.086-0.023,2.169-0.046,3.245-0.07c0.628-0.014,1.137,0.503,1.114,1.13
	c-0.076,2.073-0.17,4.15-0.289,6.234c-0.032,0.559-0.481,1.007-1.041,1.033c-1.136,0.053-2.275,0.104-3.417,0.154
	C111.456,95.169,110.92,94.606,110.98,93.947z M119.02,86.513c0.907-0.022,1.809-0.043,2.708-0.065
	c0.618-0.015,1.125,0.485,1.118,1.103c-0.023,2.02-0.052,4.041-0.087,6.062c-0.01,0.574-0.462,1.045-1.035,1.074
	c-0.966,0.049-1.933,0.097-2.903,0.145c-0.645,0.031-1.175-0.504-1.14-1.148c0.114-2.047,0.206-4.088,0.279-6.126
	C117.981,86.983,118.445,86.526,119.02,86.513z M124.998,86.366c1.861-0.047,3.702-0.096,5.526-0.145v8.002
	c-1.833,0.101-3.677,0.2-5.528,0.297c-0.629,0.033-1.155-0.474-1.144-1.104c0.034-1.993,0.062-3.986,0.084-5.977
	C123.943,86.854,124.413,86.381,124.998,86.366z M123.936,65.73c-0.022-1.991-0.05-3.984-0.084-5.978
	c-0.011-0.63,0.515-1.137,1.144-1.104c1.851,0.097,3.694,0.195,5.528,0.297v8.002c-1.823-0.049-3.666-0.097-5.526-0.145
	C124.413,66.788,123.943,66.315,123.936,65.73z M121.727,66.722c-0.899-0.022-1.8-0.044-2.707-0.066
	c-0.575-0.014-1.04-0.47-1.061-1.045c-0.073-2.037-0.165-4.079-0.279-6.126c-0.036-0.644,0.495-1.18,1.14-1.148
	c0.97,0.047,1.937,0.096,2.903,0.145c0.574,0.029,1.025,0.499,1.035,1.074c0.035,2.021,0.064,4.043,0.087,6.063
	C122.853,66.236,122.345,66.737,121.727,66.722z M115.748,66.581c-1.075-0.024-2.154-0.048-3.24-0.071
	c-0.569-0.012-1.033-0.457-1.066-1.025c-0.121-2.078-0.272-4.163-0.461-6.258c-0.06-0.662,0.477-1.226,1.141-1.197
	c1.141,0.05,2.278,0.102,3.413,0.154c0.56,0.026,1.009,0.474,1.041,1.033c0.118,2.084,0.213,4.161,0.289,6.235
	C116.887,66.078,116.375,66.595,115.748,66.581z M110.669,55.955c-0.228-2.083-0.498-4.183-0.795-6.294
	c-0.095-0.68,0.45-1.279,1.135-1.239c1.278,0.076,2.561,0.154,3.853,0.238c0.538,0.035,0.977,0.462,1.024,0.999
	c0.184,2.095,0.349,4.181,0.491,6.259c0.044,0.65-0.487,1.191-1.137,1.161c-1.175-0.054-2.353-0.107-3.534-0.159
	C111.167,56.898,110.728,56.489,110.669,55.955z M109.389,46.386c-0.268-1.743-0.559-3.498-0.872-5.265
	c-0.121-0.68,0.409-1.303,1.099-1.278c1.441,0.052,2.89,0.108,4.345,0.166c0.54,0.022,0.987,0.437,1.048,0.974
	c0.204,1.798,0.393,3.587,0.567,5.369c0.065,0.669-0.491,1.233-1.162,1.19c-1.35-0.087-2.691-0.169-4.027-0.247
	C109.878,47.264,109.466,46.889,109.389,46.386z M107.917,37.854c-0.329-1.722-0.678-3.458-1.049-5.209
	c-0.145-0.683,0.377-1.329,1.075-1.32c1.639,0.022,3.278,0.047,4.916,0.073c0.539,0.009,0.994,0.413,1.067,0.948
	c0.246,1.789,0.476,3.567,0.693,5.336c0.082,0.667-0.459,1.245-1.131,1.218c-1.524-0.06-3.041-0.117-4.55-0.171
	C108.433,38.711,108.012,38.351,107.917,37.854z M105.593,38.618c-2.113-0.068-4.212-0.129-6.299-0.183
	c-0.519-0.014-0.949-0.389-1.033-0.901c-0.274-1.664-0.564-3.339-0.872-5.026c-0.123-0.673,0.394-1.295,1.077-1.289
	c2.042,0.018,4.084,0.037,6.125,0.061c0.511,0.006,0.953,0.371,1.06,0.87c0.373,1.74,0.725,3.465,1.057,5.176
	C106.84,38.014,106.292,38.64,105.593,38.618z M95.975,38.353c-2.629-0.061-5.242-0.112-7.833-0.151
	c-0.573-0.009-1.036-0.454-1.064-1.027c-0.08-1.611-0.165-3.238-0.253-4.879c-0.034-0.626,0.467-1.157,1.094-1.154
	c2.406,0.012,4.812,0.029,7.217,0.048c0.524,0.004,0.974,0.384,1.069,0.899c0.31,1.677,0.602,3.344,0.878,4.999
	C97.195,37.764,96.658,38.369,95.975,38.353z M84.876,38.161c-2.225-0.025-4.437-0.042-6.638-0.051
	c-0.599-0.003-1.08-0.488-1.08-1.087v-4.822c0-0.603,0.49-1.092,1.093-1.091c2.131,0.003,4.261,0.011,6.391,0.02
	c0.578,0.002,1.054,0.46,1.086,1.037c0.088,1.634,0.173,3.254,0.253,4.858C86.011,37.652,85.504,38.168,84.876,38.161z M74.978,38.1
	c-2.222-0.002-4.435,0.003-6.636,0.018c-0.625,0.004-1.123-0.512-1.092-1.136c0.079-1.591,0.163-3.196,0.251-4.816
	c0.031-0.577,0.508-1.034,1.086-1.036c2.13-0.009,4.26-0.017,6.391-0.02c0.603-0.001,1.092,0.489,1.092,1.091v4.812
	C76.069,37.614,75.579,38.101,74.978,38.1z M65.077,38.15c-2.62,0.028-5.227,0.068-7.822,0.119
	c-0.682,0.014-1.209-0.591-1.097-1.264c0.272-1.628,0.56-3.266,0.865-4.915c0.095-0.515,0.545-0.895,1.069-0.899
	c2.405-0.019,4.811-0.036,7.217-0.048c0.627-0.003,1.128,0.528,1.094,1.154c-0.087,1.623-0.171,3.232-0.251,4.826
	C66.123,37.697,65.651,38.143,65.077,38.15z M53.938,38.339c-2.104,0.051-4.2,0.111-6.291,0.178
	c-0.699,0.022-1.241-0.605-1.108-1.291c0.326-1.678,0.672-3.369,1.038-5.074c0.107-0.499,0.549-0.864,1.06-0.87
	c2.04-0.024,4.082-0.042,6.124-0.061c0.684-0.006,1.2,0.616,1.078,1.289c-0.302,1.653-0.587,3.294-0.856,4.926
	C54.898,37.949,54.46,38.326,53.938,38.339z M44.306,38.63c-1.524,0.054-3.046,0.113-4.565,0.176
	c-0.669,0.028-1.203-0.547-1.122-1.212c0.214-1.74,0.44-3.489,0.682-5.249c0.073-0.534,0.528-0.939,1.067-0.947
	c1.639-0.026,3.277-0.051,4.917-0.073c0.698-0.01,1.22,0.637,1.075,1.319c-0.364,1.718-0.707,3.422-1.031,5.113
	C45.234,38.254,44.811,38.612,44.306,38.63z M44.728,41.03c-0.308,1.735-0.594,3.457-0.859,5.168
	c-0.078,0.504-0.493,0.879-1.002,0.91c-1.349,0.082-2.696,0.169-4.043,0.262c-0.669,0.046-1.221-0.515-1.155-1.183
	c0.172-1.758,0.36-3.525,0.562-5.299c0.061-0.534,0.502-0.949,1.04-0.972c1.446-0.061,2.896-0.118,4.347-0.171
	C44.311,39.72,44.849,40.347,44.728,41.03z M35.537,47.605c-1.201,0.091-2.403,0.187-3.603,0.287
	c-0.647,0.054-1.197-0.465-1.177-1.114c0.056-1.821,0.121-3.646,0.187-5.47c0.02-0.566,0.469-1.023,1.035-1.052
	c1.325-0.068,2.651-0.132,3.979-0.194c0.669-0.031,1.207,0.548,1.132,1.214c-0.201,1.794-0.388,3.581-0.559,5.359
	C36.48,47.158,36.063,47.565,35.537,47.605z M36.225,49.919c-0.177,2.042-0.337,4.076-0.474,6.101
	c-0.037,0.543-0.466,0.969-1.009,1.001c-1.015,0.059-2.031,0.121-3.05,0.185c-0.634,0.04-1.17-0.468-1.158-1.103
	c0.038-2.009,0.074-4.018,0.124-6.029c0.014-0.558,0.448-1.019,1.005-1.066c1.132-0.095,2.263-0.186,3.395-0.274
	C35.729,48.682,36.283,49.249,36.225,49.919z M28.429,57.416c-1.902,0.132-3.811,0.276-5.725,0.427v-8.014
	c1.892-0.191,3.782-0.371,5.672-0.54c0.648-0.058,1.199,0.463,1.183,1.113c-0.048,1.985-0.082,3.968-0.119,5.951
	C29.43,56.916,28.992,57.377,28.429,57.416z M29.44,96.813c0.037,1.984,0.071,3.968,0.119,5.955c0.016,0.65-0.536,1.171-1.183,1.113
	c-1.89-0.17-3.78-0.349-5.672-0.541v-8.014c1.915,0.152,3.823,0.292,5.724,0.423C28.991,95.788,29.43,96.249,29.44,96.813z
	 M31.692,95.961c1.017,0.065,2.033,0.128,3.047,0.187c0.545,0.032,0.975,0.459,1.012,1.003c0.137,2.024,0.297,4.057,0.474,6.097
	c0.058,0.67-0.497,1.237-1.167,1.185c-1.132-0.087-2.264-0.179-3.395-0.274c-0.556-0.047-0.991-0.508-1.005-1.066
	c-0.05-2.012-0.086-4.021-0.124-6.031C30.522,96.429,31.058,95.921,31.692,95.961z M36.531,106.532
	c0.171,1.779,0.358,3.566,0.56,5.361c0.075,0.666-0.463,1.245-1.132,1.214c-1.328-0.061-2.654-0.126-3.979-0.194
	c-0.565-0.029-1.014-0.487-1.035-1.052c-0.066-1.825-0.131-3.649-0.187-5.471c-0.02-0.649,0.53-1.167,1.176-1.113
	c1.202,0.1,2.404,0.196,3.607,0.287C36.064,105.603,36.48,106.009,36.531,106.532z M38.824,105.798
	c1.346,0.093,2.694,0.18,4.043,0.262c0.508,0.031,0.923,0.405,1.001,0.909c0.265,1.711,0.551,3.434,0.859,5.169
	c0.121,0.683-0.417,1.31-1.11,1.285c-1.451-0.053-2.899-0.11-4.345-0.171c-0.538-0.023-0.981-0.438-1.042-0.974
	c-0.202-1.774-0.389-3.54-0.561-5.298C37.604,106.313,38.155,105.752,38.824,105.798z M45.329,115.411
	c0.324,1.691,0.667,3.395,1.031,5.113c0.145,0.683-0.377,1.329-1.075,1.319c-1.64-0.022-3.278-0.047-4.917-0.073
	c-0.539-0.009-0.994-0.413-1.067-0.948c-0.241-1.758-0.468-3.506-0.682-5.245c-0.082-0.667,0.454-1.243,1.125-1.215
	c1.518,0.063,3.038,0.121,4.562,0.176C44.811,114.556,45.234,114.915,45.329,115.411z M47.646,114.652
	c2.092,0.067,4.189,0.127,6.294,0.178c0.521,0.013,0.958,0.389,1.043,0.903c0.269,1.632,0.555,3.274,0.857,4.928
	c0.123,0.672-0.394,1.294-1.077,1.288c-2.043-0.018-4.085-0.037-6.125-0.061c-0.511-0.006-0.952-0.37-1.059-0.87
	c-0.366-1.706-0.712-3.398-1.038-5.076C46.406,115.256,46.948,114.63,47.646,114.652z M57.255,114.9
	c2.533,0.05,5.079,0.089,7.636,0.117c0.572,0.006,1.042,0.454,1.074,1.025c0.09,1.61,0.186,3.218,0.289,4.824
	c0.04,0.63-0.461,1.162-1.092,1.159c-2.357-0.012-4.714-0.029-7.07-0.048c-0.524-0.004-0.974-0.384-1.069-0.899
	c-0.305-1.649-0.593-3.288-0.865-4.915C56.045,115.49,56.573,114.886,57.255,114.9z M67.064,116.199
	c-0.035-0.628,0.466-1.155,1.095-1.151c2.071,0.015,4.15,0.024,6.241,0.024c0.191,0,0.382-0.001,0.574-0.002
	c0.603-0.003,1.094,0.485,1.094,1.088v4.807c0,0.603-0.49,1.092-1.092,1.091c-2.179-0.003-4.358-0.012-6.536-0.02
	c-0.574-0.002-1.049-0.449-1.086-1.021C67.252,119.413,67.155,117.808,67.064,116.199z M78.239,115.059
	c2.262-0.009,4.535-0.027,6.822-0.053c0.63-0.007,1.14,0.52,1.104,1.15c-0.091,1.623-0.189,3.243-0.293,4.862
	c-0.037,0.572-0.512,1.019-1.086,1.021c-2.178,0.009-4.357,0.018-6.536,0.02c-0.603,0.001-1.092-0.489-1.092-1.091v-4.821
	C77.158,115.547,77.64,115.061,78.239,115.059z M88.328,114.964c2.53-0.039,5.081-0.089,7.647-0.148
	c0.683-0.016,1.22,0.589,1.108,1.264c-0.276,1.655-0.568,3.321-0.878,4.999c-0.095,0.515-0.545,0.895-1.069,0.899
	c-2.356,0.019-4.712,0.036-7.069,0.048c-0.631,0.003-1.133-0.529-1.092-1.159c0.104-1.624,0.201-3.249,0.292-4.877
	C87.297,115.42,87.758,114.973,88.328,114.964z M99.296,114.733c2.086-0.054,4.184-0.115,6.297-0.183
	c0.699-0.022,1.247,0.604,1.114,1.291c-0.332,1.711-0.683,3.436-1.057,5.176c-0.107,0.5-0.549,0.864-1.06,0.87
	c-2.041,0.024-4.083,0.042-6.125,0.061c-0.683,0.006-1.2-0.616-1.077-1.288c0.308-1.686,0.598-3.36,0.872-5.023
	C98.344,115.123,98.776,114.747,99.296,114.733z M108.936,114.44c1.51-0.054,3.028-0.111,4.552-0.171
	c0.671-0.027,1.212,0.551,1.131,1.218c-0.217,1.769-0.447,3.547-0.693,5.336c-0.073,0.534-0.528,0.939-1.067,0.948
	c-1.638,0.026-3.276,0.051-4.915,0.073c-0.698,0.01-1.22-0.637-1.076-1.32c0.371-1.751,0.72-3.488,1.049-5.211
	C108.012,114.816,108.432,114.457,108.936,114.44z M108.516,112.05c0.313-1.768,0.604-3.523,0.873-5.266
	c0.078-0.504,0.491-0.88,1-0.91c1.333-0.078,2.673-0.16,4.021-0.247c0.672-0.043,1.231,0.522,1.165,1.193
	c-0.174,1.781-0.363,3.57-0.567,5.367c-0.061,0.535-0.507,0.95-1.046,0.972c-1.456,0.058-2.907,0.114-4.349,0.166
	C108.923,113.351,108.395,112.729,108.516,112.05z M117.71,105.406c1.19-0.082,2.386-0.167,3.588-0.256
	c0.646-0.048,1.196,0.473,1.176,1.121c-0.057,1.84-0.122,3.682-0.189,5.525c-0.02,0.567-0.474,1.024-1.041,1.05
	c-1.331,0.062-2.658,0.122-3.977,0.179c-0.667,0.029-1.196-0.548-1.122-1.211c0.204-1.82,0.393-3.632,0.566-5.435
	C116.763,105.852,117.182,105.443,117.71,105.406z M117.016,103.105c0.178-2.062,0.336-4.115,0.473-6.161
	c0.037-0.55,0.48-0.981,1.031-1.008c1.016-0.049,2.028-0.1,3.039-0.151c0.63-0.032,1.151,0.476,1.139,1.107
	c-0.038,2.026-0.073,4.052-0.124,6.082c-0.014,0.562-0.457,1.025-1.018,1.066c-1.136,0.084-2.266,0.165-3.39,0.243
	C117.501,104.329,116.958,103.768,117.016,103.105z M124.824,95.62c1.909-0.1,3.808-0.203,5.699-0.307v8.018
	c-1.912,0.161-3.81,0.316-5.691,0.463c-0.641,0.05-1.178-0.467-1.162-1.109c0.048-2.001,0.083-4,0.119-5.998
	C123.801,96.115,124.254,95.65,124.824,95.62z M123.79,56.484c-0.037-1.998-0.071-3.996-0.119-5.996
	c-0.016-0.645,0.523-1.163,1.166-1.113c1.88,0.147,3.776,0.301,5.686,0.463v8.018c-1.89-0.104-3.789-0.206-5.698-0.305
	C124.256,57.52,123.801,57.055,123.79,56.484z M121.558,57.384c-1.011-0.051-2.023-0.101-3.039-0.151
	c-0.55-0.027-0.994-0.458-1.031-1.008c-0.137-2.045-0.295-4.097-0.473-6.158c-0.057-0.665,0.487-1.227,1.153-1.181
	c1.125,0.078,2.254,0.159,3.39,0.243c0.56,0.041,1.001,0.502,1.015,1.063c0.05,2.03,0.086,4.057,0.124,6.085
	C122.709,56.907,122.188,57.415,121.558,57.384z M116.712,46.787c-0.173-1.803-0.362-3.615-0.566-5.436
	c-0.074-0.662,0.453-1.237,1.119-1.208c1.321,0.057,2.649,0.117,3.981,0.179c0.567,0.026,1.02,0.483,1.041,1.05
	c0.066,1.843,0.132,3.687,0.189,5.527c0.02,0.646-0.529,1.166-1.174,1.119c-1.202-0.088-2.398-0.174-3.588-0.256
	C117.183,47.726,116.763,47.315,116.712,46.787z M114.619,29.427c-0.323-2.234-0.665-4.483-1.033-6.754h7.891
	c0.118,2.218,0.215,4.426,0.314,6.635c0.028,0.628-0.479,1.149-1.107,1.137c-1.669-0.032-3.339-0.064-5.01-0.092
	C115.141,30.344,114.695,29.955,114.619,29.427z M112.369,30.302c-1.72-0.027-3.44-0.053-5.161-0.076
	c-0.503-0.007-0.934-0.355-1.044-0.845c-0.496-2.209-1.022-4.443-1.584-6.707h7.904c0.349,2.146,0.674,4.273,0.982,6.385
	C113.563,29.723,113.04,30.312,112.369,30.302z M103.857,30.182c-2.006-0.022-4.013-0.04-6.02-0.057
	c-0.517-0.004-0.956-0.368-1.054-0.875c-0.42-2.171-0.866-4.362-1.342-6.577h8.021c0.52,2.086,1.008,4.145,1.471,6.184
	C105.087,29.543,104.56,30.19,103.857,30.182z M94.506,30.097c-2.26-0.018-4.52-0.033-6.781-0.044
	c-0.575-0.003-1.047-0.446-1.079-1.02c-0.118-2.094-0.244-4.215-0.375-6.36h8.057c0.445,2.063,0.864,4.105,1.259,6.13
	C95.72,29.479,95.195,30.102,94.506,30.097z M84.455,30.04c-2.07-0.008-4.14-0.017-6.211-0.019c-0.6-0.001-1.086-0.487-1.086-1.087
	v-6.261h8.022c0.129,2.098,0.251,4.173,0.367,6.222C85.583,29.522,85.082,30.042,84.455,30.04z M74.983,30.021
	c-2.07,0.003-4.141,0.011-6.211,0.019c-0.627,0.002-1.127-0.518-1.092-1.144c0.116-2.05,0.239-4.124,0.367-6.222h8.022v6.261
	C76.069,29.534,75.584,30.02,74.983,30.021z M65.502,30.053c-2.261,0.011-4.521,0.026-6.781,0.044
	c-0.689,0.005-1.213-0.617-1.081-1.294c0.396-2.025,0.815-4.066,1.259-6.13h8.057c-0.131,2.145-0.257,4.265-0.375,6.36
	C66.549,29.607,66.077,30.05,65.502,30.053z M55.391,30.125c-2.007,0.017-4.014,0.035-6.02,0.057
	c-0.703,0.008-1.231-0.639-1.075-1.325c0.463-2.039,0.952-4.099,1.471-6.184h8.021c-0.476,2.215-0.922,4.406-1.343,6.577
	C56.347,29.757,55.908,30.12,55.391,30.125z M46.02,30.226c-1.721,0.023-3.442,0.049-5.162,0.076
	c-0.671,0.011-1.194-0.578-1.097-1.242c0.308-2.113,0.633-4.239,0.982-6.386h7.904c-0.562,2.264-1.088,4.497-1.583,6.707
	C46.954,29.871,46.523,30.219,46.02,30.226z M37.554,30.354c-1.671,0.028-3.341,0.06-5.01,0.092
	c-0.629,0.012-1.136-0.509-1.107-1.137c0.099-2.209,0.196-4.418,0.314-6.635h7.89c-0.368,2.271-0.71,4.52-1.033,6.754
	C38.532,29.955,38.086,30.344,37.554,30.354z M38.155,32.69c-0.242,1.78-0.469,3.55-0.683,5.31
	c-0.064,0.526-0.497,0.924-1.026,0.948c-1.415,0.064-2.829,0.132-4.241,0.204c-0.639,0.032-1.168-0.488-1.143-1.127
	c0.07-1.811,0.146-3.626,0.225-5.441c0.025-0.576,0.495-1.035,1.071-1.046c1.567-0.03,3.133-0.06,4.702-0.088
	C37.727,31.44,38.245,32.029,38.155,32.69z M22.704,40.779c1.994-0.125,3.991-0.241,5.989-0.351c0.641-0.035,1.175,0.489,1.152,1.13
	c-0.067,1.856-0.133,3.711-0.189,5.564c-0.017,0.55-0.44,0.998-0.988,1.047c-1.987,0.177-3.975,0.364-5.964,0.565
	C22.704,46.083,22.705,43.431,22.704,40.779z M29.656,106.046c0.056,1.853,0.122,3.708,0.189,5.564
	c0.023,0.641-0.512,1.166-1.152,1.13c-1.998-0.11-3.995-0.226-5.989-0.351c0.001-2.652,0-5.304,0-7.955
	c1.989,0.201,3.977,0.388,5.965,0.565C29.217,105.048,29.64,105.496,29.656,106.046z M22.704,113.481
	c2.076,0.13,4.155,0.25,6.236,0.364c0.559,0.031,1.002,0.478,1.023,1.038c0.07,1.846,0.147,3.696,0.227,5.546
	c0.027,0.627-0.48,1.148-1.107,1.136c-2.127-0.042-4.255-0.083-6.379-0.133C22.705,118.781,22.704,116.131,22.704,113.481z
	 M32.205,114.015c1.412,0.072,2.826,0.14,4.241,0.204c0.529,0.024,0.962,0.422,1.026,0.948c0.214,1.761,0.441,3.53,0.683,5.31
	c0.09,0.661-0.428,1.251-1.096,1.239c-1.568-0.027-3.135-0.057-4.701-0.088c-0.576-0.011-1.046-0.471-1.071-1.046
	c-0.08-1.815-0.155-3.629-0.225-5.441C31.037,114.503,31.566,113.983,32.205,114.015z M38.608,123.741
	c0.323,2.234,0.665,4.483,1.033,6.754h-7.89c-0.118-2.218-0.215-4.426-0.314-6.635c-0.028-0.628,0.479-1.149,1.107-1.137
	c1.669,0.032,3.339,0.064,5.01,0.092C38.086,122.824,38.532,123.214,38.608,123.741z M40.859,122.867
	c1.72,0.027,3.44,0.053,5.161,0.076c0.503,0.007,0.934,0.355,1.044,0.845c0.496,2.209,1.022,4.443,1.583,6.707h-7.904
	c-0.348-2.146-0.674-4.273-0.982-6.386C39.664,123.445,40.187,122.856,40.859,122.867z M49.368,122.986
	c2.007,0.022,4.015,0.04,6.023,0.057c0.516,0.005,0.956,0.367,1.054,0.874c0.42,2.171,0.866,4.362,1.343,6.577h-8.021
	c-0.52-2.087-1.009-4.147-1.472-6.187C48.14,123.624,48.667,122.979,49.368,122.986z M58.721,123.072
	c2.224,0.018,4.448,0.033,6.674,0.044c0.569,0.003,1.038,0.443,1.078,1.011c0.147,2.123,0.305,4.245,0.474,6.369h-8.047
	c-0.445-2.063-0.863-4.105-1.259-6.13C57.507,123.689,58.032,123.066,58.721,123.072z M68.667,123.128
	c2.105,0.008,4.21,0.017,6.316,0.02c0.6,0.001,1.086,0.486,1.086,1.087v6.26h-8.031c-0.165-2.068-0.319-4.135-0.463-6.202
	C67.532,123.662,68.034,123.126,68.667,123.128z M78.244,123.148c2.105-0.003,4.211-0.011,6.315-0.02
	c0.633-0.003,1.136,0.533,1.092,1.165c-0.144,2.067-0.298,4.134-0.463,6.202h-8.031v-6.26
	C77.158,123.635,77.644,123.149,78.244,123.148z M87.833,123.116c2.225-0.011,4.45-0.026,6.674-0.044
	c0.689-0.005,1.213,0.617,1.081,1.293c-0.396,2.025-0.814,4.066-1.259,6.13h-8.047c0.169-2.124,0.327-4.246,0.474-6.369
	C86.794,123.559,87.264,123.119,87.833,123.116z M97.836,123.044c2.008-0.018,4.015-0.035,6.021-0.057
	c0.703-0.008,1.231,0.639,1.075,1.325c-0.463,2.039-0.952,4.098-1.471,6.184H95.44c0.476-2.215,0.922-4.406,1.342-6.577
	C96.88,123.411,97.319,123.048,97.836,123.044z M107.208,122.943c1.721-0.023,3.441-0.049,5.16-0.076
	c0.671-0.011,1.194,0.579,1.097,1.243c-0.308,2.112-0.633,4.239-0.982,6.385h-7.904c0.562-2.264,1.088-4.497,1.584-6.707
	C106.274,123.297,106.705,122.949,107.208,122.943z M115.674,122.815c1.671-0.028,3.341-0.06,5.01-0.092
	c0.629-0.012,1.136,0.509,1.107,1.137c-0.099,2.209-0.197,4.417-0.314,6.635h-7.891c0.368-2.271,0.71-4.52,1.033-6.754
	C114.695,123.214,115.141,122.824,115.674,122.815z M115.072,120.478c0.246-1.807,0.476-3.604,0.692-5.392
	c0.064-0.528,0.496-0.928,1.027-0.951c1.403-0.06,2.815-0.123,4.232-0.189c0.638-0.03,1.169,0.492,1.144,1.13
	c-0.071,1.833-0.147,3.669-0.227,5.506c-0.025,0.576-0.495,1.035-1.071,1.046c-1.567,0.031-3.133,0.06-4.702,0.088
	C115.501,121.729,114.982,121.139,115.072,120.478z M130.524,112.385c-2.014,0.108-4.015,0.211-6.002,0.309
	c-0.637,0.031-1.161-0.491-1.139-1.128c0.067-1.872,0.135-3.745,0.191-5.614c0.017-0.553,0.442-1.001,0.993-1.044
	c1.968-0.153,3.955-0.315,5.956-0.484V112.385z M123.574,47.213c-0.057-1.868-0.124-3.739-0.191-5.61
	c-0.023-0.638,0.501-1.159,1.139-1.128c1.987,0.097,3.988,0.2,6.002,0.309v7.961c-2-0.169-3.986-0.331-5.952-0.484
	C124.018,48.218,123.591,47.768,123.574,47.213z M130.524,30.647c-2.187-0.051-4.378-0.093-6.569-0.136
	c-0.574-0.011-1.04-0.466-1.066-1.039c-0.102-2.264-0.201-4.526-0.322-6.799h7.957C130.524,25.331,130.524,27.989,130.524,30.647z
	 M30.66,22.673c-0.121,2.272-0.22,4.535-0.321,6.799c-0.026,0.573-0.492,1.028-1.066,1.039c-2.191,0.043-4.382,0.085-6.569,0.136
	c0-2.658,0.001-5.316,0-7.974H30.66z M22.704,122.521c2.187,0.051,4.378,0.093,6.569,0.136c0.574,0.011,1.04,0.466,1.066,1.039
	c0.102,2.264,0.201,4.526,0.321,6.799h-7.956C22.705,127.837,22.704,125.179,22.704,122.521z M122.567,130.495
	c0.121-2.272,0.22-4.535,0.322-6.799c0.026-0.573,0.492-1.028,1.066-1.039c2.191-0.043,4.382-0.085,6.569-0.136
	c0.001,2.658,0,5.316,0,7.974H122.567z"/>
</svg>
