<?xml version="1.0" encoding="iso-8859-1"?>
<!-- Generator: Adobe Illustrator 27.5.0, SVG Export Plug-In . SVG Version: 6.00 Build 0)  -->
<svg version="1.1" id="shapes" xmlns="http://www.w3.org/2000/svg" xmlns:xlink="http://www.w3.org/1999/xlink" x="0px" y="0px"
	 width="150px" height="150px" viewBox="0 0 150 150" enable-background="new 0 0 150 150" xml:space="preserve">
<path d="M123.964,56.965v-10h-5v-5h-5v-5h-5v-5h-5v-5h-15v-5h-25v5h-15v5h-5v5h-5v5h-5v5h-5v10h-5v40h5v10h5v5h5v5h5v5h5v5h15v5h25
	v-5h15v-5h5v-5h5v-5h5v-5h5v-10h5v-40H123.964z M83.964,51.965h5v35h-5V51.965z M63.965,51.965h5v35h-5V51.965z M108.964,91.965h-5
	v10h-5v5h-10v5h-5v5h-15v-5h-5v-5h-10v-5h-5v-10h-5v-5h5v5h5v-5h5v5h-5v10h10v5h5v5h15v-5h5v-5h10v-10h-5v-5h5v5h5v-5h5V91.965z"/>
</svg>
