<?xml version="1.0" encoding="iso-8859-1"?>
<!-- Generator: Adobe Illustrator 27.5.0, SVG Export Plug-In . SVG Version: 6.00 Build 0)  -->
<svg version="1.1" id="shapes" xmlns="http://www.w3.org/2000/svg" xmlns:xlink="http://www.w3.org/1999/xlink" x="0px" y="0px"
	 width="150px" height="150px" viewBox="0 0 150 150" enable-background="new 0 0 150 150" xml:space="preserve">
<g>
	<path d="M84.703,131.965c2.017-0.307,4.02-0.735,6.001-1.265c9.058-2.432,17.619-7.187,24.729-14.294
		c5.264-5.266,9.236-11.331,11.937-17.802c2.696-6.465,4.11-13.333,4.245-20.228L84.703,131.965z"/>
	<path d="M54.975,26.21c-6.469,2.701-12.536,6.673-17.8,11.937c-7.109,7.109-11.864,15.673-14.296,24.731
		c-0.531,1.979-0.958,3.981-1.265,5.998l53.588-46.911C68.31,22.103,61.439,23.514,54.975,26.21"/>
	<path d="M96.231,25.654l-68.46,78.207c0.049,0.086,0.099,0.174,0.148,0.262l81.4-71.253
		C105.235,29.826,100.827,27.424,96.231,25.654"/>
	<path d="M79.037,22.008L21.887,87.297c0.09,0.49,0.191,0.978,0.294,1.467l72.684-63.626C89.743,23.319,84.406,22.272,79.037,22.008
		"/>
	<path d="M120.711,44.259l-71.255,81.402c0.088,0.047,0.176,0.097,0.264,0.146l78.205-68.458
		C126.155,52.752,123.753,48.344,120.711,44.259"/>
	<path d="M128.441,58.714L64.817,131.4c0.488,0.103,0.975,0.202,1.465,0.292l65.289-57.151
		C131.307,69.173,130.26,63.838,128.441,58.714"/>
	<path d="M115.432,38.147c-1.757-1.755-3.609-3.354-5.53-4.825l-72.727,83.082l83.084-72.727
		C118.788,41.759,117.189,39.905,115.432,38.147"/>
</g>
</svg>
