<?xml version="1.0" encoding="iso-8859-1"?>
<!-- Generator: Adobe Illustrator 27.5.0, SVG Export Plug-In . SVG Version: 6.00 Build 0)  -->
<svg version="1.1" id="shapes" xmlns="http://www.w3.org/2000/svg" xmlns:xlink="http://www.w3.org/1999/xlink" x="0px" y="0px"
	 width="150px" height="150px" viewBox="0 0 150 150" enable-background="new 0 0 150 150" xml:space="preserve">
<path d="M76.614,21.584c-30.327,0-55,24.673-55,55s24.673,55,55,55s55-24.673,55-55S106.941,21.584,76.614,21.584z M119.238,62.162
	l-4.294,1.395c-0.558,0.181-1.149-0.116-1.353-0.666c-1.076-2.897-2.482-5.633-4.175-8.164c-0.327-0.489-0.22-1.142,0.255-1.488
	l3.65-2.652c0.496-0.361,1.201-0.246,1.544,0.262c2.067,3.062,3.775,6.383,5.066,9.906
	C120.144,61.332,119.823,61.972,119.238,62.162z M115.966,48.666l3.647-2.65c0.496-0.36,1.2-0.247,1.545,0.26
	c2.539,3.72,4.623,7.771,6.176,12.076c0.208,0.578-0.113,1.217-0.697,1.407l-4.291,1.394c-0.56,0.182-1.153-0.118-1.355-0.671
	c-1.338-3.675-3.118-7.137-5.279-10.323C115.383,49.67,115.489,49.012,115.966,48.666z M108.228,75.008
	c-0.112-2.3-0.469-4.537-1.048-6.683c-0.152-0.564,0.15-1.147,0.706-1.328l4.299-1.397c0.586-0.19,1.224,0.139,1.389,0.732
	c0.764,2.754,1.222,5.633,1.348,8.596c0.026,0.607-0.472,1.112-1.079,1.112h-4.549C108.717,76.04,108.256,75.583,108.228,75.008z
	 M79.929,68.145l1.479-4.553c0.197-0.607,0.882-0.903,1.463-0.64c0.375,0.17,0.742,0.354,1.1,0.553
	c0.556,0.309,0.721,1.035,0.347,1.549l-2.824,3.887c-0.253,0.348-0.717,0.432-1.099,0.236
	C79.999,68.975,79.796,68.551,79.929,68.145z M77.923,68.373c-0.439-0.069-0.764-0.41-0.764-0.838l0-4.787
	c0-0.64,0.562-1.133,1.198-1.06c0.406,0.047,0.808,0.109,1.204,0.188c0.629,0.125,1.01,0.769,0.812,1.379l-1.48,4.554
	C78.76,68.216,78.346,68.44,77.923,68.373z M75.321,68.371c-0.438,0.07-0.853-0.154-0.985-0.562l-1.48-4.554
	c-0.198-0.61,0.183-1.254,0.812-1.379c0.396-0.078,0.797-0.141,1.204-0.188c0.636-0.073,1.198,0.42,1.198,1.06l0,4.787
	C76.069,67.963,75.744,68.304,75.321,68.371z M72.848,69.17c-0.396,0.204-0.861,0.12-1.114-0.228l-2.824-3.887
	c-0.374-0.515-0.209-1.24,0.347-1.55c0.361-0.201,0.732-0.387,1.11-0.558c0.576-0.261,1.254,0.032,1.449,0.634l1.483,4.564
	C73.432,68.551,73.229,68.975,72.848,69.17z M70.737,70.697c-0.314,0.315-0.782,0.377-1.129,0.125l-3.874-2.815
	c-0.513-0.373-0.582-1.111-0.152-1.578c0.28-0.304,0.572-0.596,0.876-0.876c0.467-0.43,1.205-0.361,1.578,0.152l2.815,3.874
	C71.104,69.926,71.041,70.394,70.737,70.697z M69.207,72.804c-0.202,0.395-0.626,0.598-1.033,0.466l-4.553-1.479
	c-0.607-0.197-0.903-0.882-0.64-1.463c0.17-0.375,0.354-0.742,0.553-1.1c0.309-0.556,1.035-0.72,1.55-0.346l3.887,2.824
	C69.319,71.957,69.404,72.422,69.207,72.804z M68.403,75.276c-0.069,0.439-0.41,0.764-0.838,0.764h-4.776
	c-0.646,0-1.145-0.568-1.071-1.209c0.046-0.402,0.109-0.8,0.186-1.192c0.125-0.629,0.77-1.01,1.379-0.812l4.555,1.48
	C68.247,74.438,68.47,74.853,68.403,75.276z M68.401,77.877c0.07,0.438-0.154,0.853-0.562,0.985l-4.794,1.558
	c-0.483,0.157-0.982-0.148-1.089-0.644c-0.102-0.472-0.181-0.951-0.237-1.438c-0.074-0.642,0.425-1.209,1.071-1.209l4.776,0
	C67.994,77.129,68.334,77.454,68.401,77.877z M69.257,80.459c0.177,0.331,0.105,0.721-0.186,0.933l-3.953,2.871
	c-0.532,0.387-1.285,0.218-1.603-0.358c-0.191-0.346-0.369-0.701-0.533-1.063c-0.264-0.582,0.033-1.266,0.64-1.463l4.357-1.416
	C68.469,79.803,69.015,80.004,69.257,80.459z M70.727,82.461c0.315,0.314,0.377,0.782,0.125,1.129l-2.956,4.068
	c-0.287,0.395-0.857,0.476-1.223,0.152c-0.371-0.329-0.726-0.676-1.063-1.04c-0.446-0.482-0.374-1.246,0.157-1.632l3.841-2.791
	C69.956,82.094,70.423,82.157,70.727,82.461z M72.834,83.991c0.395,0.202,0.597,0.626,0.465,1.033l-1.557,4.791
	c-0.15,0.463-0.666,0.715-1.113,0.522c-0.544-0.234-1.073-0.498-1.582-0.792c-0.441-0.255-0.578-0.825-0.279-1.237l2.966-4.081
	C71.987,83.879,72.452,83.794,72.834,83.991z M75.306,84.795c0.439,0.069,0.764,0.41,0.764,0.838v4.775
	c0,0.646-0.568,1.145-1.209,1.071c-0.399-0.046-0.792-0.107-1.181-0.184c-0.635-0.125-1.02-0.777-0.82-1.392l1.476-4.544
	C74.468,84.951,74.882,84.728,75.306,84.795z M77.907,84.797c0.439-0.07,0.853,0.154,0.985,0.562l1.48,4.555
	c0.198,0.61-0.183,1.255-0.812,1.379c-0.392,0.078-0.79,0.14-1.192,0.186c-0.642,0.074-1.21-0.425-1.21-1.071l0-4.775
	C77.158,85.204,77.483,84.864,77.907,84.797z M80.38,83.998c0.396-0.204,0.86-0.119,1.113,0.229l2.824,3.887
	c0.374,0.515,0.21,1.241-0.347,1.55c-0.358,0.199-0.724,0.383-1.099,0.553c-0.582,0.264-1.266-0.033-1.463-0.64l-1.479-4.553
	C79.796,84.617,79.999,84.193,80.38,83.998z M82.49,82.472c0.314-0.315,0.781-0.377,1.129-0.125l3.875,2.815
	c0.513,0.373,0.582,1.111,0.152,1.578c-0.28,0.304-0.572,0.596-0.876,0.876c-0.467,0.43-1.205,0.362-1.578-0.152l-2.815-3.874
	C82.124,83.242,82.187,82.775,82.49,82.472z M84.021,80.364c0.202-0.394,0.626-0.597,1.033-0.465l4.552,1.479
	c0.607,0.197,0.903,0.882,0.64,1.463c-0.17,0.375-0.354,0.742-0.553,1.1c-0.309,0.556-1.035,0.721-1.55,0.347l-3.887-2.824
	C83.909,81.211,83.824,80.746,84.021,80.364z M84.825,77.892c0.069-0.439,0.41-0.764,0.838-0.764l4.775,0
	c0.646,0,1.145,0.568,1.071,1.209c-0.046,0.403-0.109,0.8-0.186,1.192c-0.125,0.629-0.77,1.01-1.379,0.812l-4.554-1.48
	C84.982,78.73,84.758,78.316,84.825,77.892z M84.827,75.291c-0.07-0.438,0.154-0.853,0.562-0.985l4.554-1.48
	c0.61-0.198,1.255,0.183,1.379,0.812c0.078,0.392,0.14,0.79,0.186,1.192c0.074,0.642-0.425,1.209-1.071,1.209l-4.775,0
	C85.235,76.04,84.894,75.715,84.827,75.291z M84.028,72.818c-0.204-0.396-0.119-0.861,0.228-1.113l3.887-2.824
	c0.515-0.374,1.24-0.209,1.549,0.347c0.199,0.358,0.383,0.725,0.553,1.1c0.264,0.582-0.033,1.266-0.64,1.463l-4.553,1.479
	C84.646,73.402,84.223,73.199,84.028,72.818z M82.502,70.709c-0.316-0.315-0.378-0.782-0.126-1.129l2.816-3.876
	c0.373-0.513,1.111-0.582,1.578-0.152c0.304,0.28,0.596,0.572,0.876,0.876c0.43,0.467,0.361,1.205-0.152,1.577l-3.875,2.816
	C83.272,71.074,82.805,71.012,82.502,70.709z M87.081,63.104l2.673-3.68c0.366-0.504,1.091-0.611,1.567-0.208
	c0.958,0.813,1.848,1.702,2.661,2.661c0.403,0.476,0.296,1.2-0.208,1.567l-3.679,2.673c-0.449,0.326-1.061,0.237-1.428-0.179
	c-0.44-0.497-0.909-0.967-1.407-1.407C86.844,64.164,86.755,63.553,87.081,63.104z M84.796,62.723
	c-0.568-0.333-1.159-0.629-1.769-0.891c-0.515-0.222-0.793-0.783-0.619-1.317l1.404-4.322c0.193-0.593,0.848-0.918,1.425-0.683
	c1.172,0.478,2.296,1.048,3.362,1.706c0.53,0.327,0.651,1.05,0.285,1.554l-2.675,3.681C85.883,62.9,85.274,63.003,84.796,62.723z
	 M80.119,60.88c-0.642-0.142-1.298-0.245-1.965-0.308c-0.558-0.052-0.995-0.5-0.995-1.061v-4.549c0-0.623,0.523-1.135,1.144-1.09
	c1.274,0.092,2.519,0.287,3.727,0.58c0.606,0.147,0.944,0.797,0.752,1.389l-1.413,4.349C81.198,60.714,80.656,60.999,80.119,60.88z
	 M75.074,60.572c-0.668,0.063-1.323,0.166-1.965,0.308c-0.537,0.119-1.079-0.166-1.249-0.688l-1.413-4.349
	c-0.193-0.593,0.146-1.242,0.752-1.389c1.208-0.293,2.453-0.488,3.726-0.58c0.621-0.045,1.144,0.467,1.144,1.09v4.549
	C76.069,60.072,75.632,60.52,75.074,60.572z M70.201,61.832c-0.61,0.262-1.201,0.559-1.769,0.891
	c-0.479,0.28-1.087,0.177-1.413-0.272l-2.674-3.681c-0.366-0.504-0.245-1.226,0.285-1.553c1.065-0.658,2.189-1.228,3.361-1.706
	c0.577-0.235,1.233,0.09,1.425,0.683l1.404,4.322C70.993,61.048,70.716,61.61,70.201,61.832z M65.968,64.532
	c-0.497,0.44-0.967,0.909-1.406,1.406c-0.367,0.416-0.979,0.505-1.428,0.179l-3.68-2.673c-0.504-0.366-0.611-1.091-0.208-1.567
	c0.813-0.959,1.702-1.848,2.661-2.661c0.476-0.403,1.2-0.296,1.567,0.208l2.673,3.679C66.473,63.552,66.384,64.164,65.968,64.532z
	 M62.753,68.402c-0.333,0.568-0.629,1.159-0.892,1.769c-0.222,0.515-0.783,0.793-1.317,0.619l-4.321-1.404
	c-0.593-0.193-0.918-0.848-0.682-1.425c0.478-1.172,1.048-2.296,1.706-3.361c0.327-0.53,1.05-0.651,1.554-0.285l3.681,2.674
	C62.93,67.315,63.033,67.923,62.753,68.402z M60.91,73.079c-0.141,0.639-0.244,1.291-0.307,1.956
	c-0.053,0.564-0.505,1.005-1.071,1.005h-4.556c-0.614,0-1.118-0.515-1.074-1.127c0.092-1.28,0.287-2.531,0.582-3.743
	c0.147-0.605,0.797-0.944,1.389-0.752l4.349,1.413C60.744,72,61.028,72.543,60.91,73.079z M60.602,78.134
	c0.063,0.664,0.165,1.317,0.307,1.955c0.119,0.536-0.165,1.079-0.688,1.249l-4.349,1.413c-0.593,0.193-1.242-0.146-1.389-0.752
	c-0.295-1.213-0.49-2.464-0.582-3.743c-0.044-0.612,0.461-1.127,1.074-1.127l4.556,0C60.098,77.129,60.549,77.57,60.602,78.134z
	 M61.861,82.997c0.262,0.61,0.559,1.201,0.892,1.769c0.28,0.479,0.177,1.087-0.272,1.413L58.8,88.854
	c-0.504,0.366-1.226,0.245-1.553-0.285c-0.658-1.065-1.228-2.189-1.706-3.361c-0.235-0.577,0.09-1.233,0.683-1.425l4.321-1.404
	C61.078,82.205,61.639,82.482,61.861,82.997z M64.565,87.234c0.482,0.545,1,1.056,1.551,1.532c0.336,0.29,0.407,0.781,0.146,1.14
	l-2.941,4.047c-0.284,0.391-0.845,0.473-1.216,0.165c-1.034-0.857-1.991-1.803-2.859-2.827c-0.403-0.476-0.296-1.2,0.208-1.567
	l3.675-2.67C63.58,86.727,64.196,86.816,64.565,87.234z M68.263,90.345c0.678,0.409,1.39,0.766,2.129,1.073
	c0.41,0.171,0.63,0.616,0.493,1.039l-1.468,4.518c-0.193,0.593-0.848,0.918-1.425,0.683c-1.172-0.478-2.297-1.048-3.362-1.706
	c-0.53-0.327-0.651-1.05-0.285-1.553l2.79-3.84C67.396,90.199,67.883,90.116,68.263,90.345z M73.109,92.289
	c0.638,0.141,1.291,0.244,1.955,0.307c0.564,0.053,1.005,0.505,1.005,1.071v4.538c0,0.623-0.523,1.135-1.144,1.09
	c-1.274-0.092-2.519-0.287-3.727-0.58c-0.606-0.147-0.944-0.797-0.752-1.389l1.413-4.349C72.03,92.454,72.572,92.17,73.109,92.289z
	 M78.163,92.596c0.664-0.063,1.317-0.165,1.956-0.307c0.537-0.119,1.079,0.166,1.249,0.688l1.413,4.349
	c0.193,0.593-0.146,1.242-0.752,1.389c-1.208,0.294-2.453,0.488-3.727,0.58c-0.621,0.045-1.144-0.467-1.144-1.09l0-4.538
	C77.158,93.1,77.6,92.649,78.163,92.596z M83.027,91.337c0.61-0.262,1.201-0.559,1.769-0.891c0.479-0.28,1.088-0.177,1.414,0.272
	l2.674,3.681c0.366,0.504,0.245,1.226-0.285,1.554c-1.065,0.658-2.19,1.228-3.362,1.706c-0.577,0.235-1.233-0.09-1.425-0.683
	l-1.404-4.321C82.234,92.12,82.512,91.559,83.027,91.337z M87.26,88.636c0.497-0.44,0.967-0.909,1.406-1.406
	c0.367-0.416,0.979-0.505,1.428-0.179l3.679,2.673c0.504,0.366,0.611,1.091,0.208,1.567c-0.813,0.958-1.702,1.848-2.661,2.661
	c-0.476,0.403-1.2,0.296-1.567-0.208l-2.673-3.679C86.756,89.616,86.845,89.004,87.26,88.636z M90.475,84.766
	c0.333-0.568,0.629-1.159,0.892-1.769c0.222-0.515,0.783-0.793,1.317-0.619l4.321,1.404c0.593,0.193,0.918,0.848,0.683,1.425
	c-0.478,1.172-1.048,2.296-1.706,3.361c-0.327,0.53-1.05,0.651-1.553,0.285l-3.681-2.674C90.298,85.853,90.195,85.245,90.475,84.766
	z M92.318,80.089c0.141-0.638,0.244-1.291,0.307-1.955c0.053-0.564,0.505-1.005,1.071-1.005l4.556,0
	c0.614,0,1.118,0.515,1.074,1.127c-0.092,1.28-0.287,2.53-0.581,3.743c-0.147,0.606-0.797,0.944-1.389,0.752l-4.349-1.413
	C92.484,81.168,92.2,80.626,92.318,80.089z M92.625,75.035c-0.063-0.664-0.165-1.317-0.307-1.956
	C92.2,72.543,92.484,72,93.007,71.83l4.349-1.413c0.593-0.193,1.242,0.146,1.389,0.752c0.295,1.213,0.49,2.464,0.581,3.743
	c0.044,0.612-0.461,1.127-1.074,1.127h-4.555C93.13,76.04,92.678,75.598,92.625,75.035z M91.367,70.171
	c-0.262-0.61-0.559-1.201-0.892-1.769c-0.28-0.479-0.177-1.087,0.272-1.413l3.681-2.674c0.504-0.366,1.226-0.245,1.553,0.285
	c0.658,1.065,1.228,2.19,1.706,3.361c0.235,0.577-0.09,1.233-0.683,1.425l-4.322,1.404C92.15,70.964,91.588,70.686,91.367,70.171z
	 M97.079,62.388l3.653-2.654c0.5-0.363,1.214-0.246,1.55,0.273c1.126,1.737,2.079,3.594,2.838,5.548
	c0.224,0.578-0.1,1.227-0.689,1.418l-4.297,1.396c-0.552,0.179-1.133-0.111-1.349-0.649c-0.542-1.351-1.203-2.641-1.972-3.857
	C96.503,63.372,96.609,62.729,97.079,62.388z M94.953,61.308c-0.927-1.111-1.952-2.136-3.063-3.063
	c-0.445-0.372-0.542-1.014-0.201-1.484l2.656-3.656c0.364-0.501,1.081-0.609,1.561-0.217c1.612,1.315,3.088,2.791,4.403,4.403
	c0.392,0.48,0.284,1.197-0.217,1.561l-3.656,2.657C95.968,61.85,95.325,61.754,94.953,61.308z M89.335,56.385
	c-1.216-0.769-2.506-1.43-3.857-1.972c-0.538-0.216-0.829-0.797-0.65-1.349l1.396-4.297c0.191-0.589,0.841-0.913,1.418-0.689
	c1.954,0.759,3.811,1.712,5.548,2.837c0.519,0.336,0.637,1.05,0.273,1.55l-2.654,3.653C90.469,56.589,89.826,56.695,89.335,56.385z
	 M82.475,53.434c-1.383-0.35-2.813-0.577-4.279-0.673c-0.579-0.038-1.037-0.502-1.037-1.082l0-4.519
	c0-0.619,0.517-1.127,1.135-1.094c2.117,0.114,4.177,0.443,6.159,0.968c0.598,0.158,0.931,0.801,0.74,1.39l-1.398,4.301
	C83.614,53.276,83.038,53.576,82.475,53.434z M75.033,52.761c-1.466,0.096-2.897,0.324-4.279,0.673
	c-0.563,0.142-1.14-0.158-1.319-0.71l-1.397-4.301c-0.191-0.589,0.142-1.231,0.74-1.39c1.981-0.525,4.042-0.853,6.158-0.968
	c0.618-0.033,1.135,0.475,1.135,1.094v4.519C76.069,52.259,75.612,52.723,75.033,52.761z M67.75,54.413
	c-1.351,0.542-2.641,1.203-3.857,1.972c-0.491,0.31-1.134,0.204-1.475-0.266l-2.654-3.653c-0.363-0.5-0.246-1.214,0.273-1.55
	c1.737-1.125,3.594-2.079,5.548-2.837c0.578-0.224,1.227,0.1,1.418,0.689l1.397,4.297C68.579,53.616,68.288,54.197,67.75,54.413z
	 M61.338,58.245c-1.111,0.927-2.136,1.952-3.063,3.063c-0.372,0.445-1.014,0.542-1.484,0.201l-3.656-2.657
	c-0.501-0.364-0.609-1.081-0.217-1.561c1.315-1.612,2.791-3.088,4.404-4.404c0.48-0.392,1.197-0.284,1.561,0.217l2.656,3.656
	C61.88,57.231,61.784,57.874,61.338,58.245z M56.415,63.863c-0.768,1.216-1.43,2.506-1.972,3.857
	c-0.216,0.538-0.797,0.829-1.349,0.649l-4.297-1.396c-0.589-0.191-0.913-0.841-0.689-1.418c0.759-1.954,1.712-3.811,2.838-5.548
	c0.336-0.519,1.05-0.637,1.55-0.273l3.653,2.654C56.619,62.73,56.725,63.372,56.415,63.863z M53.464,70.724
	c-0.351,1.388-0.579,2.823-0.675,4.294c-0.037,0.571-0.494,1.022-1.066,1.022h-4.551c-0.61,0-1.111-0.509-1.078-1.118
	c0.113-2.122,0.442-4.188,0.969-6.175c0.158-0.598,0.801-0.931,1.39-0.74l4.301,1.398C53.307,69.584,53.607,70.161,53.464,70.724z
	 M52.789,78.15c0.095,1.471,0.323,2.907,0.675,4.294c0.142,0.563-0.158,1.14-0.71,1.319l-4.301,1.397
	c-0.589,0.191-1.231-0.142-1.39-0.74c-0.526-1.987-0.855-4.052-0.969-6.175c-0.033-0.609,0.468-1.118,1.078-1.118h4.551
	C52.296,77.129,52.753,77.58,52.789,78.15z M54.443,85.448c0.542,1.351,1.203,2.64,1.972,3.857c0.31,0.491,0.204,1.134-0.266,1.475
	l-3.653,2.654c-0.5,0.363-1.214,0.246-1.55-0.273c-1.125-1.737-2.079-3.594-2.838-5.548c-0.224-0.578,0.1-1.227,0.689-1.418
	l4.298-1.396C53.646,84.62,54.227,84.91,54.443,85.448z M58.275,91.86c0.927,1.111,1.952,2.136,3.063,3.063
	c0.445,0.372,0.542,1.014,0.201,1.484l-2.656,3.656c-0.364,0.501-1.081,0.609-1.561,0.217c-1.613-1.315-3.089-2.791-4.404-4.404
	c-0.391-0.48-0.284-1.197,0.217-1.561l3.656-2.656C57.261,91.318,57.903,91.414,58.275,91.86z M63.893,96.783
	c1.216,0.768,2.506,1.43,3.857,1.972c0.538,0.216,0.829,0.797,0.65,1.349l-1.396,4.297c-0.191,0.589-0.841,0.913-1.418,0.689
	c-1.954-0.759-3.811-1.712-5.548-2.837c-0.519-0.336-0.637-1.05-0.273-1.55l2.654-3.653C62.76,96.58,63.402,96.473,63.893,96.783z
	 M70.753,99.734c1.383,0.35,2.813,0.577,4.279,0.673c0.579,0.038,1.037,0.502,1.037,1.082v4.519c0,0.619-0.517,1.127-1.135,1.094
	c-2.116-0.114-4.177-0.443-6.158-0.968c-0.598-0.158-0.931-0.801-0.74-1.39l1.397-4.301C69.613,99.891,70.19,99.591,70.753,99.734z
	 M78.195,100.407c1.466-0.096,2.897-0.324,4.279-0.673c0.563-0.142,1.14,0.158,1.319,0.71l1.398,4.301
	c0.191,0.589-0.141,1.231-0.74,1.39c-1.982,0.525-4.042,0.853-6.159,0.968c-0.618,0.033-1.135-0.475-1.135-1.094v-4.519
	C77.158,100.909,77.616,100.445,78.195,100.407z M85.478,98.755c1.351-0.542,2.64-1.203,3.857-1.972
	c0.491-0.31,1.134-0.204,1.475,0.267l2.654,3.653c0.363,0.5,0.246,1.214-0.273,1.55c-1.737,1.125-3.594,2.079-5.548,2.837
	c-0.578,0.224-1.227-0.1-1.418-0.689l-1.396-4.297C84.649,99.552,84.94,98.971,85.478,98.755z M91.89,94.923
	c1.111-0.927,2.136-1.952,3.063-3.063c0.372-0.445,1.014-0.542,1.484-0.201l3.656,2.656c0.501,0.364,0.609,1.081,0.217,1.561
	c-1.315,1.612-2.791,3.088-4.403,4.404c-0.48,0.392-1.197,0.284-1.561-0.217l-2.656-3.656C91.348,95.937,91.444,95.295,91.89,94.923
	z M96.813,89.305c0.769-1.216,1.43-2.506,1.972-3.856c0.216-0.538,0.797-0.829,1.349-0.649l4.297,1.396
	c0.589,0.191,0.913,0.841,0.689,1.418c-0.759,1.954-1.712,3.811-2.837,5.548c-0.336,0.519-1.05,0.637-1.55,0.273l-3.653-2.654
	C96.609,90.439,96.503,89.796,96.813,89.305z M99.764,82.445c0.351-1.388,0.579-2.823,0.674-4.295
	c0.037-0.571,0.494-1.022,1.066-1.022h4.551c0.61,0,1.111,0.509,1.078,1.118c-0.113,2.122-0.442,4.188-0.968,6.175
	c-0.158,0.598-0.801,0.931-1.39,0.74l-4.301-1.397C99.922,83.585,99.622,83.008,99.764,82.445z M100.438,75.018
	c-0.095-1.471-0.323-2.907-0.674-4.295c-0.142-0.563,0.158-1.14,0.71-1.319l4.301-1.398c0.589-0.191,1.231,0.141,1.39,0.74
	c0.526,1.987,0.855,4.053,0.968,6.175c0.033,0.609-0.468,1.118-1.078,1.118h-4.551C100.932,76.04,100.475,75.589,100.438,75.018z
	 M106.19,65.303c-0.812-2.121-1.845-4.133-3.072-6.008c-0.32-0.49-0.214-1.139,0.26-1.483l3.651-2.653
	c0.498-0.362,1.206-0.246,1.547,0.267c1.595,2.401,2.926,4.991,3.953,7.729c0.217,0.577-0.106,1.222-0.693,1.412l-4.295,1.395
	C106.985,66.143,106.399,65.848,106.19,65.303z M101.25,56.721c-1.418-1.755-3.018-3.355-4.773-4.773
	c-0.454-0.367-0.553-1.016-0.209-1.489l2.655-3.654c0.363-0.499,1.074-0.607,1.556-0.222c2.268,1.808,4.328,3.868,6.136,6.136
	c0.384,0.482,0.276,1.194-0.222,1.556l-3.654,2.655C102.266,57.274,101.617,57.175,101.25,56.721z M93.903,50.08
	c-1.875-1.227-3.887-2.26-6.008-3.072c-0.545-0.209-0.84-0.796-0.66-1.351l1.395-4.295c0.191-0.587,0.835-0.909,1.412-0.693
	c3.095,1.161,5.999,2.709,8.657,4.589l-3.314,4.562C95.042,50.294,94.392,50.401,93.903,50.08z M84.874,46.018
	c-2.142-0.578-4.374-0.934-6.668-1.048c-0.584-0.029-1.047-0.496-1.047-1.081v-4.517c0-0.616,0.513-1.121,1.128-1.095
	c2.958,0.126,5.831,0.585,8.58,1.347c0.594,0.165,0.923,0.803,0.732,1.389l-1.397,4.299C86.021,45.869,85.438,46.171,84.874,46.018z
	 M77.158,36.104v-4.513c0-0.615,0.512-1.12,1.127-1.098c3.796,0.135,7.479,0.725,10.99,1.727c0.592,0.169,0.919,0.806,0.729,1.391
	l-1.395,4.293c-0.181,0.558-0.769,0.862-1.334,0.703c-2.9-0.814-5.936-1.299-9.063-1.423C77.626,37.161,77.158,36.691,77.158,36.104
	z M75.015,37.185c-3.127,0.124-6.162,0.609-9.062,1.423c-0.565,0.159-1.153-0.145-1.334-0.703l-1.395-4.293
	c-0.19-0.585,0.137-1.223,0.729-1.391c3.511-1.002,7.193-1.592,10.99-1.727c0.615-0.022,1.127,0.483,1.127,1.098v4.513
	C76.069,36.691,75.602,37.161,75.015,37.185z M76.069,39.373l0,4.517c0,0.584-0.463,1.052-1.047,1.081
	c-2.295,0.113-4.526,0.469-6.668,1.048c-0.564,0.152-1.147-0.15-1.328-0.706l-1.397-4.299c-0.19-0.586,0.139-1.224,0.732-1.389
	c2.749-0.762,5.622-1.221,8.58-1.347C75.557,38.251,76.069,38.757,76.069,39.373z M65.333,47.008
	c-2.121,0.812-4.133,1.845-6.009,3.072c-0.49,0.32-1.139,0.214-1.483-0.26l-2.653-3.651c-0.362-0.498-0.246-1.206,0.267-1.547
	c2.401-1.595,4.991-2.925,7.729-3.953c0.577-0.217,1.222,0.106,1.412,0.693l1.395,4.295C66.173,46.213,65.879,46.8,65.333,47.008z
	 M56.751,51.948c-1.755,1.418-3.356,3.018-4.773,4.773c-0.367,0.454-1.016,0.553-1.488,0.209l-3.654-2.655
	c-0.499-0.363-0.607-1.074-0.222-1.556c1.808-2.268,3.868-4.328,6.136-6.136c0.482-0.384,1.194-0.276,1.556,0.222l2.655,3.654
	C57.304,50.932,57.205,51.581,56.751,51.948z M50.11,59.295c-1.227,1.875-2.26,3.887-3.072,6.008
	c-0.209,0.545-0.796,0.84-1.351,0.66l-4.295-1.396c-0.587-0.191-0.909-0.835-0.693-1.412c1.027-2.738,2.358-5.328,3.953-7.729
	c0.341-0.513,1.049-0.628,1.547-0.267l3.651,2.653C50.324,58.156,50.43,58.805,50.11,59.295z M46.048,68.324
	c-0.58,2.147-0.936,4.383-1.048,6.684c-0.028,0.575-0.489,1.032-1.065,1.032h-4.549c-0.607,0-1.105-0.505-1.079-1.112
	c0.126-2.964,0.585-5.842,1.348-8.596c0.165-0.594,0.803-0.923,1.389-0.733l4.299,1.397C45.899,67.177,46.201,67.76,46.048,68.324z
	 M36.149,76.04h-4.544c-0.606,0-1.104-0.504-1.083-1.11c0.134-3.802,0.724-7.49,1.727-11.006c0.169-0.592,0.806-0.919,1.391-0.729
	l4.293,1.395c0.558,0.181,0.862,0.769,0.703,1.334c-0.815,2.905-1.3,5.946-1.424,9.078C37.191,75.579,36.728,76.04,36.149,76.04z
	 M37.214,78.167c0.123,3.132,0.608,6.173,1.423,9.078c0.159,0.565-0.145,1.153-0.703,1.334l-4.293,1.395
	c-0.585,0.19-1.223-0.137-1.391-0.729c-1.003-3.516-1.593-7.204-1.727-11.006c-0.021-0.606,0.476-1.11,1.083-1.11h4.544
	C36.728,77.129,37.191,77.589,37.214,78.167z M39.386,77.129l4.549,0c0.576,0,1.037,0.457,1.065,1.032
	c0.113,2.3,0.469,4.537,1.048,6.683c0.152,0.564-0.15,1.147-0.706,1.328l-4.299,1.397c-0.586,0.19-1.224-0.139-1.389-0.733
	c-0.763-2.754-1.222-5.632-1.348-8.596C38.281,77.634,38.779,77.129,39.386,77.129z M47.038,87.865
	c0.812,2.121,1.845,4.133,3.072,6.008c0.32,0.49,0.214,1.139-0.26,1.483l-3.652,2.653c-0.498,0.362-1.206,0.246-1.547-0.267
	c-1.595-2.401-2.926-4.991-3.952-7.729c-0.217-0.577,0.106-1.221,0.693-1.412l4.295-1.396C46.243,87.025,46.83,87.32,47.038,87.865z
	 M51.978,96.447c1.417,1.755,3.018,3.355,4.773,4.773c0.454,0.367,0.553,1.016,0.209,1.489l-2.655,3.655
	c-0.362,0.499-1.074,0.607-1.556,0.223c-2.269-1.808-4.328-3.868-6.136-6.136c-0.384-0.482-0.276-1.194,0.223-1.556l3.655-2.655
	C50.962,95.894,51.611,95.993,51.978,96.447z M59.325,103.088c1.875,1.227,3.887,2.26,6.008,3.072
	c0.545,0.209,0.84,0.796,0.66,1.351l-1.395,4.295c-0.191,0.587-0.835,0.909-1.412,0.693c-2.738-1.027-5.328-2.358-7.729-3.953
	c-0.513-0.341-0.629-1.049-0.267-1.547l2.653-3.651C58.187,102.874,58.836,102.768,59.325,103.088z M68.354,107.15
	c2.142,0.578,4.373,0.934,6.668,1.048c0.584,0.029,1.047,0.496,1.047,1.081l0,4.517c0,0.616-0.513,1.122-1.128,1.095
	c-2.958-0.126-5.831-0.585-8.579-1.347c-0.594-0.165-0.923-0.803-0.732-1.389l1.397-4.299
	C67.207,107.299,67.79,106.997,68.354,107.15z M76.069,117.064v4.512c0,0.615-0.512,1.12-1.127,1.098
	c-3.796-0.135-7.478-0.725-10.989-1.727c-0.592-0.169-0.919-0.806-0.729-1.391l1.395-4.293c0.181-0.558,0.769-0.862,1.334-0.703
	c2.9,0.814,5.935,1.299,9.062,1.423C75.602,116.007,76.069,116.477,76.069,117.064z M78.212,115.984
	c3.127-0.124,6.162-0.609,9.063-1.423c0.565-0.159,1.153,0.145,1.334,0.703l1.395,4.293c0.19,0.585-0.137,1.223-0.729,1.391
	c-3.511,1.002-7.194,1.592-10.99,1.727c-0.615,0.022-1.127-0.483-1.127-1.098v-4.512C77.158,116.477,77.626,116.007,78.212,115.984z
	 M77.158,113.795l0-4.517c0-0.584,0.463-1.052,1.047-1.081c2.295-0.113,4.527-0.469,6.669-1.048c0.564-0.152,1.147,0.15,1.328,0.706
	l1.397,4.299c0.19,0.586-0.139,1.224-0.732,1.389c-2.749,0.762-5.622,1.221-8.58,1.347
	C77.671,114.917,77.158,114.412,77.158,113.795z M87.895,106.16c2.121-0.812,4.133-1.845,6.008-3.072
	c0.489-0.32,1.139-0.214,1.482,0.26l2.653,3.651c0.362,0.498,0.246,1.206-0.267,1.547c-2.401,1.595-4.991,2.926-7.729,3.953
	c-0.577,0.217-1.222-0.106-1.412-0.693l-1.395-4.295C87.055,106.955,87.35,106.368,87.895,106.16z M96.477,101.22
	c1.755-1.417,3.355-3.018,4.773-4.773c0.367-0.454,1.016-0.553,1.488-0.209l3.654,2.655c0.499,0.363,0.607,1.074,0.222,1.556
	c-1.808,2.269-3.868,4.328-6.136,6.136c-0.482,0.384-1.194,0.277-1.556-0.222l-2.655-3.655
	C95.924,102.236,96.023,101.587,96.477,101.22z M103.118,93.873c1.227-1.875,2.26-3.887,3.072-6.008
	c0.209-0.545,0.796-0.84,1.351-0.66l4.295,1.395c0.587,0.191,0.909,0.835,0.693,1.412c-1.027,2.738-2.358,5.328-3.953,7.729
	c-0.341,0.513-1.049,0.629-1.547,0.267l-3.651-2.653C102.904,95.012,102.797,94.363,103.118,93.873z M107.179,84.844
	c0.58-2.146,0.936-4.383,1.048-6.683c0.028-0.575,0.489-1.032,1.065-1.032l4.549,0c0.607,0,1.105,0.505,1.079,1.112
	c-0.125,2.963-0.584,5.842-1.348,8.596c-0.165,0.594-0.803,0.923-1.389,0.732l-4.299-1.397
	C107.329,85.991,107.027,85.408,107.179,84.844z M117.079,77.129h4.545c0.606,0,1.104,0.504,1.083,1.11
	c-0.134,3.802-0.724,7.49-1.728,11.006c-0.169,0.592-0.806,0.919-1.391,0.729l-4.293-1.395c-0.558-0.181-0.862-0.769-0.703-1.334
	c0.815-2.905,1.3-5.945,1.424-9.077C116.037,77.589,116.5,77.129,117.079,77.129z M116.014,75.001
	c-0.123-3.132-0.609-6.173-1.424-9.078c-0.159-0.565,0.145-1.153,0.703-1.334l4.293-1.395c0.585-0.19,1.223,0.137,1.391,0.729
	c1.004,3.516,1.594,7.204,1.728,11.006c0.021,0.606-0.476,1.11-1.083,1.11h-4.545C116.5,76.04,116.037,75.579,116.014,75.001z
	 M107.545,52.139c-1.904-2.404-4.082-4.582-6.486-6.486c-0.46-0.364-0.56-1.018-0.215-1.492l2.653-3.652
	c0.361-0.497,1.069-0.605,1.553-0.226c2.926,2.297,5.568,4.939,7.865,7.865c0.38,0.484,0.272,1.191-0.226,1.553l-3.652,2.653
	C108.563,52.699,107.909,52.599,107.545,52.139z M98.471,43.781c-2.531-1.692-5.267-3.098-8.164-4.174
	c-0.55-0.204-0.847-0.795-0.666-1.353l1.395-4.294c0.19-0.585,0.83-0.906,1.407-0.695c3.522,1.291,6.843,2.999,9.905,5.065
	c0.509,0.343,0.623,1.048,0.262,1.544l-2.652,3.65C99.614,44.001,98.96,44.108,98.471,43.781z M92.046,30.852l1.394-4.291
	c0.19-0.584,0.829-0.906,1.407-0.697c4.305,1.552,8.356,3.636,12.076,6.175c0.506,0.346,0.62,1.049,0.26,1.545l-2.65,3.647
	c-0.347,0.477-1.004,0.584-1.492,0.253c-3.186-2.16-6.649-3.941-10.323-5.278C92.164,32.005,91.864,31.411,92.046,30.852z
	 M89.676,31.202c-3.658-1.053-7.498-1.669-11.459-1.801c-0.589-0.02-1.059-0.492-1.059-1.081v-4.512
	c0-0.614,0.509-1.116,1.122-1.098c4.637,0.141,9.13,0.865,13.404,2.11c0.589,0.172,0.914,0.806,0.725,1.389l-1.394,4.29
	C90.833,31.06,90.242,31.365,89.676,31.202z M75.01,29.401c-3.96,0.132-7.8,0.748-11.458,1.801
	c-0.566,0.163-1.157-0.142-1.339-0.702l-1.394-4.291c-0.19-0.583,0.136-1.218,0.725-1.389c4.274-1.245,8.766-1.969,13.403-2.11
	c0.613-0.019,1.122,0.484,1.122,1.098v4.512C76.069,28.909,75.599,29.381,75.01,29.401z M60.511,32.206
	c-3.675,1.338-7.137,3.118-10.323,5.278c-0.488,0.331-1.145,0.224-1.492-0.253l-2.65-3.647c-0.36-0.496-0.247-1.2,0.26-1.545
	c3.72-2.539,7.771-4.623,12.076-6.175c0.578-0.208,1.217,0.113,1.407,0.697l1.394,4.291C61.364,31.411,61.064,32.005,60.511,32.206z
	 M62.192,33.96l1.395,4.294c0.181,0.558-0.116,1.149-0.666,1.353c-2.897,1.076-5.633,2.482-8.164,4.174
	c-0.489,0.327-1.143,0.22-1.488-0.255l-2.652-3.65c-0.361-0.496-0.246-1.201,0.262-1.544c3.062-2.067,6.383-3.774,9.905-5.065
	C61.362,33.054,62.002,33.375,62.192,33.96z M52.169,45.653c-2.404,1.904-4.582,4.082-6.486,6.486
	c-0.364,0.46-1.018,0.56-1.492,0.215l-3.652-2.653c-0.497-0.361-0.605-1.069-0.226-1.553c2.297-2.926,4.939-5.568,7.865-7.865
	c0.484-0.38,1.191-0.272,1.553,0.226l2.653,3.651C52.729,44.635,52.629,45.289,52.169,45.653z M43.811,54.726
	c-1.693,2.531-3.099,5.267-4.175,8.164c-0.204,0.55-0.795,0.847-1.353,0.666l-4.293-1.395c-0.585-0.19-0.906-0.83-0.695-1.407
	c1.291-3.522,2.999-6.844,5.066-9.906c0.343-0.509,1.048-0.623,1.544-0.262l3.65,2.652C44.031,53.584,44.138,54.238,43.811,54.726z
	 M30.882,61.152l-4.291-1.394c-0.584-0.19-0.905-0.829-0.697-1.407c1.552-4.305,3.636-8.356,6.175-12.076
	c0.346-0.506,1.049-0.62,1.545-0.26l3.648,2.65c0.477,0.347,0.584,1.004,0.253,1.492c-2.161,3.186-3.941,6.648-5.278,10.323
	C32.035,61.034,31.441,61.334,30.882,61.152z M31.232,63.522c-1.055,3.663-1.671,7.508-1.802,11.474
	c-0.019,0.58-0.485,1.043-1.065,1.043h-4.528c-0.614,0-1.116-0.509-1.098-1.122c0.141-4.637,0.865-9.13,2.11-13.404
	c0.172-0.589,0.806-0.914,1.389-0.725l4.291,1.394C31.09,62.365,31.395,62.956,31.232,63.522z M29.43,78.172
	c0.131,3.966,0.747,7.811,1.802,11.474c0.163,0.566-0.142,1.157-0.702,1.339l-4.291,1.394c-0.583,0.19-1.218-0.136-1.389-0.725
	c-1.245-4.274-1.97-8.766-2.11-13.403c-0.019-0.613,0.484-1.122,1.098-1.122h4.528C28.946,77.129,29.411,77.592,29.43,78.172z
	 M32.236,92.687c1.338,3.675,3.118,7.137,5.278,10.324c0.331,0.488,0.224,1.145-0.253,1.492l-3.648,2.65
	c-0.496,0.36-1.2,0.247-1.545-0.26c-2.539-3.72-4.623-7.771-6.176-12.076c-0.208-0.578,0.113-1.217,0.697-1.407l4.291-1.394
	C31.441,91.834,32.035,92.134,32.236,92.687z M33.99,91.006l4.293-1.395c0.558-0.181,1.149,0.116,1.353,0.666
	c1.076,2.897,2.482,5.633,4.175,8.165c0.327,0.489,0.22,1.142-0.255,1.488l-3.65,2.652c-0.496,0.361-1.201,0.246-1.544-0.262
	c-2.067-3.062-3.775-6.383-5.066-9.906C33.084,91.836,33.405,91.196,33.99,91.006z M45.683,101.029
	c1.904,2.404,4.082,4.582,6.486,6.486c0.46,0.364,0.56,1.018,0.215,1.492l-2.653,3.651c-0.361,0.497-1.069,0.605-1.553,0.226
	c-2.926-2.297-5.568-4.939-7.865-7.865c-0.38-0.484-0.272-1.191,0.226-1.553l3.651-2.653
	C44.665,100.469,45.319,100.569,45.683,101.029z M54.757,109.387c2.531,1.692,5.268,3.098,8.164,4.174
	c0.55,0.204,0.847,0.795,0.666,1.353l-1.395,4.294c-0.19,0.585-0.83,0.906-1.407,0.695c-3.522-1.291-6.843-2.999-9.905-5.066
	c-0.509-0.343-0.623-1.048-0.262-1.544l2.652-3.65C53.614,109.167,54.268,109.061,54.757,109.387z M61.182,122.316l-1.394,4.291
	c-0.19,0.584-0.829,0.906-1.407,0.697c-4.305-1.552-8.356-3.636-12.076-6.175c-0.506-0.346-0.62-1.049-0.26-1.545l2.65-3.648
	c0.347-0.477,1.004-0.584,1.492-0.253c3.187,2.161,6.649,3.941,10.324,5.278C61.064,121.163,61.364,121.757,61.182,122.316z
	 M63.552,121.966c3.658,1.053,7.498,1.669,11.458,1.801c0.589,0.02,1.059,0.492,1.059,1.081v4.513c0,0.614-0.509,1.116-1.122,1.098
	c-4.637-0.141-9.129-0.865-13.403-2.11c-0.589-0.172-0.914-0.806-0.725-1.389l1.394-4.291
	C62.395,122.108,62.986,121.803,63.552,121.966z M78.217,123.767c3.961-0.132,7.801-0.748,11.459-1.801
	c0.566-0.163,1.157,0.142,1.339,0.702l1.394,4.291c0.19,0.583-0.136,1.218-0.725,1.389c-4.274,1.245-8.767,1.969-13.404,2.11
	c-0.613,0.019-1.122-0.484-1.122-1.098v-4.513C77.158,124.259,77.629,123.787,78.217,123.767z M92.717,120.962
	c3.675-1.337,7.137-3.118,10.324-5.278c0.488-0.331,1.145-0.224,1.492,0.253l2.65,3.648c0.36,0.496,0.247,1.2-0.26,1.545
	c-3.72,2.539-7.77,4.623-12.076,6.175c-0.578,0.208-1.217-0.113-1.407-0.697l-1.394-4.291
	C91.864,121.757,92.164,121.163,92.717,120.962z M91.036,119.208l-1.395-4.293c-0.181-0.558,0.116-1.149,0.666-1.353
	c2.897-1.076,5.633-2.482,8.164-4.174c0.489-0.327,1.142-0.22,1.488,0.255l2.652,3.65c0.361,0.496,0.246,1.201-0.262,1.544
	c-3.062,2.067-6.383,3.774-9.906,5.066C91.866,120.114,91.226,119.793,91.036,119.208z M101.059,107.515
	c2.404-1.904,4.582-4.082,6.486-6.486c0.364-0.46,1.018-0.56,1.492-0.215l3.651,2.653c0.497,0.361,0.605,1.069,0.226,1.553
	c-2.297,2.926-4.939,5.568-7.865,7.865c-0.484,0.38-1.191,0.272-1.553-0.226l-2.653-3.651
	C100.5,108.533,100.599,107.879,101.059,107.515z M109.417,98.442c1.692-2.531,3.099-5.268,4.175-8.165
	c0.204-0.55,0.795-0.847,1.353-0.666l4.294,1.395c0.585,0.19,0.906,0.83,0.695,1.407c-1.291,3.523-2.999,6.844-5.066,9.906
	c-0.343,0.509-1.048,0.623-1.544,0.262l-3.65-2.652C109.197,99.584,109.09,98.93,109.417,98.442z M122.347,92.016l4.291,1.394
	c0.584,0.19,0.905,0.829,0.697,1.407c-1.552,4.305-3.636,8.356-6.175,12.076c-0.346,0.506-1.049,0.62-1.545,0.26l-3.648-2.65
	c-0.477-0.347-0.584-1.004-0.253-1.492c2.161-3.187,3.941-6.649,5.278-10.324C121.193,92.134,121.787,91.834,122.347,92.016z
	 M121.996,89.646c1.054-3.662,1.671-7.508,1.802-11.474c0.019-0.58,0.485-1.043,1.065-1.043h4.528c0.614,0,1.116,0.509,1.098,1.122
	c-0.141,4.637-0.865,9.129-2.11,13.403c-0.172,0.589-0.806,0.914-1.389,0.725l-4.291-1.394
	C122.138,90.803,121.833,90.212,121.996,89.646z M123.798,74.996c-0.131-3.966-0.747-7.811-1.802-11.474
	c-0.163-0.566,0.142-1.157,0.702-1.339l4.291-1.394c0.583-0.19,1.218,0.136,1.389,0.725c1.245,4.274,1.969,8.767,2.11,13.404
	c0.019,0.613-0.484,1.122-1.098,1.122h-4.528C124.283,76.04,123.817,75.576,123.798,74.996z M118.98,45.13l-3.647,2.65
	c-0.476,0.346-1.133,0.245-1.495-0.219c-2.388-3.056-5.145-5.812-8.201-8.201c-0.464-0.362-0.565-1.019-0.219-1.495l2.65-3.647
	c0.361-0.497,1.068-0.605,1.553-0.229c3.583,2.782,6.806,6.006,9.588,9.588C119.585,44.063,119.477,44.769,118.98,45.13z
	 M45.16,34.218l2.65,3.647c0.346,0.476,0.245,1.133-0.219,1.495c-3.057,2.388-5.812,5.144-8.201,8.201
	c-0.362,0.464-1.019,0.565-1.495,0.219l-3.647-2.65c-0.497-0.361-0.605-1.068-0.228-1.553c2.783-3.583,6.006-6.806,9.588-9.588
	C44.093,33.613,44.8,33.721,45.16,34.218z M34.248,108.038l3.647-2.65c0.476-0.346,1.133-0.245,1.495,0.219
	c2.388,3.056,5.144,5.812,8.201,8.201c0.464,0.362,0.565,1.019,0.219,1.495l-2.65,3.648c-0.361,0.497-1.068,0.605-1.553,0.228
	c-3.583-2.782-6.806-6.006-9.588-9.588C33.643,109.105,33.751,108.399,34.248,108.038z M108.068,118.95l-2.65-3.647
	c-0.346-0.476-0.245-1.133,0.219-1.495c3.057-2.388,5.812-5.144,8.201-8.201c0.362-0.464,1.019-0.565,1.495-0.219l3.647,2.65
	c0.497,0.361,0.605,1.068,0.229,1.553c-2.782,3.583-6.006,6.806-9.588,9.588C109.135,119.555,108.429,119.447,108.068,118.95z"/>
</svg>
