<?xml version="1.0" encoding="iso-8859-1"?>
<!-- Generator: Adobe Illustrator 27.5.0, SVG Export Plug-In . SVG Version: 6.00 Build 0)  -->
<svg version="1.1" id="shapes" xmlns="http://www.w3.org/2000/svg" xmlns:xlink="http://www.w3.org/1999/xlink" x="0px" y="0px"
	 width="150px" height="150px" viewBox="0 0 150 150" enable-background="new 0 0 150 150" xml:space="preserve">
<g>
	<path d="M129.35,91.451c-6,8.513-19.125,12.668-29.829,12.772c-5.683,0.097-13.39-1.614-16.122-6.02
		c2.83,17.275,47.078,16.907,48.215-0.943C131.614,95.185,130.801,93.217,129.35,91.451z"/>
	<path d="M123.77,83.54c-6.871,8.477-20.927,15.204-31.441,15.42c-3.668,0.111-7.101-0.756-8.9-2.408
		c1.067,2.755,4.046,4.869,8.507,6.007c11.543,2.879,29.906-1.578,36.877-11.72c2.688-4.124,1.757-8.515-2.59-11.086
		C125.636,80.975,124.816,82.245,123.77,83.54z"/>
	<path d="M86.149,97.262c11.72,4.175,34.303-6.788,39.55-18.251c2.197-4.898-0.021-8.486-5.179-9.484
		c-4.06,10.904-18.398,22.133-28.792,25.201c-3.081,0.865-6.047,1.346-8.709,0.186C83.78,96.012,84.762,96.697,86.149,97.262z"/>
	<path d="M83.501,94.27c2.39,0.944,5.036,0.54,8.004-0.294c8.227-2.376,18.445-9.961,24.084-17.393
		c2.208-2.944,4.272-6.216,4.792-9.772c0.659-5.054-3.482-6.25-7.758-5.507c-2.201,8.405-8.684,17.21-14.88,23.378
		c-3.875,3.788-10.591,9.328-15.567,8.716C82.557,93.769,83.009,94.06,83.501,94.27z"/>
	<path d="M82.373,92.629c2.365,0.246,4.89-0.983,7.268-2.417c7.201-4.565,13.737-12.233,18.123-19.621
		c1.832-3.17,3.297-6.255,4.115-9.551c1.798-7.392-2.151-9.277-8.929-5.349c-0.825,5.53-3.211,11.868-5.845,17.237
		c-1.819,3.703-3.922,7.325-6.264,10.572c-2.305,3.145-6.212,7.99-9.834,8.644C81.414,92.413,81.889,92.564,82.373,92.629z"/>
	<path d="M81.384,91.256c0.879-0.263,1.663-0.744,2.424-1.297c1.128-0.838,2.027-1.694,3.097-2.842
		c3.86-4.242,6.897-9.293,9.497-14.535c2.57-5.212,4.959-11.6,5.754-16.875c1.663-11.727-4.566-8.936-10.056-2.185
		c-0.485,9.707-3.223,21.477-7.332,30.495c-1.238,2.586-3.002,5.99-5.19,7.196C80.137,91.48,80.795,91.428,81.384,91.256z"/>
	<path d="M80.167,89.806c4.527-4.641,7.895-16.439,9.337-23.119c1.182-5.651,1.838-10.253,1.851-15.397
		c-0.033-4.436-0.838-7.268-2.152-7.576c-2.984-0.355-6.718,8.521-8.038,12.332c0.714,8.828,0.626,19.027-0.925,27.767
		c-0.477,2.405-1.074,5.209-2.339,6.79C78.719,91.029,79.574,90.355,80.167,89.806z"/>
	<path d="M61.485,103.319c-12.088,2.994-30.528-1.761-37.607-11.868c-1.451,1.766-2.264,3.734-2.264,5.809
		c1.144,17.864,45.401,18.203,48.214,0.943C68.327,100.529,65.456,102.306,61.485,103.319z"/>
	<path d="M24.205,90.497c6.706,10.403,25.546,14.97,37.085,12.063c4.461-1.138,7.44-3.253,8.508-6.008
		c-1.795,1.652-5.232,2.52-8.9,2.408c-11.481-0.262-28.337-8.441-33.894-19.207C22.841,82.203,21.738,86.444,24.205,90.497z"/>
	<path d="M69.971,95.02c-0.989,0.405-1.996,0.562-3.242,0.57c-1.523,0-3.279-0.286-5.228-0.862
		c-10.383-3.061-24.736-14.298-28.792-25.2c-5.399,1.056-7.428,4.841-5.018,9.836c5.397,10.523,22.053,18.566,33.225,18.813
		c3.628,0.035,7.355-0.542,9.294-3.262C70.131,94.951,70.052,94.986,69.971,95.02z"/>
	<path d="M70.894,93.419c-4.984,0.449-11.518-4.94-15.414-8.742c-6.194-6.169-12.673-14.967-14.875-23.374
		c-4.237-0.726-8.41,0.403-7.758,5.508c0.099,0.814,0.347,1.756,0.645,2.58c0.907,2.501,2.437,4.954,4.147,7.192
		c5.637,7.431,15.861,15.019,24.085,17.393c3.182,0.921,7.115,1.501,9.329-0.578C70.999,93.406,70.947,93.413,70.894,93.419z"/>
	<path d="M71.872,92.075c-3.541-0.939-7.167-5.416-9.487-8.576c-5.539-7.784-10.624-18.525-12.109-27.809
		c-5.665-3.312-10.719-3.04-9.024,4.931c0.788,3.476,2.305,6.662,4.21,9.969c4.384,7.387,10.924,15.058,18.123,19.621
		c2.458,1.511,6.308,3.393,8.634,1.932C72.106,92.126,71.988,92.102,71.872,92.075z"/>
	<path d="M73.224,90.954c-2.003-1.446-3.524-4.353-4.764-6.938c-4.107-9.01-6.85-20.797-7.332-30.495
		c-5.868-7.184-11.857-9.267-9.982,2.653c1.066,6.354,4.198,13.936,7.497,19.901c1.823,3.291,3.7,6.215,5.93,9.006
		c1.469,1.818,3.067,3.56,4.845,4.878c1.13,0.814,2.853,1.874,4.231,1.253C73.504,91.135,73.371,91.055,73.224,90.954z"/>
	<path d="M75.057,90.246c-0.233-0.349-0.414-0.697-0.596-1.107c-0.7-1.662-1.034-3.08-1.474-5.326
		c-1.55-8.738-1.639-18.942-0.925-27.767c-1.37-3.8-4.91-12.594-8.038-12.332c-1.801,0.327-2.326,5.68-2.123,9.513
		c0.295,7.767,2.334,17.211,4.988,24.805c1.466,4.036,3.185,8.338,5.749,11.339c0.637,0.687,1.713,1.737,2.688,1.231
		C75.234,90.494,75.146,90.377,75.057,90.246z"/>
	<path d="M79.47,83.669c0.955-5.077,1.345-11.706,1.336-17.272c-0.004-3.679-0.135-6.998-0.436-10.453
		c-0.263-4.115-1.792-13.647-3.756-13.683c-0.263,0-1.635,0.331-2.856,6.864c-1.36,7.593-1.546,16.204-1.157,24.086
		c0.232,4.289,1.112,14.848,3.582,17.135c0.191,0.139,0.284,0.18,0.431,0.188c0.249-0.008,0.516-0.229,0.712-0.467
		C78.381,88.67,78.901,86.522,79.47,83.669z"/>
</g>
</svg>
