<?xml version="1.0" encoding="iso-8859-1"?>
<!-- Generator: Adobe Illustrator 27.5.0, SVG Export Plug-In . SVG Version: 6.00 Build 0)  -->
<svg version="1.1" id="shapes" xmlns="http://www.w3.org/2000/svg" xmlns:xlink="http://www.w3.org/1999/xlink" x="0px" y="0px"
	 width="150px" height="150px" viewBox="0 0 150 150" enable-background="new 0 0 150 150" xml:space="preserve">
<path d="M130.586,78.753L90.321,58.245c-1.405-0.716-1.332-2.747,0.121-3.36l27.163-11.459c2.183-0.921,0.959-4.204-1.294-3.471
	l-42.973,13.97c-1.5,0.487-2.885-1.001-2.291-2.462l11.104-27.31c0.892-2.195-2.294-3.651-3.37-1.54L58.274,62.877
	c-0.716,1.405-2.747,1.332-3.36-0.121l-11.46-27.163c-0.921-2.183-4.204-0.959-3.471,1.294l13.97,42.973
	c0.488,1.5-1.001,2.885-2.462,2.291l-27.31-11.104c-2.195-0.892-3.651,2.294-1.54,3.37l40.265,20.508
	c1.405,0.716,1.332,2.747-0.121,3.36l-27.163,11.459c-2.183,0.921-0.959,4.204,1.294,3.471l42.973-13.97
	c1.5-0.487,2.885,1.001,2.291,2.462l-11.104,27.31c-0.892,2.195,2.294,3.651,3.37,1.54l20.508-40.265
	c0.716-1.405,2.747-1.332,3.36,0.121l11.459,27.163c0.921,2.183,4.204,0.959,3.471-1.294l-13.97-42.973
	c-0.488-1.5,1.001-2.885,2.462-2.291l27.311,11.104C131.241,83.015,132.698,79.828,130.586,78.753z"/>
</svg>
