<?xml version="1.0" encoding="iso-8859-1"?>
<!-- Generator: Adobe Illustrator 27.5.0, SVG Export Plug-In . SVG Version: 6.00 Build 0)  -->
<svg version="1.1" id="shapes" xmlns="http://www.w3.org/2000/svg" xmlns:xlink="http://www.w3.org/1999/xlink" x="0px" y="0px"
	 width="150px" height="150px" viewBox="0 0 150 150" enable-background="new 0 0 150 150" xml:space="preserve">
<g>
	<path d="M76.489,29.001l-0.404,1.067l1.064-0.211L76.489,29.001z"/>
	<path d="M72.721,35.976l-2.085,1.723l2.293,1.042L72.721,35.976z"/>
	<path d="M81.091,39.056l1.413-2.228l-2.752-0.173L81.091,39.056z"/>
	<path d="M66.228,44.114l0.684,3.282l2.609-2.464L66.228,44.114z"/>
	<path d="M79.783,45.113l-5.06-2.294l0.732,5.134L79.783,45.113z"/>
	<path d="M87.599,46.435l-1.965-3.083l-1.611,3.129L87.599,46.435z"/>
	<path d="M61.738,51.665l0.363,3.498l2.866-2.052L61.738,51.665z"/>
	<path d="M72.485,57.027l2.582-5.975L69.17,52.09L72.485,57.027z"/>
	<path d="M82.453,49.859l-4.91,4.056l5.693,1.943L82.453,49.859z"/>
	<path d="M91.859,54.535l-1.394-2.803l-1.76,2.238L91.859,54.535z"/>
	<path d="M59.878,60.352l-2.977-0.006l1.463,2.964L59.878,60.352z"/>
	<path d="M67.902,64.778l2.65-5.851l-6.423,0.831L67.902,64.778z"/>
	<path d="M80.427,61.281l-5.624-3.32l-0.304,6.724L80.427,61.281z"/>
	<path d="M88.885,61.244l-4.778-2.881l-0.211,5.9L88.885,61.244z"/>
	<path d="M94.752,62.965l1.91-2.734l-3.432-0.017L94.752,62.965z"/>
	<path d="M52.192,68l1.492,3.057l1.696-2.72L52.192,68z"/>
	<path d="M61.184,66.256l-0.126,6.302l5.837-3.569L61.184,66.256z"/>
	<path d="M75.888,68.42l-6.157-2.075l0.813,6.869L75.888,68.42z"/>
	<path d="M77.986,70.614l6.748,0.939l-3.3-6.107L77.986,70.614z"/>
	<path d="M93.383,69.091l-4.717-2.741l-0.324,6.092L93.383,69.091z"/>
	<path d="M100.912,68.523l-3.121-0.73l1.237,3.35L100.912,68.523z"/>
	<path d="M50.506,78.322l-0.675-3.178l-2.441,2.275L50.506,78.322z"/>
	<path d="M61.908,75.87l-6.21-1.331l1.988,5.576L61.908,75.87z"/>
	<path d="M71.009,78.555l-3.979-5.9l-2.267,6.313L71.009,78.555z"/>
	<path d="M77.947,73.466l-5.366,4.159l6.693,2.667L77.947,73.466z"/>
	<path d="M81.741,75.101l4.297,6.048l2.478-6.097L81.741,75.101z"/>
	<path d="M96.225,74.032l-4.422,3.194l5.168,2.892L96.225,74.032z"/>
	<path d="M105.014,75.788l-2.758,0.84l2.165,1.894L105.014,75.788z"/>
	<path d="M45.847,83.341l-3.094,1.313l2.625,1.757L45.847,83.341z"/>
	<path d="M57.054,85.342l-4.379-3.325l-1.296,5.966L57.054,85.342z"/>
	<path d="M66.154,86.639l-3.312-5.534l-3.341,5.862L66.154,86.639z"/>
	<path d="M69.677,82.024l0.946,6.676l5.049-4.441L69.677,82.024z"/>
	<path d="M82.678,88.464l1.061-7.028l-6.261,2.994L82.678,88.464z"/>
	<path d="M87.355,87.748l6.733-1.821l-4.792-4.742L87.355,87.748z"/>
	<path d="M102.109,86.345l-2.853-5.142l-2.979,5.593L102.109,86.345z"/>
	<path d="M108.23,83.075l-1.24,2.968l3.318-0.427L108.23,83.075z"/>
	<path d="M39.635,94.43l2.479-2.101l-3.106-0.809L39.635,94.43z"/>
	<path d="M48.94,88.971l-2.204,5.561l5.639-0.308L48.94,88.971z"/>
	<path d="M62.043,91.226l-6.334-0.483l2.177,5.894L62.043,91.226z"/>
	<path d="M70.397,90.414l-6.809,0.852l4.525,5.479L70.397,90.414z"/>
	<path d="M80.361,93.305l-5.199-4.112l-0.715,6.312L80.361,93.305z"/>
	<path d="M87.657,96.19l0.054-6.85l-5.357,3.408L87.657,96.19z"/>
	<path d="M92.413,90.214l1.288,6.27l5.402-4.727L92.413,90.214z"/>
	<path d="M100.24,92.896l5.44,2.675l0.033-6.163L100.24,92.896z"/>
	<path d="M114.549,93.229l-1.918-2.226l-0.993,3.068L114.549,93.229z"/>
	<path d="M37.405,101.035l-2.378-2.12l-0.575,3.026L37.405,101.035z"/>
	<path d="M45.563,103.867l1.896-5.947l-6.087,1.834L45.563,103.867z"/>
	<path d="M56.753,98.685l-6.084,0.43l3.406,5.273L56.753,98.685z"/>
	<path d="M64.964,104.394l0.235-7.445l-6.544,3.6L64.964,104.394z"/>
	<path d="M73.278,97.107l-5.17,4.301l6.692,2.447L73.278,97.107z"/>
	<path d="M78.088,102.486l6.852,0.286l-3.841-5.715L78.088,102.486z"/>
	<path d="M88.814,103.955l5.442-3.738l-6.184-2.542L88.814,103.955z"/>
	<path d="M98.809,103.944l4.204-4.633l-6.548-1.069L98.809,103.944z"/>
	<path d="M111.693,102.423l-3.281-5.082l-2.866,5.095L111.693,102.423z"/>
	<path d="M115.928,100.831l2.753,1.328l-0.267-3.342L115.928,100.831z"/>
	<path d="M29.702,109.71l3.112-0.551l-2.093-2.297L29.702,109.71z"/>
	<path d="M39.058,111.742l4.384-3.837l-5.645-2.066L39.058,111.742z"/>
	<path d="M49.944,112.877l2.624-6.995l-6.57,1.405L49.944,112.877z"/>
	<path d="M55.907,111.375l6.567-2.022l-5.354-4.474L55.907,111.375z"/>
	<path d="M63.778,110.355l6.74,0.238l-2.742-6.186L63.778,110.355z"/>
	<path d="M73.761,105.211l1.504,7.066l4.864-4.377L73.761,105.211z"/>
	<path d="M84.852,112.105l4.197-4.548l-6.336-1.851L84.852,112.105z"/>
	<path d="M99.003,109.877l-5.129-5.626l-1.823,6.821L99.003,109.877z"/>
	<path d="M106.83,111.09l-2.224-5.964l-4.345,4.667L106.83,111.09z"/>
	<path d="M114.567,111.834l0.44-6.094l-5.721,2.476L114.567,111.834z"/>
	<path d="M123.542,107.417l-2.843,0.574l1.702,2.153L123.542,107.417z"/>
	<path d="M24.989,116.781l2.584,0.822l-0.623-2.665L24.989,116.781z"/>
	<path d="M38.748,115.601l-5.387-1.413l1.451,5.161L38.748,115.601z"/>
	<path d="M41.371,114.73l3.497,4.785l2.979-5.111L41.371,114.73z"/>
	<path d="M51.601,118.467l5.398-1.026l-3.945-4.475L51.601,118.467z"/>
	<path d="M65.977,118.646l-2.668-5.842l-3.728,5.127L65.977,118.646z"/>
	<path d="M75.15,116.877l-4.319-3.447l-0.591,5.304L75.15,116.877z"/>
	<path d="M84.752,115.991l-5.389-1.925l0.644,5.074L84.752,115.991z"/>
	<path d="M88.736,113.82l-0.197,5.631l5.378-3.031L88.736,113.82z"/>
	<path d="M97.836,113.329l-0.487,6.141l5.599-2.803L97.836,113.329z"/>
	<path d="M108.208,112.632l-2.627,5.77l6.267-0.334L108.208,112.632z"/>
	<path d="M115.866,118.551l4.57-1.653l-3.841-3.09L115.866,118.551z"/>
	<path d="M126.126,117.927l2.123-1.732l-2.534-0.985L126.126,117.927z"/>
	<path d="M21.735,123.907l-0.121,0.885l0.768-0.43L21.735,123.907z"/>
	<path d="M31.345,125.715l0.819-2.403l-2.379,0.609L31.345,125.715z"/>
	<path d="M41.625,123.572l-3.011-0.241l1.461,2.609L41.625,123.572z"/>
	<path d="M51.081,124.116l-2.864-1.203l0.402,2.905L51.081,124.116z"/>
	<path d="M57.469,125.858l2.766-1.512l-2.611-1.356L57.469,125.858z"/>
	<path d="M65.801,123.433l1.739,2.369l1.402-2.387L65.801,123.433z"/>
	<path d="M75.014,125.121l2.849,0.038l-1.174-2.416L75.014,125.121z"/>
	<path d="M84.14,124.753l2.885,0.88l-0.862-3.042L84.14,124.753z"/>
	<path d="M96.507,123.472l-3.03-0.022l1.242,2.617L96.507,123.472z"/>
	<path d="M105.714,123.736l-3.198-0.669l1.03,3.097L105.714,123.736z"/>
	<path d="M113.333,125.732l1.078-2.636l-3.101,0.665L113.333,125.732z"/>
	<path d="M123.43,124.746l-1.552-1.705l-0.804,2.246L123.43,124.746z"/>
	<path d="M131.614,123.982l-0.865,0.199l0.638,0.661L131.614,123.982z"/>
</g>
</svg>
