<?xml version="1.0" encoding="iso-8859-1"?>
<!-- Generator: Adobe Illustrator 27.5.0, SVG Export Plug-In . SVG Version: 6.00 Build 0)  -->
<svg version="1.1" id="shapes" xmlns="http://www.w3.org/2000/svg" xmlns:xlink="http://www.w3.org/1999/xlink" x="0px" y="0px"
	 width="150px" height="150px" viewBox="0 0 150 150" enable-background="new 0 0 150 150" xml:space="preserve">
<g>
	<g id="_x3C_Radial_Repeat_x3E__00000090269696890707960850000010790170386647902115_">
		<path d="M111.786,72.091c7.199,0.714,14.958,4.673,18.231,11.581c2.656,5.444,1.904,11.734-1.555,16.669
			c-10.784,15.01-37.661,14.898-54.162,13.169c-18.375-2.564-15.776-28.944,2.774-27.841c1.594,0.159,3.149,0.607,4.526,1.242
			c5.645,2.633,11.404,4.888,17.158,6.384c1.761,0.468,3.575,0.846,5.37,1.154c4.96,0.771,10.882,1.113,15.374-1.284
			c4.362-2.379,4.716-7.115,2.701-11.291c-2.124-4.329-5.987-7.453-10.466-9.611c-0.045-0.021-0.065-0.076-0.043-0.121
			C111.711,72.107,111.749,72.087,111.786,72.091z"/>
	</g>
	<g id="_x3C_Radial_Repeat_x3E__00000140715193114976096840000006226623016252897162_">
		<path d="M81.107,111.756c-0.714,7.199-4.673,14.958-11.581,18.231c-5.444,2.656-11.734,1.904-16.669-1.555
			c-15.01-10.784-14.898-37.661-13.169-54.162c2.564-18.375,28.944-15.776,27.841,2.774c-0.159,1.594-0.607,3.149-1.242,4.526
			c-2.633,5.645-4.888,11.404-6.384,17.158c-0.468,1.761-0.846,3.575-1.154,5.37c-0.771,4.96-1.113,10.882,1.284,15.374
			c2.379,4.362,7.115,4.716,11.291,2.701c4.329-2.124,7.453-5.987,9.611-10.466c0.021-0.045,0.076-0.065,0.121-0.043
			C81.091,111.681,81.111,111.719,81.107,111.756z"/>
	</g>
	<g id="_x3C_Radial_Repeat_x3E__00000026859388359972529420000007095356573573590184_">
		<path d="M41.442,81.077c-7.199-0.714-14.958-4.673-18.231-11.581c-2.656-5.444-1.904-11.734,1.555-16.669
			c10.784-15.01,37.661-14.898,54.162-13.169c18.375,2.564,15.776,28.944-2.774,27.841c-1.594-0.159-3.149-0.607-4.526-1.242
			c-5.645-2.633-11.404-4.888-17.158-6.384c-1.761-0.468-3.575-0.846-5.37-1.154c-4.96-0.771-10.882-1.113-15.374,1.284
			c-4.362,2.379-4.716,7.115-2.701,11.291c2.124,4.329,5.987,7.453,10.466,9.611c0.045,0.021,0.065,0.076,0.043,0.121
			C41.517,81.062,41.479,81.081,41.442,81.077z"/>
	</g>
	<g id="_x3C_Radial_Repeat_x3E__00000080175755937370728280000002380696527127187382_">
		<path d="M72.121,41.412c0.714-7.199,4.673-14.958,11.581-18.231c5.444-2.656,11.734-1.904,16.669,1.555
			c15.01,10.784,14.898,37.661,13.169,54.162c-2.564,18.375-28.944,15.776-27.841-2.774c0.159-1.594,0.607-3.149,1.242-4.526
			c2.633-5.645,4.888-11.404,6.384-17.158c0.468-1.761,0.846-3.575,1.154-5.37c0.771-4.96,1.113-10.882-1.284-15.374
			c-2.379-4.362-7.115-4.716-11.291-2.701c-4.329,2.124-7.453,5.987-9.611,10.466c-0.021,0.045-0.076,0.065-0.121,0.043
			C72.136,41.487,72.117,41.449,72.121,41.412z"/>
	</g>
</g>
</svg>
