<?xml version="1.0" encoding="iso-8859-1"?>
<!-- Generator: Adobe Illustrator 27.5.0, SVG Export Plug-In . SVG Version: 6.00 Build 0)  -->
<svg version="1.1" id="shapes" xmlns="http://www.w3.org/2000/svg" xmlns:xlink="http://www.w3.org/1999/xlink" x="0px" y="0px"
	 width="150px" height="150px" viewBox="0 0 150 150" enable-background="new 0 0 150 150" xml:space="preserve">
<g>
	<polygon points="99.334,79.935 83.847,72.675 91.658,94.796 79.758,131.02 101.037,112.774 116.036,114.378 	"/>
	<polygon points="89.911,94.853 84.093,78.77 73.976,99.934 39.946,117.133 67.895,119.279 77.366,131.018 	"/>
	<polygon points="72.698,98.74 79.957,83.252 57.839,91.064 21.614,79.163 39.861,100.444 38.255,115.442 	"/>
	<polygon points="57.781,89.317 73.864,83.499 52.7,73.382 35.499,39.353 33.355,67.302 21.615,76.77 	"/>
	<polygon points="53.894,72.104 69.381,79.363 61.569,57.245 73.47,21.02 52.19,39.267 37.192,37.66 	"/>
	<polygon points="63.317,57.185 69.135,73.27 79.252,52.106 113.281,34.906 85.332,32.761 75.862,21.02 	"/>
	<polygon points="80.529,53.301 73.271,68.786 95.389,60.975 131.614,72.875 113.367,51.595 114.973,36.599 	"/>
	<polygon points="95.447,62.724 79.364,68.542 100.528,78.659 117.729,112.688 119.873,84.739 131.614,75.268 	"/>
</g>
</svg>
