<?xml version="1.0" encoding="iso-8859-1"?>
<!-- Generator: Adobe Illustrator 27.5.0, SVG Export Plug-In . SVG Version: 6.00 Build 0)  -->
<svg version="1.1" id="shapes" xmlns="http://www.w3.org/2000/svg" xmlns:xlink="http://www.w3.org/1999/xlink" x="0px" y="0px"
	 width="150px" height="150px" viewBox="0 0 150 150" enable-background="new 0 0 150 150" xml:space="preserve">
<g>
	<path d="M56.37,37.904c0-7.023,3.598-13.218,9.045-16.85c-15.863,3.295-29.238,13.446-36.891,27.2
		c9.167,2.141,18.475,3.658,27.846,4.553V37.904z"/>
	<path d="M56.37,55.064c-9.738-0.92-19.41-2.501-28.929-4.752c-3.56,7.089-5.627,15.045-5.799,23.463H56.37V55.064z"/>
	<path d="M56.37,111.906V96.985c-9.374,0.895-18.685,2.413-27.855,4.555c7.652,13.763,21.031,23.92,36.9,27.216
		C59.968,125.124,56.37,118.93,56.37,111.906z"/>
	<path d="M56.37,76.019H21.642c0.169,8.418,2.233,16.375,5.79,23.464c9.521-2.252,19.198-3.834,28.937-4.754V76.019z"/>
	<path d="M94.613,55.268c-5.986,0.502-11.993,0.765-18,0.765c-6.007,0-12.012-0.263-17.998-0.765v18.506h35.998V55.268z"/>
	<path d="M58.615,37.904v15.113c11.971,1.015,24.027,1.015,35.998,0V37.904c0-9.925-8.074-17.999-17.999-17.999
		S58.615,27.98,58.615,37.904z"/>
	<path d="M58.615,94.525c11.972-1.004,24.026-1.004,35.998,0V76.019H58.615V94.525z"/>
	<path d="M87.813,21.054c5.447,3.632,9.045,9.826,9.045,16.85v14.903c9.371-0.895,18.679-2.412,27.845-4.553
		C117.05,34.5,103.676,24.349,87.813,21.054z"/>
	<path d="M94.613,111.906V96.775c-11.971-1.015-24.027-1.015-35.998,0v15.131c0,9.925,8.074,17.999,17.999,17.999
		S94.613,121.831,94.613,111.906z"/>
	<path d="M96.858,73.774h34.728c-0.172-8.418-2.239-16.374-5.799-23.463c-9.519,2.251-19.192,3.833-28.929,4.753V73.774z"/>
	<path d="M96.858,94.729c9.74,0.92,19.416,2.502,28.937,4.755c3.558-7.09,5.622-15.047,5.79-23.465H96.858V94.729z"/>
	<path d="M96.858,111.906c0,7.023-3.598,13.218-9.045,16.85c15.869-3.296,29.248-13.453,36.899-27.215
		c-9.17-2.142-18.481-3.66-27.854-4.555V111.906z"/>
</g>
</svg>
