<?xml version="1.0" encoding="iso-8859-1"?>
<!-- Generator: Adobe Illustrator 27.5.0, SVG Export Plug-In . SVG Version: 6.00 Build 0)  -->
<svg version="1.1" id="shapes" xmlns="http://www.w3.org/2000/svg" xmlns:xlink="http://www.w3.org/1999/xlink" x="0px" y="0px"
	 width="150px" height="150px" viewBox="0 0 150 150" enable-background="new 0 0 150 150" xml:space="preserve">
<g>
	<polygon points="115.258,76.58 111.168,72.993 115.733,80.706 	"/>
	<polygon points="108.574,56.151 108.903,59.593 110.045,60.63 112.657,62.999 112.042,61.968 	"/>
	<polygon points="112.319,63.734 110.179,61.795 114.363,68.832 113.945,65.21 	"/>
	<polygon points="114.901,66.767 115.322,70.391 119.043,73.711 	"/>
	<polygon points="115.992,76.196 119.868,79.6 115.544,72.329 115.806,74.594 	"/>
	<polygon points="118.248,68.07 114.286,61.435 114.667,64.75 114.679,64.832 116.457,66.446 	"/>
	<polygon points="98.239,56.177 102.868,64.019 102.581,60.054 	"/>
	<polygon points="97.024,54.057 100.517,57.177 101.357,57.926 96.845,50.3 	"/>
	<polygon points="102.694,65.246 96.65,55.003 90.724,65.246 	"/>
	<polygon points="106.747,58.683 104.198,56.373 106.908,60.941 108.51,63.635 108.16,59.965 	"/>
	<polygon points="104.558,61.816 107.886,67.442 109.055,69.419 108.684,65.502 107.225,64.2 	"/>
	<polygon points="102.682,50.696 102.849,53.024 102.935,54.181 106.202,57.144 106.884,57.763 104.016,52.943 	"/>
	<polygon points="88.861,105.968 77.941,105.968 79.817,107.31 83.425,109.895 	"/>
	<polygon points="100.919,52.354 96.595,45.064 96.762,48.586 	"/>
	<polygon points="82.229,110.756 71.574,110.756 77.013,114.526 	"/>
	<polygon points="80.612,108.829 76.745,106.061 71.498,109.985 82.223,109.985 	"/>
	<polygon points="110.148,72.786 110.544,76.969 111.622,77.898 114.792,80.633 	"/>
	<polygon points="88.307,104.766 83.371,101.107 77.899,105.196 88.885,105.196 	"/>
	<polygon points="75.579,105.968 64.659,105.968 70.329,109.895 	"/>
	<polygon points="109.515,77.546 97.454,77.546 103.58,88.049 	"/>
	<polygon points="111.997,81.01 110.182,77.932 104.25,88.437 116.384,88.437 	"/>
	<polygon points="94.689,101.762 95.724,101.011 84.537,101.011 90.057,105.104 	"/>
	<polygon points="102.265,90.378 102.925,89.212 90.782,89.212 96.918,99.846 	"/>
	<polygon points="90.335,89.981 90.115,89.6 84.034,100.239 96.251,100.239 	"/>
	<polygon points="40.174,68.605 40.302,68.39 44.142,62.018 40.771,65.214 	"/>
	<polygon points="45.579,59.589 46.088,56.367 42.218,62.777 	"/>
	<polygon points="36.986,82.268 37.672,78.37 33.354,85.553 	"/>
	<polygon points="42.726,99.846 49.02,89.212 36.88,89.212 39.212,93.452 	"/>
	<polygon points="35.747,73.497 39.075,70.386 39.675,66.994 37.967,69.821 	"/>
	<polygon points="36.871,67.848 40.056,64.829 40.613,61.661 39.422,63.626 	"/>
	<polygon points="69.827,101.107 69.464,101.389 64.553,105.196 75.536,105.196 	"/>
	<polygon points="38.055,76.196 38.695,72.556 34.575,79.395 	"/>
	<polygon points="66.404,108.118 63.435,106.061 58.377,109.985 69.102,109.985 	"/>
	<polygon points="62.296,105.968 51.377,105.968 57.232,109.895 	"/>
	<polygon points="50.865,104.478 55.171,101.011 43.984,101.011 50.086,105.102 	"/>
	<polygon points="56.283,101.107 51.203,105.196 62.187,105.196 	"/>
	<polygon points="54.867,98.907 49.687,89.6 43.39,100.239 55.607,100.239 	"/>
	<polygon points="59.346,46.542 63.301,42.792 63.575,39.825 63.612,39.434 60.74,44.214 	"/>
	<polygon points="70.174,53.473 76.157,43.357 64.343,43.357 	"/>
	<polygon points="57.61,53.852 69.501,53.852 66.565,48.764 63.667,43.735 	"/>
	<polygon points="71.011,32.223 74.431,38.085 76.836,42.209 82.749,32.223 	"/>
	<polygon points="77.506,43.357 82.859,52.536 83.407,53.473 89.324,43.357 	"/>
	<polygon points="82.734,53.852 76.83,43.735 70.847,53.852 	"/>
	<polygon points="51.538,58.054 52.79,55.97 55.777,50.988 52.019,54.549 	"/>
	<polygon points="88.931,62.938 90.054,64.864 95.977,54.624 84.08,54.624 	"/>
	<polygon points="50.783,54.659 51.292,54.178 51.453,53.019 51.742,50.901 47.741,57.542 	"/>
	<polygon points="45.762,63.419 49.864,56.594 46.304,59.968 	"/>
	<polygon points="57.93,48.946 57.707,50.868 57.519,52.5 61.894,45.189 58.484,48.424 	"/>
	<polygon points="56.837,48.919 57.196,48.581 57.327,47.445 57.58,45.26 53.448,52.135 	"/>
	<polygon points="109.076,61.452 109.424,65.126 113.339,68.622 112.134,66.59 	"/>
	<polygon points="50.259,61.687 47.114,66.93 45.869,69.008 49.745,65.443 	"/>
	<polygon points="76.711,87.934 82.719,77.546 70.661,77.546 76.644,88.049 	"/>
	<polygon points="85.192,81.065 83.389,77.932 77.311,88.437 89.445,88.437 	"/>
	<polygon points="66.282,84.27 63.843,88.437 75.977,88.437 69.991,77.932 	"/>
	<polygon points="43.801,70.91 44.383,67.21 40.129,74.288 	"/>
	<polygon points="50.098,66.402 43.889,76.773 55.941,76.773 	"/>
	<polygon points="69.823,99.846 75.971,89.212 63.831,89.212 68.91,98.229 	"/>
	<polygon points="65.378,84.286 69.321,77.546 57.263,77.546 60.597,83.467 63.176,88.049 	"/>
	<polygon points="67.348,102.052 68.691,101.011 57.5,101.011 63.411,105.104 	"/>
	<polygon points="61.349,69.896 57.278,76.773 69.33,76.773 63.417,66.402 	"/>
	<polygon points="66.635,70.485 70,76.388 76.066,66.02 64.09,66.02 	"/>
	<polygon points="53.524,70.907 56.608,76.388 62.747,66.02 50.768,66.02 	"/>
	<polygon points="76.739,66.402 75.335,68.797 70.667,76.773 82.719,76.773 79.303,70.849 	"/>
	<polygon points="43.898,75.254 48.405,67.722 44.52,71.295 	"/>
	<polygon points="109.972,70.914 114.052,74.494 109.6,66.994 	"/>
	<polygon points="114.585,70.77 110.663,67.266 115.032,74.634 	"/>
	<polygon points="109.628,75.473 109.232,71.292 104.932,67.518 	"/>
	<polygon points="121.871,91.083 122.486,92.123 121.902,87.787 117.855,84.296 	"/>
	<polygon points="64.138,114.526 69.175,110.756 58.518,110.756 58.843,110.976 	"/>
	<polygon points="82.208,101.011 71.02,101.011 76.733,105.104 	"/>
	<polygon points="76.638,89.6 70.487,100.239 82.704,100.239 	"/>
	<polygon points="107.447,63.363 103.063,55.968 103.331,59.688 105.331,61.475 	"/>
	<polygon points="103.745,65.447 108.035,69.214 103.458,61.48 	"/>
	<polygon points="97.448,76.773 109.5,76.773 103.376,66.402 101.762,69.226 	"/>
	<polygon points="62.509,88.437 56.593,77.932 50.375,88.437 	"/>
	<polygon points="41.195,68.408 44.547,65.278 44.712,65.124 45.253,61.671 43.192,65.091 	"/>
	<polygon points="39.154,74.409 43.32,67.481 39.794,70.774 	"/>
	<polygon points="39.919,79.614 42.848,76.965 43.469,73.005 39.011,80.435 	"/>
	<polygon points="50.75,63.81 55.189,56.39 51.264,60.059 	"/>
	<polygon points="89.448,89.212 77.308,89.212 83.371,99.846 	"/>
	<polygon points="45.433,65.507 44.852,69.202 49.154,62.029 45.631,65.321 	"/>
	<polygon points="38.086,80.477 39.334,78.398 42.455,73.198 38.771,76.586 	"/>
	<polygon points="36.968,86.83 41.545,79.185 37.702,82.662 	"/>
	<polygon points="56.273,99.846 62.497,89.212 50.357,89.212 51.621,91.482 	"/>
	<polygon points="63.164,89.6 60.771,93.691 56.937,100.239 69.157,100.239 	"/>
	<polygon points="49.041,88.437 43.195,77.933 36.907,88.437 	"/>
	<polygon points="55.923,77.546 43.862,77.546 49.708,88.049 	"/>
	<polygon points="46.825,63.148 50.537,59.681 50.984,56.41 51.018,56.175 49.526,58.658 	"/>
	<polygon points="96.778,76.388 102.706,66.02 90.727,66.02 	"/>
	<polygon points="84.059,76.773 96.108,76.773 90.057,66.402 	"/>
	<polygon points="96.784,77.932 95.919,79.448 90.779,88.437 102.913,88.437 	"/>
	<polygon points="83.389,76.388 89.387,66.02 77.408,66.02 	"/>
	<polygon points="52.647,57.71 56.563,54.053 56.974,50.499 53.932,55.566 	"/>
	<polygon points="96.114,77.546 84.056,77.546 90.112,88.049 	"/>
	<polygon points="56.922,55.003 50.789,65.246 62.759,65.246 57.281,55.635 	"/>
	<polygon points="60.29,59.357 63.429,64.864 65.53,61.317 69.492,54.624 57.592,54.624 	"/>
	<polygon points="75.505,62.719 76.742,64.864 82.731,54.624 70.838,54.624 	"/>
	<polygon points="67.799,58.999 64.102,65.246 76.072,65.246 70.161,55.003 	"/>
	<polygon points="77.415,65.246 89.384,65.246 83.407,55.003 	"/>
	<polygon points="89.321,42.587 83.425,32.596 77.512,42.587 	"/>
	<polygon points="33.211,81.698 32.471,85.521 36.7,78.49 	"/>
	<polygon points="37.675,72.752 36.539,73.813 34.337,75.872 33.646,79.439 36.201,75.2 	"/>
	<polygon points="50.129,106.061 49.276,106.748 45.257,109.985 55.978,109.985 	"/>
	<polygon points="35.415,70.292 34.773,73.62 38.606,67.264 	"/>
	<polygon points="39.498,62.009 36.447,64.943 35.847,68.046 37.763,64.878 	"/>
	<polygon points="35.869,88.626 36.603,84.451 32.078,91.993 	"/>
	<polygon points="40.351,56.973 37.44,59.808 36.88,62.702 39.852,57.797 	"/>
	<polygon points="38.095,105.968 44.136,109.895 49.011,105.968 	"/>
	<polygon points="42.738,101.107 37.854,105.196 48.838,105.196 	"/>
	<polygon points="34.605,90.783 30.805,94.158 29.955,98.545 30.211,98.121 	"/>
	<polygon points="40.363,97.153 36.213,89.6 29.843,100.239 42.059,100.239 	"/>
	<polygon points="30.464,101.011 36.761,105.102 41.651,101.011 	"/>
	<polygon points="62.738,35.179 59.117,38.708 58.889,40.679 58.755,41.803 60.177,39.438 	"/>
	<polygon points="53.438,44.234 53.018,47.288 56.873,40.889 	"/>
	<polygon points="56.337,45.828 52.744,49.281 52.294,52.552 	"/>
	<polygon points="57.802,43.35 58.158,40.251 54.218,46.794 	"/>
	<polygon points="62.33,40.069 58.536,43.715 58.149,47.031 	"/>
	<polygon points="52.016,48.91 52.434,45.853 48.621,52.171 	"/>
	<polygon points="51.188,46.424 47.936,49.589 47.464,52.594 47.848,51.955 	"/>
	<polygon points="44.931,56.789 41.706,59.887 41.152,63.051 	"/>
	<polygon points="45.686,51.78 42.607,54.778 42.087,57.73 44.708,53.395 	"/>
	<polygon points="37.949,62.428 40.991,59.505 41.511,56.55 39.084,60.555 	"/>
	<polygon points="43.201,57.379 46.417,54.29 46.889,51.283 44.52,55.198 	"/>
	<polygon points="70.344,110.846 65.311,114.61 75.783,114.61 	"/>
	<polygon points="33.247,86.689 32.035,87.788 31.244,91.882 35.677,84.493 	"/>
	<polygon points="102.767,114.526 108.342,110.756 97.685,110.756 	"/>
	<polygon points="89.884,115.47 84.704,119.085 94.932,119.085 93.724,118.218 	"/>
	<polygon points="96.141,119.001 101.494,115.385 91.09,115.385 	"/>
	<polygon points="91.114,114.61 101.586,114.61 96.507,110.846 	"/>
	<polygon points="108.011,108.662 109.618,109.895 115.425,105.968 104.509,105.968 	"/>
	<polygon points="97.74,109.985 108.467,109.985 103.361,106.061 	"/>
	<polygon points="118.552,90.593 123.385,98.785 122.764,94.155 	"/>
	<polygon points="116.707,105.102 122.764,101.011 111.576,101.011 	"/>
	<polygon points="104.6,105.196 115.584,105.196 110.456,101.107 	"/>
	<polygon points="112.17,98.376 111.132,100.239 123.348,100.239 117.069,89.6 	"/>
	<polygon points="76.051,124.186 66.133,124.186 71.267,127.525 75.323,124.695 	"/>
	<polygon points="64.163,115.47 60.588,118.142 59.327,119.085 69.553,119.085 	"/>
	<polygon points="69.629,119.858 59.471,119.858 64.818,123.332 66.547,122.082 	"/>
	<polygon points="62.78,114.544 57.263,110.846 53.688,113.62 52.409,114.61 62.881,114.61 	"/>
	<polygon points="70.831,119.942 69.099,121.193 66.023,123.415 76.008,123.415 	"/>
	<polygon points="62.991,115.385 52.586,115.385 58.149,119.001 62.701,115.598 	"/>
	<polygon points="83.529,127.525 88.468,124.186 78.547,124.186 	"/>
	<polygon points="78.989,123.077 78.508,123.415 88.492,123.415 83.48,119.942 	"/>
	<polygon points="89.732,123.332 94.875,119.858 84.713,119.858 	"/>
	<polygon points="77.518,131.584 82.268,128.375 72.582,128.375 	"/>
	<polygon points="56.121,110.756 45.464,110.756 51.261,114.526 54.912,111.694 	"/>
	<polygon points="80.95,126.726 77.284,124.267 73.825,126.682 72.503,127.604 82.259,127.604 	"/>
	<polygon points="47.245,56.866 50.543,51.396 47.138,54.668 46.63,57.888 	"/>
	<polygon points="115.967,67.043 118.458,71.221 120.026,73.857 119.545,70.287 118.498,69.337 	"/>
	<polygon points="115.419,90.97 116.403,89.212 104.259,89.212 107.77,95.23 110.465,99.846 	"/>
	<polygon points="116.567,72.539 119.396,77.294 120.812,79.676 120.297,75.869 118.787,74.521 	"/>
	<polygon points="117.133,86.091 117.426,88.629 121.573,92.138 121.628,92.182 116.917,84.224 	"/>
	<polygon points="116.692,82.271 120.727,85.751 116.214,78.142 116.509,80.686 	"/>
	<polygon points="116.125,84.107 115.958,82.659 111.701,78.987 115.626,85.635 116.467,87.06 	"/>
	<polygon points="112.003,57.612 108.096,51.067 108.4,54.296 	"/>
	<polygon points="110.952,58.629 113.72,63.278 113.33,59.882 109.719,56.557 	"/>
	<polygon points="113.108,57.953 112.74,54.774 109.277,51.542 110.404,53.427 	"/>
	<polygon points="115.392,61.781 119.274,68.282 118.823,64.939 117.849,64.042 	"/>
	<polygon points="118.555,62.938 118.132,59.805 114.844,56.735 117.554,61.266 	"/>
	<polygon points="117.487,62.658 113.699,56.326 114.064,59.506 	"/>
	<polygon points="117.197,78.283 121.631,85.76 121.083,81.695 119.055,79.915 	"/>
	<polygon points="87.052,113.444 83.425,110.846 78.212,114.61 88.684,114.61 	"/>
	<polygon points="77.275,123.332 82.25,119.858 72.092,119.858 73.943,121.1 	"/>
	<polygon points="84.988,117.947 88.66,115.385 78.255,115.385 80.143,116.691 83.477,119.001 	"/>
	<polygon points="75.825,115.385 65.42,115.385 70.813,119.001 	"/>
	<polygon points="77.022,115.47 72.016,119.085 82.244,119.085 	"/>
	<polygon points="90.051,106.061 84.619,109.985 95.344,109.985 	"/>
	<polygon points="109.244,101.011 98.057,101.011 103.385,105.104 	"/>
	<polygon points="96.912,101.107 92.216,104.496 91.248,105.196 102.234,105.196 	"/>
	<polygon points="95.286,110.756 84.628,110.756 85.529,111.404 89.89,114.526 	"/>
	<polygon points="59.997,41.236 63.779,37.605 63.804,37.328 64.068,34.467 61.212,39.215 	"/>
	<polygon points="102.143,105.968 91.227,105.968 96.522,109.895 	"/>
	<polygon points="103.592,89.6 98.166,99.204 97.582,100.239 109.801,100.239 	"/>
	<polygon points="83.051,30.439 83.075,27.091 78.62,22.935 78.949,23.495 	"/>
	<polygon points="84.08,53.852 95.968,53.852 90,43.735 89.403,44.753 	"/>
	<polygon points="85.085,33.889 86.665,36.567 89.579,41.506 89.503,37.957 88.474,37.007 	"/>
	<polygon points="82.749,31.451 76.928,21.584 71.02,31.451 	"/>
	<polygon points="89.47,36.319 89.418,33.916 89.4,32.992 85.161,29.038 85.883,30.256 	"/>
	<polygon points="83.837,28.32 83.812,31.668 88.221,35.724 	"/>
	<polygon points="64.522,37.962 64.212,41.317 68.523,34.117 	"/>
	<polygon points="64.979,32.997 64.69,36.132 68.807,29.274 	"/>
	<polygon points="76.163,42.587 70.332,32.596 64.352,42.587 	"/>
	<polygon points="65.972,35.495 69.961,31.663 70.174,28.495 68.027,32.073 	"/>
	<polygon points="105.834,54.49 107.983,58.104 107.66,54.665 107.511,54.528 103.86,51.166 	"/>
	<polygon points="71.042,27.097 70.953,28.429 70.828,30.262 75.076,23.169 	"/>
	<polygon points="101.513,45.256 101.44,44.23 97.609,40.655 101.677,47.494 	"/>
	<polygon points="102.055,52.757 101.805,49.275 97.807,45.597 	"/>
	<polygon points="98.017,50.766 102.454,58.261 102.186,54.545 100.005,52.57 	"/>
	<polygon points="102.554,48.916 106.342,52.401 105.66,51.258 102.317,45.649 102.454,47.558 	"/>
	<polygon points="90.776,38.076 94.46,41.466 90.198,34.282 90.268,37.61 	"/>
	<polygon points="107.484,52.811 107.179,49.584 103.538,46.185 106.26,50.754 	"/>
	<polygon points="93.861,43.743 95.925,47.227 95.806,44.747 95.758,43.709 91.556,39.842 	"/>
	<polygon points="95.517,38.702 91.489,34.942 95.675,41.999 	"/>
	<polygon points="100.499,47.022 96.354,40.055 96.513,43.356 	"/>
	<polygon points="91.626,44.97 92.691,46.777 96.187,52.698 96.007,48.943 94.631,47.695 	"/>
	<polygon points="90.304,39.247 90.371,42.359 90.38,42.799 94.753,46.763 	"/>
</g>
</svg>
