<?xml version="1.0" encoding="iso-8859-1"?>
<!-- Generator: Adobe Illustrator 27.5.0, SVG Export Plug-In . SVG Version: 6.00 Build 0)  -->
<svg version="1.1" id="shapes" xmlns="http://www.w3.org/2000/svg" xmlns:xlink="http://www.w3.org/1999/xlink" x="0px" y="0px"
	 width="150px" height="150px" viewBox="0 0 150 150" enable-background="new 0 0 150 150" xml:space="preserve">
<path d="M131.178,52.82c0.74-2.223,0.499-4.097-0.685-5.28l-24.462-24.464c-2.47-2.952-9.49,0.44-12.515,4.794l-4.794-4.794
	c-2.471-2.953-9.489,0.441-12.515,4.794l-4.794-4.794c-2.471-2.953-9.489,0.441-12.515,4.794l-4.794-4.794
	c-2.471-2.953-9.489,0.441-12.515,4.794l-4.794-4.794c-2.267-2.268-6.996-0.951-11.004,3.056c-2.837,2.818-5.846,7.901-3.056,11.004
	c0,0,4.787,4.787,4.787,4.787c-3.508,2.681-8.012,8.731-4.787,12.522c0,0,4.787,4.787,4.787,4.787
	c-3.508,2.681-8.012,8.732-4.787,12.522c0,0,4.787,4.787,4.787,4.787c-3.508,2.681-8.012,8.731-4.787,12.522
	c0,0,4.787,4.787,4.787,4.787c-3.514,2.676-8.007,8.736-4.787,12.522c0,0,24.463,24.464,24.463,24.464
	c3.861,3.129,9.41-0.915,12.515-4.794l4.794,4.794c3.858,3.126,9.412-0.913,12.515-4.794l4.794,4.794
	c3.858,3.126,9.412-0.913,12.515-4.794l4.794,4.794c3.858,3.126,9.412-0.913,12.515-4.794l4.794,4.794
	c3.375,2.649,7.455,0.232,11.004-3.056c2.838-2.819,5.844-7.9,3.056-11.004c0,0-4.785-4.786-4.785-4.786
	c3.505-2.685,8.01-8.731,4.785-12.523c0,0-4.785-4.786-4.785-4.786c3.505-2.685,8.01-8.731,4.785-12.523
	c0,0-4.785-4.786-4.785-4.786c3.505-2.685,8.01-8.731,4.785-12.523c0,0-4.785-4.786-4.785-4.786
	C128.082,58.275,130.381,55.333,131.178,52.82z M128.715,69.307c-0.659,2.102-2.82,4.774-4.868,6.203
	c-1.617-1.617-16.639-16.638-17.816-17.817c-1.896-1.785-4.879-1.07-7.042,0.099l-2.459-2.46c4.73-1.366,9.072-5.628,10.36-10.417
	c4.322,4.324,11.292,11.293,15.63,15.631c0.561,0.56,5.45,5.451,6.138,6.138C129.095,67.122,129.117,68.103,128.715,69.307z
	 M128.715,86.616c-0.659,2.101-2.82,4.774-4.868,6.203c-1.617-1.617-16.639-16.638-17.816-17.816
	c-1.896-1.784-4.878-1.069-7.042,0.099l-2.459-2.46c4.73-1.366,9.072-5.628,10.36-10.417c4.323,4.323,11.291,11.294,15.63,15.631
	c0.561,0.56,5.45,5.451,6.138,6.138C129.095,84.431,129.117,85.412,128.715,86.616z M128.715,103.925
	c-0.659,2.101-2.82,4.774-4.868,6.203c-1.617-1.617-16.639-16.638-17.816-17.816c-1.896-1.785-4.879-1.07-7.042,0.098l-2.459-2.46
	c4.73-1.366,9.072-5.628,10.36-10.417c4.322,4.324,11.292,11.293,15.63,15.631c0.561,0.56,5.45,5.451,6.138,6.138
	C129.095,101.74,129.117,102.721,128.715,103.925z M128.715,121.234c-0.919,3.82-8.154,9.681-10.446,7.766
	c-0.703-0.7-5.578-5.581-6.137-6.138c-4.52-4.523-11.112-11.111-15.602-15.603c4.73-1.366,9.072-5.628,10.36-10.417
	c4.323,4.323,11.292,11.294,15.63,15.631c0.561,0.56,5.45,5.451,6.138,6.138C129.095,119.049,129.117,120.029,128.715,121.234z
	 M100.96,129c-6.796-6.798-14.948-14.949-21.739-21.741c4.73-1.366,9.072-5.628,10.36-10.417c0,0,2.486,2.487,2.486,2.487
	c-1.317,2.313-1.886,5.762,0.407,7.547c0.463,0.461,1.394,1.393,1.856,1.856c3.126,3.127,12.203,12.203,15.453,15.453
	C107.741,127.443,102.14,130.436,100.96,129z M83.651,129c-6.796-6.798-14.948-14.949-21.739-21.741
	c4.73-1.366,9.072-5.628,10.36-10.417c0,0,2.486,2.487,2.486,2.487c-1.317,2.313-1.886,5.762,0.407,7.547
	c0.463,0.461,1.394,1.393,1.856,1.856c3.126,3.127,12.203,12.203,15.453,15.453C90.432,127.443,84.831,130.436,83.651,129z
	 M66.342,129c-6.796-6.798-14.948-14.949-21.739-21.741c4.73-1.366,9.072-5.628,10.36-10.417c0,0,2.486,2.487,2.486,2.487
	c-1.317,2.313-1.886,5.762,0.407,7.547c0.463,0.461,1.394,1.393,1.856,1.856c3.126,3.127,12.203,12.203,15.453,15.453
	C73.123,127.443,67.522,130.436,66.342,129z M49.033,129l-21.739-21.741c4.185-1.003,9.289-5.768,10.36-10.417l2.486,2.487
	c-1.155,2.079-1.858,5.213-0.096,7.042c0,0,7.155,7.156,7.155,7.156l10.657,10.658C55.814,127.443,50.213,130.436,49.033,129z
	 M33.421,24.613c0.521-0.093,1.255-0.017,1.536,0.299c1.984,3.998-6.935,12.367-10.387,10.389c-0.523-0.526-0.329-1.81-0.058-2.623
	C25.338,29.435,30.621,24.685,33.421,24.613z M33.739,34.08c1.964-2.031,3.406-4.12,3.915-6.474l2.486,2.487
	c-1.301,2.169-1.781,5.569-0.096,7.042c0,0,4.787,4.787,4.787,4.787c-1.177,0.895-2.345,2.066-3.242,3.256l-4.794-4.794
	c-1.542-1.542-4.224-1.392-7.042,0.099l-2.459-2.46C29.334,37.533,31.635,36.184,33.739,34.08z M43.445,29.726
	c2.085-2.796,6.201-6.14,8.822-4.814c1.478,3.208-3.139,7.924-5.914,9.559C40.594,37.698,40.532,33.651,43.445,29.726z
	 M60.754,29.726c2.085-2.796,6.201-6.14,8.822-4.814c1.478,3.208-3.139,7.924-5.914,9.559
	C57.903,37.698,57.841,33.651,60.754,29.726z M78.063,29.726c2.085-2.796,6.201-6.14,8.822-4.814
	c1.478,3.208-3.139,7.924-5.914,9.559C75.212,37.698,75.15,33.651,78.063,29.726z M95.372,29.726
	c2.085-2.796,6.201-6.14,8.822-4.814c1.478,3.208-3.139,7.924-5.914,9.559C92.52,37.698,92.459,33.651,95.372,29.726z
	 M103.113,41.884c0.487,0,0.86,0.117,1.08,0.336c1.993,3.685-6.652,12.323-10.36,10.405c-0.697-0.694-0.256-2.362,0.183-3.273
	c0.344-0.801,0.819-1.59,1.356-2.317C97.21,44.58,100.008,42.144,103.113,41.884z M100.928,59.732
	c1.088-0.416,2.38-0.883,3.266-0.202c0.559,0.668,0.312,1.98-0.029,2.83c-1.354,3.334-4.24,6.201-7.552,7.545
	c-0.874,0.296-2.124,0.564-2.779,0.029c-0.697-0.694-0.256-2.362,0.183-3.273c0.344-0.801,0.819-1.59,1.356-2.317
	c0.851-1.194,2.075-2.424,3.234-3.264C99.343,60.54,100.139,60.07,100.928,59.732z M100.928,77.04
	c1.088-0.416,2.38-0.883,3.266-0.202c0.559,0.685,0.304,1.997-0.029,2.83c-1.354,3.334-4.24,6.201-7.552,7.545
	c-0.875,0.296-2.122,0.564-2.779,0.03c-0.697-0.694-0.256-2.362,0.183-3.273c0.344-0.801,0.819-1.59,1.356-2.317
	c0.851-1.194,2.075-2.424,3.234-3.264C99.343,77.849,100.139,77.379,100.928,77.04z M100.928,94.349
	c1.088-0.416,2.38-0.883,3.266-0.202c0.559,0.668,0.312,1.98-0.029,2.83c-1.354,3.334-4.239,6.201-7.552,7.544
	c-0.875,0.296-2.122,0.564-2.779,0.031c-0.697-0.694-0.256-2.362,0.183-3.273c0.344-0.801,0.819-1.59,1.356-2.317
	c0.851-1.194,2.075-2.424,3.234-3.264C99.343,95.158,100.139,94.687,100.928,94.349z M86.675,97.405
	c-1.419,3.135-4.199,5.835-7.371,7.116c-0.874,0.295-2.122,0.565-2.779,0.031c-0.697-0.694-0.256-2.362,0.183-3.273
	c0.344-0.801,0.819-1.59,1.356-2.317c0.851-1.194,2.075-2.424,3.234-3.264c0.738-0.54,1.534-1.011,2.322-1.349
	c1.088-0.416,2.38-0.883,3.266-0.203c0.559,0.668,0.312,1.98-0.029,2.83C86.803,97.117,86.736,97.262,86.675,97.405z M69.366,97.405
	c-1.419,3.135-4.199,5.835-7.371,7.116c-0.874,0.295-2.122,0.565-2.779,0.03c-0.697-0.694-0.256-2.362,0.183-3.273
	c0.344-0.801,0.819-1.59,1.356-2.317c0.851-1.194,2.075-2.424,3.234-3.264c0.738-0.54,1.534-1.011,2.323-1.349
	c1.088-0.416,2.38-0.883,3.266-0.203c0.559,0.668,0.312,1.98-0.029,2.83C69.495,97.117,69.427,97.262,69.366,97.405z M52.057,97.405
	c-1.346,2.98-3.955,5.595-6.92,6.92c-1.034,0.432-2.504,0.838-3.257,0.211c-0.523-0.525-0.329-1.81-0.057-2.623
	c0.92-2.436,2.775-4.68,4.856-6.215c0.738-0.54,1.534-1.011,2.322-1.349c1.088-0.416,2.38-0.883,3.266-0.203
	c0.559,0.668,0.312,1.98-0.029,2.83C52.186,97.117,52.118,97.262,52.057,97.405z M41.822,84.605c0.92-2.436,2.775-4.68,4.856-6.215
	c0.738-0.54,1.534-1.011,2.322-1.349c1.088-0.416,2.38-0.883,3.266-0.203c0.559,0.685,0.304,1.997-0.029,2.83
	c-1.103,2.77-3.35,5.217-5.886,6.729C44.031,87.812,40.456,88.574,41.822,84.605z M41.822,67.296c0.92-2.436,2.775-4.68,4.856-6.215
	c0.738-0.54,1.534-1.011,2.322-1.349c1.088-0.416,2.38-0.883,3.266-0.203c0.559,0.668,0.312,1.98-0.029,2.83
	c-1.103,2.77-3.35,5.217-5.886,6.729C44.032,70.504,40.456,71.265,41.822,67.296z M41.822,49.987
	c1.27-3.258,4.002-6.144,7.179-7.564c1.091-0.418,2.377-0.881,3.266-0.202c0.524,0.528,0.328,1.81,0.057,2.623
	c-0.921,2.434-2.77,4.69-4.868,6.203C45.382,52.717,40.227,54.682,41.822,49.987z M60.754,47.035
	c1.744-2.359,4.387-4.622,7.285-5.113c0.521-0.093,1.255-0.017,1.537,0.298c1.993,3.685-6.652,12.323-10.36,10.405
	c-0.697-0.694-0.256-2.362,0.183-3.273C59.742,48.551,60.217,47.762,60.754,47.035z M78.063,47.035
	c1.744-2.359,4.387-4.622,7.285-5.113c0.521-0.093,1.255-0.017,1.537,0.298c1.993,3.685-6.652,12.323-10.36,10.405
	c-0.697-0.694-0.256-2.362,0.183-3.273C77.051,48.551,77.526,47.762,78.063,47.035z M92.067,47.403
	c-1.317,2.313-1.886,5.761,0.407,7.547c0,0,0.93,0.928,0.93,0.928c0.62,0.628,2.701,2.696,3.354,3.354
	c-1.176,0.895-2.346,2.067-3.242,3.256c-1.381-1.38-3.432-3.433-4.794-4.794c-1.896-1.785-4.879-1.07-7.042,0.099l-2.459-2.46
	c4.73-1.366,9.072-5.628,10.36-10.417C89.581,44.915,92.067,47.403,92.067,47.403z M96.756,93.85
	c-1.174,0.895-2.344,2.067-3.24,3.256c-1.381-1.38-3.432-3.433-4.794-4.794c-1.896-1.785-4.879-1.07-7.042,0.098l-2.459-2.46
	c4.73-1.366,9.072-5.628,10.36-10.417c0,0,2.486,2.487,2.486,2.487c-1.317,2.313-1.886,5.762,0.407,7.547c0,0,0.93,0.928,0.93,0.928
	C94.024,91.124,96.105,93.193,96.756,93.85z M54.104,92.312c-1.896-1.785-4.879-1.07-7.042,0.098l-2.459-2.46
	c4.73-1.366,9.072-5.628,10.36-10.417c0,0,2.486,2.487,2.486,2.487c-1.317,2.313-1.886,5.762,0.407,7.547c0,0,0.93,0.928,0.93,0.928
	c0.62,0.628,2.701,2.696,3.354,3.354c-1.176,0.895-2.346,2.067-3.242,3.256C57.517,95.725,55.466,93.673,54.104,92.312z
	 M60.754,64.344c0.851-1.194,2.075-2.424,3.234-3.264c0.738-0.54,1.534-1.011,2.323-1.349c1.088-0.416,2.38-0.883,3.266-0.203
	c0.559,0.668,0.312,1.98-0.029,2.83c-1.354,3.334-4.24,6.202-7.552,7.545c-0.875,0.295-2.122,0.564-2.779,0.029
	c-0.697-0.694-0.256-2.362,0.183-3.273C59.742,65.86,60.217,65.071,60.754,64.344z M78.063,64.344
	c0.851-1.194,2.075-2.424,3.234-3.264c0.738-0.54,1.534-1.011,2.322-1.349c1.088-0.416,2.38-0.883,3.266-0.203
	c0.559,0.668,0.312,1.98-0.029,2.83c-1.354,3.334-4.24,6.201-7.552,7.545c-0.874,0.296-2.124,0.564-2.779,0.029
	c-0.697-0.694-0.256-2.362,0.183-3.273C77.051,65.86,77.526,65.071,78.063,64.344z M83.619,77.04
	c1.088-0.416,2.38-0.883,3.266-0.202c0.559,0.685,0.304,1.997-0.029,2.83c-1.354,3.334-4.24,6.201-7.552,7.545
	c-0.875,0.296-2.122,0.564-2.779,0.03c-0.697-0.694-0.256-2.362,0.183-3.273c0.344-0.801,0.819-1.59,1.356-2.317
	c0.851-1.194,2.075-2.424,3.234-3.264C82.034,77.849,82.83,77.379,83.619,77.04z M69.366,80.096
	c-1.419,3.135-4.199,5.835-7.371,7.117c-0.874,0.295-2.122,0.564-2.779,0.03c-0.697-0.694-0.256-2.362,0.183-3.273
	c0.344-0.801,0.819-1.59,1.356-2.317c0.851-1.194,2.075-2.424,3.234-3.264c0.738-0.54,1.534-1.011,2.323-1.349
	c1.088-0.416,2.38-0.883,3.266-0.203c0.559,0.685,0.304,1.997-0.029,2.83C69.495,79.809,69.427,79.953,69.366,80.096z
	 M74.758,64.712c-1.317,2.313-1.886,5.761,0.407,7.547c0,0,0.93,0.928,0.93,0.928c0.62,0.628,2.701,2.697,3.354,3.354
	c-1.177,0.895-2.345,2.066-3.242,3.256c-1.38-1.38-3.432-3.432-4.794-4.794c-1.896-1.785-4.878-1.069-7.042,0.099l-2.459-2.46
	c4.73-1.366,9.072-5.628,10.36-10.417C72.272,62.224,74.758,64.712,74.758,64.712z M47.099,71.67
	c3.557-2.011,6.851-5.408,7.863-9.446c0,0,2.486,2.487,2.486,2.487c-1.317,2.313-1.886,5.762,0.407,7.547c0,0,0.93,0.928,0.93,0.928
	c0.62,0.628,2.701,2.697,3.354,3.354c-1.177,0.895-2.345,2.066-3.242,3.256c-1.38-1.38-3.432-3.432-4.794-4.794
	c-1.896-1.784-4.878-1.069-7.042,0.099l-2.459-2.46C45.404,72.449,46.244,72.124,47.099,71.67z M71.413,92.312
	c-1.896-1.785-4.879-1.07-7.042,0.098l-2.459-2.46c4.73-1.366,9.072-5.628,10.36-10.417c0,0,2.486,2.487,2.486,2.487
	c-1.317,2.313-1.886,5.762,0.407,7.547c0,0,0.93,0.928,0.93,0.928c0.62,0.628,2.701,2.696,3.354,3.354
	c-1.176,0.895-2.346,2.067-3.242,3.256C74.826,95.725,72.774,93.673,71.413,92.312z M96.758,76.541
	c-1.177,0.895-2.345,2.066-3.242,3.256c-1.38-1.38-3.432-3.432-4.794-4.794c-1.896-1.784-4.878-1.069-7.042,0.099l-2.459-2.46
	c4.73-1.366,9.072-5.628,10.36-10.417c0,0,2.486,2.487,2.486,2.487c-1.317,2.313-1.886,5.762,0.407,7.547c0,0,0.93,0.928,0.93,0.928
	C94.024,73.815,96.105,75.884,96.758,76.541z M74.758,47.403c-1.317,2.313-1.886,5.761,0.407,7.547c0,0,0.93,0.928,0.93,0.928
	c0.62,0.628,2.701,2.697,3.354,3.354c-1.176,0.895-2.346,2.067-3.242,3.256c-1.381-1.38-3.432-3.433-4.794-4.794
	c-1.896-1.785-4.879-1.07-7.042,0.099l-2.459-2.46c4.73-1.366,9.072-5.628,10.36-10.417C72.272,44.915,74.758,47.403,74.758,47.403z
	 M57.449,47.403c-1.317,2.313-1.886,5.761,0.407,7.547c0,0,0.93,0.928,0.93,0.928c0.62,0.628,2.701,2.697,3.354,3.354
	c-1.176,0.895-2.346,2.067-3.242,3.256c-1.381-1.38-3.432-3.433-4.794-4.794c-1.896-1.785-4.879-1.07-7.042,0.099l-2.459-2.46
	c4.73-1.366,9.072-5.628,10.36-10.417C54.963,44.915,57.449,47.403,57.449,47.403z M91.286,31.856
	c-0.742,2.223-0.499,4.097,0.685,5.28l4.787,4.787c-1.177,0.895-2.345,2.066-3.242,3.256l-4.794-4.794
	c-1.896-1.784-4.878-1.069-7.042,0.099l-2.459-2.46c4.659-1.268,9.27-5.888,10.36-10.417l2.486,2.487
	C91.754,30.685,91.479,31.276,91.286,31.856z M73.977,31.856c-0.742,2.223-0.499,4.097,0.685,5.28l4.787,4.787
	c-1.177,0.895-2.345,2.066-3.242,3.256l-4.794-4.794c-1.896-1.785-4.878-1.069-7.042,0.099l-2.459-2.46
	c4.659-1.268,9.27-5.888,10.36-10.417l2.486,2.487C74.445,30.685,74.17,31.276,73.977,31.856z M56.668,31.856
	c-0.742,2.223-0.499,4.097,0.685,5.28l4.787,4.787c-1.177,0.895-2.345,2.066-3.242,3.256l-4.794-4.794
	c-1.896-1.784-4.878-1.069-7.042,0.099l-2.459-2.46c4.659-1.268,9.27-5.888,10.36-10.417l2.486,2.487
	C57.137,30.685,56.861,31.276,56.668,31.856z M30.477,43.043c1.316-0.706,3.199-1.694,4.481-0.822
	c0.642,0.725,0.236,2.347-0.21,3.258c-1.216,3.255-5.944,7.283-8.628,7.416c-1.468,0.194-2.032-0.371-1.849-1.822
	C24.739,47.957,27.65,44.742,30.477,43.043z M33.739,51.389c1.746-1.831,3.376-3.991,3.915-6.474l2.486,2.487
	c-1.155,2.08-1.859,5.212-0.096,7.042c0,0,4.787,4.787,4.787,4.787c-1.176,0.895-2.346,2.067-3.242,3.256l-4.794-4.794
	c-1.542-1.542-4.224-1.393-7.042,0.099l-2.459-2.46C29.334,54.842,31.635,53.493,33.739,51.389z M30.477,60.352
	c1.316-0.706,3.199-1.694,4.481-0.822c0.642,0.725,0.236,2.347-0.21,3.258c-1.216,3.255-5.944,7.283-8.628,7.416
	c-1.468,0.194-2.032-0.371-1.849-1.822C24.739,65.266,27.65,62.051,30.477,60.352z M33.739,68.698
	c1.746-1.831,3.376-3.991,3.915-6.474l2.486,2.487c-1.155,2.08-1.859,5.212-0.096,7.042c0,0,4.787,4.787,4.787,4.787
	c-1.177,0.895-2.345,2.066-3.242,3.256l-4.794-4.794c-1.542-1.542-4.224-1.392-7.042,0.099l-2.459-2.46
	C29.334,72.151,31.635,70.802,33.739,68.698z M30.477,77.66c1.316-0.706,3.199-1.694,4.481-0.822
	c0.642,0.725,0.236,2.347-0.21,3.258c-1.215,3.254-5.945,7.283-8.626,7.415c-1.47,0.194-2.034-0.369-1.851-1.821
	C24.739,82.575,27.65,79.36,30.477,77.66z M33.739,86.007c1.746-1.831,3.376-3.991,3.915-6.474l2.486,2.487
	c-1.155,2.08-1.859,5.212-0.096,7.042c0,0,4.787,4.787,4.787,4.787c-1.176,0.895-2.346,2.067-3.242,3.256l-4.794-4.794
	c-1.542-1.542-4.224-1.393-7.042,0.098l-2.459-2.46C29.334,89.459,31.635,88.111,33.739,86.007z M30.477,94.969
	c1.316-0.706,3.199-1.694,4.481-0.822c0.642,0.725,0.236,2.347-0.21,3.258c-1.216,3.254-5.942,7.281-8.626,7.414
	c-1.47,0.194-2.034-0.369-1.851-1.821C24.739,99.884,27.65,96.669,30.477,94.969z M106.031,40.385
	c-1.896-1.784-4.878-1.069-7.042,0.099l-2.459-2.46c4.659-1.268,9.27-5.888,10.36-10.417l21.768,21.769
	c1.421,2.776-2.407,7.051-4.811,8.825L106.031,40.385z"/>
</svg>
