<?xml version="1.0" encoding="iso-8859-1"?>
<!-- Generator: Adobe Illustrator 27.5.0, SVG Export Plug-In . SVG Version: 6.00 Build 0)  -->
<svg version="1.1" id="shapes" xmlns="http://www.w3.org/2000/svg" xmlns:xlink="http://www.w3.org/1999/xlink" x="0px" y="0px"
	 width="150px" height="150px" viewBox="0 0 150 150" enable-background="new 0 0 150 150" xml:space="preserve">
<g>
	<path d="M121.594,104.214c1.386-3.527,7.762-16.705,7.688-20.418l-10.524,24.509C119.773,106.975,120.717,105.61,121.594,104.214z"
		/>
	<path d="M111.871,115.812l17.739-34.385c0.103-0.882,0.185-1.766,0.246-2.651l-20.002,38.771
		C110.536,116.986,111.21,116.41,111.871,115.812z"/>
	<path d="M102.246,122.777l27.691-45.133c0.032-0.663,0.04-1.327,0.048-1.991l-29.516,48.108
		C101.067,123.449,101.657,123.114,102.246,122.777z"/>
	<path d="M129.961,73.353L90.529,127.77c0.541-0.159,1.077-0.339,1.614-0.514L130,75.013C130,74.46,129.977,73.906,129.961,73.353z"
		/>
	<path d="M129.877,71.515L80.253,129.75c0.492-0.047,0.983-0.116,1.474-0.176l48.226-56.594
		C129.934,72.491,129.908,72.003,129.877,71.515z"/>
	<path d="M129.767,69.98L69.98,129.767c0.443,0.041,0.887,0.066,1.331,0.095l58.55-58.551
		C129.833,70.868,129.807,70.423,129.767,69.98z"/>
	<path d="M129.623,68.682l-69.537,59.254c0.393,0.11,0.786,0.217,1.18,0.319l68.493-58.365
		C129.723,69.486,129.67,69.085,129.623,68.682z"/>
	<path d="M129.494,67.6c-0.225-1.651-0.521-3.291-0.896-4.915c-0.003-0.014-102.05,22.486-102.05,22.486l100.357-28.4
		c-0.109-0.311-0.235-0.617-0.349-0.926L25.246,84.515l98.634-34.743c-0.153-0.296-0.312-0.59-0.471-0.884L24.08,83.876
		l95.544-41.027c-0.199-0.275-0.402-0.547-0.606-0.82L22.995,83.262l91.061-46.978c-0.237-0.26-0.501-0.49-0.753-0.733
		L22.036,82.635l85.143-52.239c-0.296-0.214-0.597-0.417-0.896-0.624l-85.13,52.23l77.913-56.457c-0.342-0.166-0.68-0.341-1.024-0.5
		L20.377,81.323c0.221,2.015,0.572,4.016,1.025,5.991c0.003,0.014,102.048-22.485,102.048-22.485L23.096,93.228
		c0.109,0.311,0.235,0.617,0.35,0.926l101.31-28.67L26.12,100.229c0.153,0.296,0.312,0.59,0.471,0.884l99.33-34.988L30.377,107.15
		c0.199,0.275,0.402,0.548,0.606,0.82l96.011-41.227l-91.05,46.974c0.237,0.26,0.501,0.49,0.753,0.733l91.277-47.091l-85.153,52.245
		c0.296,0.214,0.597,0.417,0.896,0.624l85.13-52.23l-77.913,56.458c0.342,0.166,0.68,0.341,1.025,0.499l77.665-56.277
		C129.581,68.318,129.542,67.959,129.494,67.6z"/>
	<path d="M28.405,45.787c-1.387,3.528-7.761,16.702-7.687,20.415l10.523-24.507C30.227,43.026,29.282,44.391,28.405,45.787z"/>
	<path d="M38.128,34.19L20.39,68.57c-0.103,0.882-0.186,1.766-0.246,2.651l20-38.767C39.462,33.015,38.788,33.592,38.128,34.19z"/>
	<path d="M47.753,27.223l-27.69,45.132c-0.032,0.663-0.04,1.327-0.048,1.991l29.516-48.108
		C48.932,26.552,48.342,26.887,47.753,27.223z"/>
	<path d="M57.856,22.744L20,74.987c0,0.553,0.022,1.107,0.039,1.66L59.47,22.23C58.929,22.389,58.393,22.568,57.856,22.744z"/>
	<path d="M68.273,20.426L20.048,77.019c0.018,0.489,0.045,0.977,0.075,1.466L69.747,20.25
		C69.254,20.297,68.764,20.366,68.273,20.426z"/>
	<path d="M78.688,20.138l-58.55,58.55c0.03,0.444,0.055,0.888,0.095,1.331l59.786-59.786C79.576,20.193,79.132,20.168,78.688,20.138
		z"/>
	<path d="M88.733,21.745L20.24,80.11c0.037,0.403,0.091,0.805,0.137,1.208l69.536-59.254C89.521,21.953,89.127,21.846,88.733,21.745
		z"/>
</g>
</svg>
