<?xml version="1.0" encoding="iso-8859-1"?>
<!-- Generator: Adobe Illustrator 27.5.0, SVG Export Plug-In . SVG Version: 6.00 Build 0)  -->
<svg version="1.1" id="shapes" xmlns="http://www.w3.org/2000/svg" xmlns:xlink="http://www.w3.org/1999/xlink" x="0px" y="0px"
	 width="150px" height="150px" viewBox="0 0 150 150" enable-background="new 0 0 150 150" xml:space="preserve">
<g>
	<path d="M37.049,67.264c1.855,0.402,11.485,0.153,13.553,0.217c0.698-3.213,2.522-6.008,5.04-7.949
		c0.481-0.371,0.204-1.142-0.403-1.142h-4.157C44.904,58.412,39.573,62.038,37.049,67.264z"/>
	<path d="M34.696,68.517c-1.506-0.394-2.956-0.965-4.326-1.7c-2.643-1.419-5.948-0.447-7.181,2.288
		c-0.932,2.065-1.469,4.302-1.575,6.621H33.78C33.707,73.313,33.896,70.728,34.696,68.517z"/>
	<path d="M80.73,83.962h20.444c0.117-0.812,0.041-5.615,0.061-6.531H78.958c-0.825,0-1.494,0.669-1.494,1.494v1.771
		C77.464,82.5,78.927,83.962,80.73,83.962z"/>
	<path d="M78.958,75.726h22.276c-0.02-0.894,0.055-5.746-0.061-6.54H80.73c-1.803,0-3.265,1.462-3.265,3.266v1.78
		C77.464,75.057,78.133,75.726,78.958,75.726z"/>
	<path d="M39.755,69.186c-1.144,0-2.271-0.113-3.379-0.302c-0.79,2.088-0.962,4.555-0.891,6.842h14.799
		c0.018-0.894-0.052-5.745,0.061-6.54H39.755z"/>
	<path d="M50.284,77.431H35.485v1.688c0,1.805,0.323,3.532,0.887,5.147c2.361-0.542,11.42-0.224,13.972-0.303
		C50.232,83.149,50.302,78.347,50.284,77.431z"/>
	<path d="M117.9,66.922c2.467-0.617,4.781-1.735,6.801-3.319c0.418-0.329,0.422-0.982,0.005-1.313
		c-3.17-2.517-7.205-3.895-11.251-3.899h-3.911C113.238,60.158,116.211,63.184,117.9,66.922z"/>
	<path d="M122.857,66.816c-1.37,0.736-2.821,1.306-4.33,1.701c0.8,2.213,0.99,4.795,0.916,7.21h12.17
		c-0.106-2.32-0.644-4.557-1.576-6.622C128.803,66.37,125.499,65.397,122.857,66.816z"/>
	<path d="M102.94,75.726h14.799v-1.687c0-1.808-0.324-3.539-0.891-5.156c-2.367,0.542-11.41,0.225-13.969,0.304
		C102.992,70.007,102.921,74.802,102.94,75.726z"/>
	<path d="M102.622,67.481h10.834c0.92,0,1.825-0.085,2.719-0.218c-2.525-5.226-7.854-8.851-14.032-8.873h-4.157
		c-0.607,0-0.884,0.771-0.403,1.142C100.099,61.473,101.924,64.269,102.622,67.481z"/>
	<path d="M113.455,83.962c1.15,0,2.283,0.113,3.395,0.304c0.789-2.086,0.959-4.55,0.888-6.836H102.94
		c-0.018,0.887,0.052,5.744-0.061,6.531H113.455z"/>
	<path d="M80.73,67.481h20.133c-1.302-5.198-5.988-9.065-11.578-9.091h-5.996c-3.217,0-5.825,2.608-5.825,5.825
		C77.464,66.019,78.927,67.481,80.73,67.481z"/>
	<path d="M35.323,66.923c1.689-3.738,4.662-6.765,8.356-8.533h-3.924c-4.042,0.005-8.069,1.386-11.235,3.899
		c-0.417,0.331-0.414,0.985,0.005,1.313C30.546,65.189,32.859,66.307,35.323,66.923z"/>
	<path d="M30.366,86.334c1.37-0.736,2.82-1.307,4.327-1.702c-0.798-2.211-0.986-4.79-0.913-7.201H21.614
		c0.107,2.321,0.643,4.556,1.571,6.617C24.418,86.783,27.724,87.754,30.366,86.334z"/>
	<path d="M117.904,86.227c-1.691,3.746-4.671,6.778-8.373,8.547h3.925c4.049-0.005,8.083-1.394,11.251-3.914
		c0.417-0.331,0.413-0.985-0.006-1.313C122.682,87.962,120.37,86.844,117.904,86.227z"/>
	<path d="M100.865,85.667H80.73c-1.803,0-3.265,1.462-3.265,3.266c0,3.229,2.608,5.837,5.825,5.837h5.942
		C94.848,94.77,99.562,90.886,100.865,85.667z"/>
	<path d="M69.935,58.39h-5.996c-5.59,0.026-10.276,3.893-11.578,9.091h20.133c1.804,0,3.265-1.462,3.265-3.266
		C75.759,60.998,73.152,58.39,69.935,58.39z"/>
	<path d="M119.443,77.431c0.073,2.41-0.115,4.993-0.913,7.202c1.51,0.395,2.962,0.966,4.333,1.703
		c2.644,1.421,5.952,0.447,7.182-2.29c0.927-2.063,1.462-4.298,1.568-6.615H119.443z"/>
	<path d="M116.178,85.885c-1.867-0.404-11.474-0.154-13.554-0.218c-0.697,3.218-2.524,6.018-5.046,7.961
		c-0.481,0.37-0.204,1.142,0.403,1.142h4.106C108.291,94.77,113.648,91.132,116.178,85.885z"/>
	<path d="M35.319,86.226c-2.463,0.616-4.774,1.735-6.794,3.319c-0.419,0.329-0.422,0.983-0.006,1.315
		c2.715,2.161,6.067,3.487,9.519,3.831c1.187,0.14,4.414,0.065,5.655,0.083C39.99,93.005,37.01,89.972,35.319,86.226z"/>
	<path d="M50.6,85.667H39.755c-0.916,0-1.819,0.084-2.71,0.218c2.53,5.247,7.887,8.885,14.091,8.885h4.106
		c0.607,0,0.884-0.771,0.403-1.142C53.123,91.685,51.296,88.885,50.6,85.667z"/>
	<path d="M72.494,69.186H52.05c-0.117,0.82-0.041,5.617-0.061,6.54h22.276c0.825,0,1.494-0.669,1.494-1.494v-1.78
		C75.759,70.648,74.298,69.186,72.494,69.186z"/>
	<path d="M74.265,77.431H51.989v5.335c0,0.404,0.022,0.803,0.06,1.197h20.445c1.804,0,3.265-1.462,3.265-3.266v-1.771
		C75.759,78.1,75.091,77.431,74.265,77.431z"/>
	<path d="M72.494,85.667H52.359c1.303,5.219,6.018,9.103,11.634,9.103h5.942c3.217,0,5.825-2.608,5.825-5.825
		C75.759,87.129,74.298,85.667,72.494,85.667z"/>
</g>
</svg>
