<?xml version="1.0" encoding="iso-8859-1"?>
<!-- Generator: Adobe Illustrator 27.5.0, SVG Export Plug-In . SVG Version: 6.00 Build 0)  -->
<svg version="1.1" id="shapes" xmlns="http://www.w3.org/2000/svg" xmlns:xlink="http://www.w3.org/1999/xlink" x="0px" y="0px"
	 width="150px" height="150px" viewBox="0 0 150 150" enable-background="new 0 0 150 150" xml:space="preserve">
<path d="M131.55,75.443c-0.513-4.622-4.318-8.349-8.948-8.78c-4.079-0.379-7.704,1.703-9.574,4.932
	c-0.992,1.713-2.797,2.789-4.776,2.789H84.58c-0.98,0-1.471-1.185-0.778-1.878l16.738-16.739c1.4-1.399,3.437-1.915,5.349-1.405
	c3.305,0.881,6.973,0.037,9.577-2.539c3.787-3.747,3.897-10.056,0.237-13.926c-3.873-4.095-10.333-4.163-14.292-0.204
	c-2.608,2.608-3.464,6.3-2.574,9.624c0.511,1.909-0.011,3.943-1.408,5.34L80.692,69.395c-0.693,0.693-1.878,0.202-1.878-0.778
	V44.946c0-1.979,1.076-3.784,2.789-4.776c3.23-1.87,5.313-5.497,4.932-9.577c-0.432-4.63-4.161-8.433-8.782-8.945
	c-6.013-0.666-11.103,4.023-11.103,9.902c0,3.688,2.006,6.904,4.984,8.625c1.711,0.988,2.781,2.795,2.781,4.771v23.672
	c0,0.98-1.185,1.471-1.878,0.778L55.798,52.657c-1.4-1.399-1.915-3.437-1.405-5.349c0.881-3.304,0.037-6.972-2.537-9.575
	c-3.746-3.787-10.056-3.899-13.927-0.239c-4.096,3.872-4.165,10.334-0.206,14.293c2.608,2.608,6.3,3.464,9.624,2.574
	c1.908-0.511,3.943,0.01,5.339,1.407l16.739,16.739c0.693,0.693,0.202,1.878-0.778,1.878H44.975c-1.979,0-3.784-1.076-4.776-2.789
	c-1.869-3.228-5.495-5.311-9.574-4.932c-4.63,0.43-8.435,4.158-8.948,8.78c-0.668,6.014,4.022,11.106,9.902,11.106
	c3.689,0,6.905-2.005,8.625-4.985c0.988-1.711,2.795-2.78,4.771-2.78h23.673c0.98,0,1.471,1.185,0.778,1.878L52.687,97.4
	c-1.4,1.399-3.437,1.915-5.349,1.405c-3.305-0.881-6.973-0.037-9.577,2.539c-3.787,3.747-3.897,10.056-0.237,13.926
	c3.873,4.095,10.333,4.163,14.292,0.204c2.608-2.608,3.463-6.3,2.574-9.624c-0.511-1.908,0.011-3.943,1.407-5.34l16.739-16.739
	c0.693-0.693,1.878-0.202,1.878,0.778v23.672c0,1.979-1.076,3.784-2.789,4.776c-3.23,1.87-5.313,5.497-4.932,9.578
	c0.432,4.63,4.161,8.433,8.782,8.945c6.013,0.666,11.103-4.024,11.103-9.902c0-3.688-2.006-6.904-4.984-8.625
	c-1.711-0.988-2.781-2.795-2.781-4.771V84.551c0-0.98,1.185-1.471,1.878-0.778l16.738,16.738c1.4,1.4,1.915,3.437,1.405,5.349
	c-0.881,3.304-0.038,6.972,2.537,9.575c3.746,3.787,10.056,3.899,13.927,0.239c4.096-3.872,4.165-10.334,0.206-14.293
	c-2.608-2.608-6.3-3.464-9.624-2.574c-1.908,0.511-3.942-0.011-5.339-1.407L83.803,80.662c-0.693-0.693-0.202-1.878,0.778-1.878
	h23.673c1.975,0,3.782,1.07,4.771,2.78c1.721,2.979,4.937,4.985,8.625,4.985C127.528,86.549,132.218,81.458,131.55,75.443z"/>
</svg>
